%TF.GenerationSoftware,Altium Limited,Altium Designer,23.11.1 (41)*%
G04 Layer_Color=128*
%FSLAX45Y45*%
%MOMM*%
%TF.SameCoordinates,42F4153E-1698-40C0-8701-72EE62771F10*%
%TF.FilePolarity,Positive*%
%TF.FileFunction,Paste,Bot*%
%TF.Part,Single*%
G01*
G75*
%TA.AperFunction,SMDPad,CuDef*%
%ADD12R,0.60000X1.00000*%
%ADD14R,0.58000X0.55000*%
%ADD17R,1.00000X0.60000*%
G04:AMPARAMS|DCode=24|XSize=0.63mm|YSize=0.61mm|CornerRadius=0.14945mm|HoleSize=0mm|Usage=FLASHONLY|Rotation=0.000|XOffset=0mm|YOffset=0mm|HoleType=Round|Shape=RoundedRectangle|*
%AMROUNDEDRECTD24*
21,1,0.63000,0.31110,0,0,0.0*
21,1,0.33110,0.61000,0,0,0.0*
1,1,0.29890,0.16555,-0.15555*
1,1,0.29890,-0.16555,-0.15555*
1,1,0.29890,-0.16555,0.15555*
1,1,0.29890,0.16555,0.15555*
%
%ADD24ROUNDEDRECTD24*%
%ADD28R,0.55000X0.58000*%
G04:AMPARAMS|DCode=29|XSize=0.63mm|YSize=0.61mm|CornerRadius=0.14945mm|HoleSize=0mm|Usage=FLASHONLY|Rotation=270.000|XOffset=0mm|YOffset=0mm|HoleType=Round|Shape=RoundedRectangle|*
%AMROUNDEDRECTD29*
21,1,0.63000,0.31110,0,0,270.0*
21,1,0.33110,0.61000,0,0,270.0*
1,1,0.29890,-0.15555,-0.16555*
1,1,0.29890,-0.15555,0.16555*
1,1,0.29890,0.15555,0.16555*
1,1,0.29890,0.15555,-0.16555*
%
%ADD29ROUNDEDRECTD29*%
%ADD30R,0.58000X0.50000*%
%ADD45R,0.90000X1.60000*%
%TA.AperFunction,ComponentPad*%
%ADD73C,6.20000*%
%TA.AperFunction,SMDPad,CuDef*%
%ADD88R,1.80000X2.10000*%
%ADD92R,1.40000X1.20000*%
%ADD93R,1.65543X0.38077*%
%ADD94R,1.60000X0.61000*%
%ADD95R,1.40000X1.30000*%
%ADD96R,0.80000X1.00000*%
%ADD97R,1.20000X1.35000*%
D12*
X15020000Y4750000D02*
D03*
X14880000D02*
D03*
X13989999Y4520000D02*
D03*
X13850000D02*
D03*
X11640000Y4740000D02*
D03*
X11500000D02*
D03*
X9920000D02*
D03*
X9780000D02*
D03*
X6560000Y4720000D02*
D03*
X6420000D02*
D03*
X4810000Y4740000D02*
D03*
X4670000D02*
D03*
X3160000Y4700000D02*
D03*
X3020000D02*
D03*
X14250000Y2780000D02*
D03*
X14389999D02*
D03*
X12740000Y2790000D02*
D03*
X12880000D02*
D03*
X11190000D02*
D03*
X11330000D02*
D03*
X8500000Y2760000D02*
D03*
X8640000D02*
D03*
X8230000D02*
D03*
X8370000D02*
D03*
X8240000Y4720000D02*
D03*
X8100000D02*
D03*
X5670000Y2780000D02*
D03*
X5530000D02*
D03*
X2600000Y2810000D02*
D03*
X2460000D02*
D03*
X4200000Y2780000D02*
D03*
X4060000D02*
D03*
D14*
X11550000Y8197500D02*
D03*
Y8102500D02*
D03*
X10325000Y6662500D02*
D03*
Y6757500D02*
D03*
D17*
X3780000Y8935000D02*
D03*
Y9075000D02*
D03*
X4475000Y8930000D02*
D03*
Y9070000D02*
D03*
X5180022Y8930002D02*
D03*
Y9070002D02*
D03*
X5980022Y8930002D02*
D03*
Y9070002D02*
D03*
X6680023Y8930002D02*
D03*
Y9070002D02*
D03*
X7280023Y8930002D02*
D03*
Y9070002D02*
D03*
X7880023Y8930002D02*
D03*
Y9070002D02*
D03*
X8910023Y8930002D02*
D03*
Y9070002D02*
D03*
X15770000Y7260000D02*
D03*
Y7400000D02*
D03*
X11730000Y8060000D02*
D03*
Y8200000D02*
D03*
X1100000Y7270000D02*
D03*
Y7410000D02*
D03*
X3535000Y6325001D02*
D03*
Y6465001D02*
D03*
X3655000Y6325001D02*
D03*
Y6465001D02*
D03*
X2865000Y6465000D02*
D03*
Y6325000D02*
D03*
X4780000Y5860000D02*
D03*
Y6000000D02*
D03*
X4630000D02*
D03*
Y5860000D02*
D03*
X5480000Y5870000D02*
D03*
Y6010000D02*
D03*
X5340000Y5870000D02*
D03*
Y6010000D02*
D03*
X9839999Y5970000D02*
D03*
Y5830000D02*
D03*
X13805000Y3190000D02*
D03*
Y3330000D02*
D03*
X13685001Y3190000D02*
D03*
Y3330000D02*
D03*
X14270000Y2300000D02*
D03*
Y2440000D02*
D03*
X12770000Y2310000D02*
D03*
Y2450000D02*
D03*
X12140000Y3210000D02*
D03*
Y3350000D02*
D03*
X12260000Y3210000D02*
D03*
Y3350000D02*
D03*
X11250000Y2310000D02*
D03*
Y2450000D02*
D03*
X10520000Y3200000D02*
D03*
Y3340000D02*
D03*
X10390000Y3200000D02*
D03*
Y3340000D02*
D03*
X8830000Y3140000D02*
D03*
Y3280000D02*
D03*
X8710000Y3140000D02*
D03*
Y3280000D02*
D03*
X8570000Y2270000D02*
D03*
Y2410000D02*
D03*
X8300000Y2280000D02*
D03*
Y2420000D02*
D03*
X7152500Y3205000D02*
D03*
Y3345000D02*
D03*
X7032500Y3205000D02*
D03*
Y3345000D02*
D03*
X5410000Y3150000D02*
D03*
Y3290000D02*
D03*
X5290000Y3150000D02*
D03*
Y3290000D02*
D03*
X5630000Y2280000D02*
D03*
Y2420000D02*
D03*
X3700000Y3160000D02*
D03*
Y3300000D02*
D03*
X3580000Y3160000D02*
D03*
Y3300000D02*
D03*
X1720000Y3150000D02*
D03*
Y3290000D02*
D03*
X1840000Y3150000D02*
D03*
Y3290000D02*
D03*
X4140000Y2290000D02*
D03*
Y2430000D02*
D03*
X2995000Y6325001D02*
D03*
Y6465001D02*
D03*
X2530000Y2470000D02*
D03*
Y2330000D02*
D03*
D24*
X3777500Y6795000D02*
D03*
X3882500D02*
D03*
X3782500Y6880000D02*
D03*
X3887500D02*
D03*
X3537500Y7095000D02*
D03*
X3432500D02*
D03*
X5442500Y6690000D02*
D03*
X5337500D02*
D03*
X5692500Y6345000D02*
D03*
X5587500D02*
D03*
X10837500Y6910000D02*
D03*
X10942500D02*
D03*
X13952499Y4720000D02*
D03*
X13847501D02*
D03*
X11622500Y4940000D02*
D03*
X11517500D02*
D03*
X9902500D02*
D03*
X9797500D02*
D03*
X6522500Y4920000D02*
D03*
X6417500D02*
D03*
X4772500Y4930000D02*
D03*
X4667500D02*
D03*
X3185000Y4940000D02*
D03*
X3080000D02*
D03*
X8212500Y4920000D02*
D03*
X8107500D02*
D03*
X14887500Y4930000D02*
D03*
X14992500D02*
D03*
D28*
X9777500Y8410000D02*
D03*
X9682500D02*
D03*
X9632500Y6700000D02*
D03*
X9727500D02*
D03*
D29*
X3695000Y6747500D02*
D03*
Y6642500D02*
D03*
X3740000Y7022500D02*
D03*
Y7127500D02*
D03*
X2845000Y6952500D02*
D03*
Y7057500D02*
D03*
X2720000Y6887500D02*
D03*
Y6992500D02*
D03*
X2715000Y6797500D02*
D03*
Y6692500D02*
D03*
X2835000Y6747500D02*
D03*
Y6642500D02*
D03*
X5500000Y6582501D02*
D03*
Y6477500D02*
D03*
X5580000Y6532501D02*
D03*
Y6427500D02*
D03*
X5510000Y6292500D02*
D03*
Y6187500D02*
D03*
X4620000Y6592501D02*
D03*
Y6487500D02*
D03*
X4500000Y6542500D02*
D03*
Y6437500D02*
D03*
X4505000Y6247500D02*
D03*
Y6352500D02*
D03*
X4620000Y6177500D02*
D03*
Y6282500D02*
D03*
X14600000Y2647500D02*
D03*
Y2542500D02*
D03*
X13095000Y2667500D02*
D03*
Y2562500D02*
D03*
X11525000Y2647500D02*
D03*
Y2542500D02*
D03*
X8770000Y2397500D02*
D03*
Y2502500D02*
D03*
X8430000Y2239999D02*
D03*
Y2345000D02*
D03*
X5346982Y2527593D02*
D03*
Y2632594D02*
D03*
X2265000Y2582500D02*
D03*
Y2687500D02*
D03*
X3885000Y2542500D02*
D03*
Y2647500D02*
D03*
D30*
X14217999Y2600000D02*
D03*
X14422000Y2535000D02*
D03*
Y2665000D02*
D03*
X12706000Y2615000D02*
D03*
X12910001Y2550000D02*
D03*
Y2680000D02*
D03*
X11158000Y2610000D02*
D03*
X11362000Y2545000D02*
D03*
Y2675000D02*
D03*
X8468000Y2580000D02*
D03*
X8672000Y2515000D02*
D03*
Y2645000D02*
D03*
X8178000Y2580000D02*
D03*
X8382000Y2515000D02*
D03*
Y2645000D02*
D03*
X5710000Y2590000D02*
D03*
X5506000Y2655000D02*
D03*
Y2525000D02*
D03*
X2632000Y2630000D02*
D03*
X2428000Y2695000D02*
D03*
Y2565000D02*
D03*
X4232000Y2600000D02*
D03*
X4028000Y2665000D02*
D03*
Y2535000D02*
D03*
D45*
X14085001Y5270000D02*
D03*
X14375000D02*
D03*
X14774998D02*
D03*
X14485001D02*
D03*
X13455000Y5320000D02*
D03*
X13164999D02*
D03*
X12045001Y5340000D02*
D03*
X12335000D02*
D03*
X10985000Y5270000D02*
D03*
X10695000D02*
D03*
X11095000D02*
D03*
X11385000D02*
D03*
X9295000D02*
D03*
X9005001D02*
D03*
X9395000D02*
D03*
X9684999D02*
D03*
X7705000D02*
D03*
X7994999D02*
D03*
X7595000D02*
D03*
X7305000D02*
D03*
X5895000D02*
D03*
X5605000D02*
D03*
X6015000D02*
D03*
X6305000D02*
D03*
X4195000D02*
D03*
X3905001D02*
D03*
X4305000D02*
D03*
X4594999D02*
D03*
X2515000D02*
D03*
X2225001D02*
D03*
X2625000D02*
D03*
X2915000D02*
D03*
D73*
X9950000Y2100000D02*
D03*
X6950000D02*
D03*
X1900000Y500000D02*
D03*
X8500000Y8600000D02*
D03*
X15100000Y500000D02*
D03*
X1900000Y9500000D02*
D03*
X15100000D02*
D03*
D88*
X14250000Y7220000D02*
D03*
Y6780000D02*
D03*
D92*
X15620000Y7425000D02*
D03*
Y7255000D02*
D03*
X1250000Y7425000D02*
D03*
Y7255000D02*
D03*
X2600000Y1335000D02*
D03*
Y1505000D02*
D03*
X4140000Y1345000D02*
D03*
Y1515000D02*
D03*
X5620000Y1345000D02*
D03*
Y1515000D02*
D03*
X8570000Y1335000D02*
D03*
Y1505000D02*
D03*
X8300000Y1335000D02*
D03*
Y1505000D02*
D03*
X11250000Y1345000D02*
D03*
Y1515000D02*
D03*
X12770000Y1335000D02*
D03*
Y1505000D02*
D03*
X14270000Y1565000D02*
D03*
Y1735000D02*
D03*
D93*
X2982462Y6557501D02*
D03*
Y6622501D02*
D03*
Y6687501D02*
D03*
Y6752501D02*
D03*
Y6817501D02*
D03*
Y6882501D02*
D03*
Y6947501D02*
D03*
Y7012501D02*
D03*
X3547538D02*
D03*
Y6947501D02*
D03*
Y6882501D02*
D03*
Y6817501D02*
D03*
Y6752501D02*
D03*
Y6687501D02*
D03*
Y6622501D02*
D03*
Y6557501D02*
D03*
X4777462Y6092500D02*
D03*
Y6157500D02*
D03*
Y6222500D02*
D03*
Y6287500D02*
D03*
Y6352500D02*
D03*
Y6417500D02*
D03*
Y6482500D02*
D03*
Y6547500D02*
D03*
X5342539D02*
D03*
Y6482500D02*
D03*
Y6417500D02*
D03*
Y6352500D02*
D03*
Y6287500D02*
D03*
Y6222500D02*
D03*
Y6157500D02*
D03*
Y6092500D02*
D03*
D94*
X13680000Y4880500D02*
D03*
Y4753500D02*
D03*
Y4626500D02*
D03*
Y4499500D02*
D03*
X13139999Y4880500D02*
D03*
Y4753500D02*
D03*
Y4626500D02*
D03*
Y4499500D02*
D03*
X14730000Y5110500D02*
D03*
Y4983500D02*
D03*
Y4856500D02*
D03*
Y4729500D02*
D03*
X14189999Y5110500D02*
D03*
Y4983500D02*
D03*
Y4856500D02*
D03*
Y4729500D02*
D03*
X11300000Y5070500D02*
D03*
Y4943500D02*
D03*
Y4816500D02*
D03*
Y4689500D02*
D03*
X10760000Y5070500D02*
D03*
Y4943500D02*
D03*
Y4816500D02*
D03*
Y4689500D02*
D03*
X9640000Y5110500D02*
D03*
Y4983500D02*
D03*
Y4856500D02*
D03*
Y4729500D02*
D03*
X9100000Y5110500D02*
D03*
Y4983500D02*
D03*
Y4856500D02*
D03*
Y4729500D02*
D03*
X6240000Y5080500D02*
D03*
Y4953500D02*
D03*
Y4826500D02*
D03*
Y4699500D02*
D03*
X5700000Y5080500D02*
D03*
Y4953500D02*
D03*
Y4826500D02*
D03*
Y4699500D02*
D03*
X4490000Y5090500D02*
D03*
Y4963500D02*
D03*
Y4836500D02*
D03*
Y4709500D02*
D03*
X3950000Y5090500D02*
D03*
Y4963500D02*
D03*
Y4836500D02*
D03*
Y4709500D02*
D03*
X2830000Y5070500D02*
D03*
Y4943500D02*
D03*
Y4816500D02*
D03*
Y4689500D02*
D03*
X2290000Y5070500D02*
D03*
Y4943500D02*
D03*
Y4816500D02*
D03*
Y4689500D02*
D03*
X7940000Y5080500D02*
D03*
Y4953500D02*
D03*
Y4826500D02*
D03*
Y4699500D02*
D03*
X7400000Y5080500D02*
D03*
Y4953500D02*
D03*
Y4826500D02*
D03*
Y4699500D02*
D03*
D95*
X13510001Y3575000D02*
D03*
Y3285000D02*
D03*
X12430000Y3665000D02*
D03*
Y3375000D02*
D03*
X5580000Y3625000D02*
D03*
Y3335000D02*
D03*
X3890000Y3645000D02*
D03*
Y3355000D02*
D03*
X2020000Y3680000D02*
D03*
Y3390000D02*
D03*
X7322501Y3380000D02*
D03*
Y3670000D02*
D03*
X10690000Y3365000D02*
D03*
Y3655000D02*
D03*
X8990000Y3375000D02*
D03*
Y3665000D02*
D03*
D96*
X13820000Y3665000D02*
D03*
X13725000Y3435000D02*
D03*
X13914999D02*
D03*
X12120000Y3685000D02*
D03*
X12025000Y3455000D02*
D03*
X12215000D02*
D03*
X10420000Y3675000D02*
D03*
X10325000Y3445000D02*
D03*
X10515000D02*
D03*
X8720000Y3615000D02*
D03*
X8625000Y3385000D02*
D03*
X8815000D02*
D03*
X7015000Y3680000D02*
D03*
X6920000Y3450000D02*
D03*
X7110000D02*
D03*
X5300000Y3625000D02*
D03*
X5205000Y3395000D02*
D03*
X5395000D02*
D03*
X3610000Y3635000D02*
D03*
X3515000Y3405000D02*
D03*
X3705000D02*
D03*
X1740000Y3645000D02*
D03*
X1645000Y3415000D02*
D03*
X1835000D02*
D03*
D97*
X14270000Y1882500D02*
D03*
Y2177500D02*
D03*
X12770000Y1882500D02*
D03*
Y2177500D02*
D03*
X11250000Y1882500D02*
D03*
Y2177500D02*
D03*
X8570000Y1852500D02*
D03*
Y2147500D02*
D03*
X8300020Y1852504D02*
D03*
Y2147504D02*
D03*
X2530000Y1902500D02*
D03*
Y2197500D02*
D03*
X5630000Y1852500D02*
D03*
Y2147500D02*
D03*
X4140000Y1862500D02*
D03*
Y2157500D02*
D03*
%TF.MD5,440df730cbc653461af33394c22b7b11*%
M02*
