%TF.GenerationSoftware,Altium Limited,Altium Designer,23.11.1 (41)*%
G04 Layer_Color=0*
%FSLAX45Y45*%
%MOMM*%
%TF.SameCoordinates,42F4153E-1698-40C0-8701-72EE62771F10*%
%TF.FilePolarity,Positive*%
%TF.FileFunction,NonPlated,1,6,NPTH,Drill*%
%TF.Part,Single*%
G01*
G75*
%TA.AperFunction,ComponentDrill*%
%ADD116C,1.60000*%
%ADD117C,2.40000*%
%ADD118C,2.40000*%
%ADD119C,1.00000*%
%ADD120C,3.30000*%
D116*
X7935000Y5700000D02*
D03*
X7465000D02*
D03*
X2935000Y8200000D02*
D03*
X2465000D02*
D03*
X3735000D02*
D03*
X3265000D02*
D03*
X13935001Y5700000D02*
D03*
X13464999D02*
D03*
X12435000D02*
D03*
X11965000D02*
D03*
X10935000D02*
D03*
X10465000D02*
D03*
X9435000D02*
D03*
X8965000D02*
D03*
X6435000D02*
D03*
X5965000D02*
D03*
X4935000D02*
D03*
X4465000D02*
D03*
X3435000D02*
D03*
X2965000D02*
D03*
D117*
X5154001Y7026019D02*
D03*
X4646001Y7026018D02*
D03*
D118*
X4646000Y7343498D02*
D03*
X5154000Y7343500D02*
D03*
D119*
X4900000Y7343499D02*
D03*
X4798500Y6835500D02*
D03*
X5001500Y6835499D02*
D03*
D120*
X11535000Y9417000D02*
D03*
X10265000D02*
D03*
%TF.MD5,236fd95ba7898185a06d4939cf67a6e3*%
M02*
