%TF.GenerationSoftware,Altium Limited,Altium Designer,23.11.1 (41)*%
G04 Layer_Color=16711935*
%FSLAX45Y45*%
%MOMM*%
%TF.SameCoordinates,42F4153E-1698-40C0-8701-72EE62771F10*%
%TF.FilePolarity,Negative*%
%TF.FileFunction,Soldermask,Bot*%
%TF.Part,Single*%
G01*
G75*
%TA.AperFunction,SMDPad,CuDef*%
%ADD12R,0.60000X1.00000*%
%ADD14R,0.58000X0.55000*%
%ADD17R,1.00000X0.60000*%
G04:AMPARAMS|DCode=24|XSize=0.63mm|YSize=0.61mm|CornerRadius=0.14945mm|HoleSize=0mm|Usage=FLASHONLY|Rotation=0.000|XOffset=0mm|YOffset=0mm|HoleType=Round|Shape=RoundedRectangle|*
%AMROUNDEDRECTD24*
21,1,0.63000,0.31110,0,0,0.0*
21,1,0.33110,0.61000,0,0,0.0*
1,1,0.29890,0.16555,-0.15555*
1,1,0.29890,-0.16555,-0.15555*
1,1,0.29890,-0.16555,0.15555*
1,1,0.29890,0.16555,0.15555*
%
%ADD24ROUNDEDRECTD24*%
%ADD28R,0.55000X0.58000*%
G04:AMPARAMS|DCode=29|XSize=0.63mm|YSize=0.61mm|CornerRadius=0.14945mm|HoleSize=0mm|Usage=FLASHONLY|Rotation=270.000|XOffset=0mm|YOffset=0mm|HoleType=Round|Shape=RoundedRectangle|*
%AMROUNDEDRECTD29*
21,1,0.63000,0.31110,0,0,270.0*
21,1,0.33110,0.61000,0,0,270.0*
1,1,0.29890,-0.15555,-0.16555*
1,1,0.29890,-0.15555,0.16555*
1,1,0.29890,0.15555,0.16555*
1,1,0.29890,0.15555,-0.16555*
%
%ADD29ROUNDEDRECTD29*%
%ADD30R,0.58000X0.50000*%
%ADD45R,0.90000X1.60000*%
%TA.AperFunction,ViaPad*%
%ADD74C,3.80000*%
%TA.AperFunction,ComponentPad*%
%ADD75C,2.00000*%
%ADD76C,4.50000*%
%ADD77C,1.80000*%
%ADD78R,1.50000X1.50000*%
%ADD79C,1.50000*%
%ADD80C,2.60000*%
%ADD81C,1.40000*%
%ADD83C,1.70000*%
%ADD84O,2.00000X3.00000*%
%ADD85O,4.10000X2.00000*%
%TA.AperFunction,SMDPad,CuDef*%
%ADD88R,1.80000X2.10000*%
%ADD89C,1.00000*%
%ADD92R,1.40000X1.20000*%
%ADD93R,1.65543X0.38077*%
%ADD94R,1.60000X0.61000*%
%ADD95R,1.40000X1.30000*%
%ADD96R,0.80000X1.00000*%
%ADD97R,1.20000X1.35000*%
%TA.AperFunction,FiducialPad,Global*%
%ADD108C,1.80000*%
%TA.AperFunction,ComponentPad*%
%ADD110C,0.20000*%
%ADD111C,6.40000*%
%ADD112C,2.40000*%
G36*
X13110570Y8819984D02*
X13111140Y8819956D01*
X13111224Y8819941D01*
X13111308Y8819935D01*
X13111868Y8819824D01*
X13112428Y8819722D01*
X13112509Y8819697D01*
X13112595Y8819680D01*
X13113139Y8819494D01*
X13113678Y8819322D01*
X13113754Y8819286D01*
X13113835Y8819258D01*
X13114342Y8819009D01*
X13114864Y8818762D01*
X13114935Y8818715D01*
X13115012Y8818679D01*
X13115483Y8818363D01*
X13115965Y8818052D01*
X13116029Y8817998D01*
X13116101Y8817950D01*
X13116531Y8817572D01*
X13116965Y8817205D01*
X13416965Y8527205D01*
X13417023Y8527141D01*
X13417085Y8527086D01*
X13417461Y8526659D01*
X13417847Y8526234D01*
X13417894Y8526165D01*
X13417950Y8526101D01*
X13418268Y8525626D01*
X13418593Y8525157D01*
X13418633Y8525081D01*
X13418678Y8525011D01*
X13418930Y8524502D01*
X13419193Y8523991D01*
X13419221Y8523911D01*
X13419260Y8523835D01*
X13419443Y8523292D01*
X13419635Y8522757D01*
X13419652Y8522675D01*
X13419679Y8522594D01*
X13419791Y8522036D01*
X13419913Y8521476D01*
X13419919Y8521390D01*
X13419936Y8521308D01*
X13419974Y8520742D01*
X13420020Y8520170D01*
X13420016Y8520085D01*
X13420021Y8520000D01*
Y5880000D01*
X13419936Y5878692D01*
X13419679Y5877406D01*
X13419260Y5876165D01*
X13418678Y5874989D01*
X13417950Y5873899D01*
X13417085Y5872914D01*
X13255022Y5710849D01*
Y5645000D01*
X13254935Y5643692D01*
X13254680Y5642406D01*
X13254259Y5641165D01*
X13253679Y5639989D01*
X13252950Y5638899D01*
X13252086Y5637914D01*
X13030022Y5415849D01*
Y4390021D01*
X14320000D01*
X14321307Y4389935D01*
X14322594Y4389680D01*
X14323836Y4389258D01*
X14325011Y4388679D01*
X14326102Y4387950D01*
X14327086Y4387086D01*
X14327951Y4386100D01*
X14328679Y4385011D01*
X14329259Y4383835D01*
X14329680Y4382593D01*
X14329936Y4381308D01*
X14330022Y4380000D01*
Y4020000D01*
X14329936Y4018692D01*
X14329680Y4017406D01*
X14329259Y4016165D01*
X14328679Y4014989D01*
X14327951Y4013900D01*
X14327086Y4012914D01*
X14326102Y4012050D01*
X14325011Y4011321D01*
X14323836Y4010742D01*
X14322594Y4010320D01*
X14321307Y4010065D01*
X14320000Y4009979D01*
X2250000D01*
X2248692Y4010065D01*
X2247406Y4010320D01*
X2246165Y4010742D01*
X2244989Y4011321D01*
X2243899Y4012050D01*
X2242914Y4012914D01*
X2242050Y4013900D01*
X2241321Y4014989D01*
X2240742Y4016165D01*
X2240320Y4017406D01*
X2240065Y4018692D01*
X2239979Y4020000D01*
Y4590000D01*
X2240065Y4591308D01*
X2240320Y4592594D01*
X2240742Y4593835D01*
X2241321Y4595011D01*
X2242050Y4596101D01*
X2242914Y4597086D01*
X2243899Y4597950D01*
X2244989Y4598679D01*
X2246165Y4599259D01*
X2247406Y4599680D01*
X2248692Y4599935D01*
X2250000Y4600021D01*
X11915849D01*
X12529979Y5214151D01*
Y5520000D01*
X12530065Y5521308D01*
X12530320Y5522593D01*
X12530742Y5523835D01*
X12531321Y5525011D01*
X12532050Y5526100D01*
X12532914Y5527086D01*
X12609979Y5604151D01*
Y7170000D01*
X12610065Y7171308D01*
X12610320Y7172593D01*
X12610742Y7173835D01*
X12611321Y7175011D01*
X12612050Y7176100D01*
X12612914Y7177086D01*
X12789979Y7354151D01*
Y7535849D01*
X12665849Y7659979D01*
X12050000D01*
X12048692Y7660064D01*
X12047407Y7660320D01*
X12046165Y7660741D01*
X12044990Y7661321D01*
X12043900Y7662049D01*
X12042914Y7662914D01*
X12042050Y7663899D01*
X12041322Y7664989D01*
X12040742Y7666165D01*
X12040320Y7667406D01*
X12040065Y7668692D01*
X12039979Y7670000D01*
Y8810000D01*
X12040065Y8811308D01*
X12040320Y8812593D01*
X12040742Y8813835D01*
X12041322Y8815011D01*
X12042050Y8816100D01*
X12042914Y8817086D01*
X12043900Y8817950D01*
X12044990Y8818679D01*
X12046165Y8819258D01*
X12047407Y8819680D01*
X12048692Y8819935D01*
X12050000Y8820021D01*
X13110001D01*
X13110570Y8819984D01*
D02*
G37*
G36*
X14743608Y8760736D02*
X14744894Y8760480D01*
X14746135Y8760059D01*
X14747311Y8759479D01*
X14748401Y8758751D01*
X14749387Y8757886D01*
X15339386Y8167886D01*
X15340250Y8166901D01*
X15340979Y8165811D01*
X15341559Y8164635D01*
X15341980Y8163394D01*
X15342236Y8162108D01*
X15342320Y8160800D01*
Y6524951D01*
X15909386Y5957886D01*
X15910249Y5956901D01*
X15910979Y5955811D01*
X15911559Y5954635D01*
X15911665Y5954321D01*
X15911980Y5953394D01*
X15912234Y5952108D01*
X15912321Y5950800D01*
Y2310800D01*
X15912234Y2309492D01*
X15911980Y2308206D01*
X15911559Y2306965D01*
X15910979Y2305789D01*
X15910249Y2304699D01*
X15909386Y2303714D01*
X14369386Y763714D01*
X14368861Y763253D01*
X14368401Y762850D01*
X14367311Y762121D01*
X14366135Y761542D01*
X14364894Y761120D01*
X14363608Y760864D01*
X14362300Y760779D01*
X3422300D01*
X3420992Y760865D01*
X3419706Y761120D01*
X3418465Y761542D01*
X3417289Y762121D01*
X3416199Y762850D01*
X3415214Y763714D01*
X3414350Y764700D01*
X3413621Y765789D01*
X3413041Y766965D01*
X3412620Y768206D01*
X3412365Y769492D01*
X3412279Y770800D01*
Y1250800D01*
X3412365Y1252108D01*
X3412620Y1253394D01*
X3413041Y1254635D01*
X3413621Y1255811D01*
X3414350Y1256901D01*
X3415214Y1257886D01*
X3416199Y1258751D01*
X3417289Y1259479D01*
X3418465Y1260059D01*
X3419706Y1260480D01*
X3420992Y1260736D01*
X3422300Y1260821D01*
X14168149D01*
X14502280Y1594951D01*
Y1880800D01*
X14502364Y1882108D01*
X14502620Y1883394D01*
X14503041Y1884635D01*
X14503621Y1885811D01*
X14504349Y1886901D01*
X14505214Y1887886D01*
X15242279Y2624951D01*
Y5436653D01*
X14485590Y6194233D01*
X14485172Y6194710D01*
X14484732Y6195212D01*
X14484727Y6195217D01*
X14484726Y6195220D01*
X14484338Y6195799D01*
X14484003Y6196302D01*
X14484003Y6196305D01*
X14483998Y6196310D01*
X14483641Y6197036D01*
X14483423Y6197478D01*
X14483421Y6197481D01*
X14483418Y6197486D01*
X14483212Y6198094D01*
X14483002Y6198719D01*
X14483000Y6198724D01*
X14482999Y6198728D01*
X14482835Y6199546D01*
X14482745Y6200004D01*
X14482745Y6200006D01*
X14482742Y6200013D01*
X14482692Y6200803D01*
X14482658Y6201312D01*
X14482280Y7326648D01*
X14118149Y7690779D01*
X13552299D01*
X13550992Y7690864D01*
X13549706Y7691120D01*
X13548465Y7691541D01*
X13547289Y7692121D01*
X13546199Y7692849D01*
X13545213Y7693714D01*
X13544350Y7694699D01*
X13543620Y7695789D01*
X13543040Y7696965D01*
X13542619Y7698206D01*
X13542365Y7699492D01*
X13542279Y7700800D01*
Y8750800D01*
X13542365Y8752108D01*
X13542619Y8753394D01*
X13543040Y8754635D01*
X13543620Y8755811D01*
X13544350Y8756901D01*
X13545213Y8757886D01*
X13546199Y8758751D01*
X13547289Y8759479D01*
X13548465Y8760059D01*
X13549706Y8760480D01*
X13550992Y8760736D01*
X13552299Y8760821D01*
X14742300D01*
X14743608Y8760736D01*
D02*
G37*
D12*
X15020000Y4750000D02*
D03*
X14880000D02*
D03*
X13989999Y4520000D02*
D03*
X13850000D02*
D03*
X11640000Y4740000D02*
D03*
X11500000D02*
D03*
X9920000D02*
D03*
X9780000D02*
D03*
X6560000Y4720000D02*
D03*
X6420000D02*
D03*
X4810000Y4740000D02*
D03*
X4670000D02*
D03*
X3160000Y4700000D02*
D03*
X3020000D02*
D03*
X14250000Y2780000D02*
D03*
X14389999D02*
D03*
X12740000Y2790000D02*
D03*
X12880000D02*
D03*
X11190000D02*
D03*
X11330000D02*
D03*
X8500000Y2760000D02*
D03*
X8640000D02*
D03*
X8230000D02*
D03*
X8370000D02*
D03*
X8240000Y4720000D02*
D03*
X8100000D02*
D03*
X5670000Y2780000D02*
D03*
X5530000D02*
D03*
X2600000Y2810000D02*
D03*
X2460000D02*
D03*
X4200000Y2780000D02*
D03*
X4060000D02*
D03*
D14*
X11550000Y8197500D02*
D03*
Y8102500D02*
D03*
X10325000Y6662500D02*
D03*
Y6757500D02*
D03*
D17*
X3780000Y8935000D02*
D03*
Y9075000D02*
D03*
X4475000Y8930000D02*
D03*
Y9070000D02*
D03*
X5180022Y8930002D02*
D03*
Y9070002D02*
D03*
X5980022Y8930002D02*
D03*
Y9070002D02*
D03*
X6680023Y8930002D02*
D03*
Y9070002D02*
D03*
X7280023Y8930002D02*
D03*
Y9070002D02*
D03*
X7880023Y8930002D02*
D03*
Y9070002D02*
D03*
X8910023Y8930002D02*
D03*
Y9070002D02*
D03*
X15770000Y7260000D02*
D03*
Y7400000D02*
D03*
X11730000Y8060000D02*
D03*
Y8200000D02*
D03*
X1100000Y7270000D02*
D03*
Y7410000D02*
D03*
X3535000Y6325001D02*
D03*
Y6465001D02*
D03*
X3655000Y6325001D02*
D03*
Y6465001D02*
D03*
X2865000Y6465000D02*
D03*
Y6325000D02*
D03*
X4780000Y5860000D02*
D03*
Y6000000D02*
D03*
X4630000D02*
D03*
Y5860000D02*
D03*
X5480000Y5870000D02*
D03*
Y6010000D02*
D03*
X5340000Y5870000D02*
D03*
Y6010000D02*
D03*
X9839999Y5970000D02*
D03*
Y5830000D02*
D03*
X13805000Y3190000D02*
D03*
Y3330000D02*
D03*
X13685001Y3190000D02*
D03*
Y3330000D02*
D03*
X14270000Y2300000D02*
D03*
Y2440000D02*
D03*
X12770000Y2310000D02*
D03*
Y2450000D02*
D03*
X12140000Y3210000D02*
D03*
Y3350000D02*
D03*
X12260000Y3210000D02*
D03*
Y3350000D02*
D03*
X11250000Y2310000D02*
D03*
Y2450000D02*
D03*
X10520000Y3200000D02*
D03*
Y3340000D02*
D03*
X10390000Y3200000D02*
D03*
Y3340000D02*
D03*
X8830000Y3140000D02*
D03*
Y3280000D02*
D03*
X8710000Y3140000D02*
D03*
Y3280000D02*
D03*
X8570000Y2270000D02*
D03*
Y2410000D02*
D03*
X8300000Y2280000D02*
D03*
Y2420000D02*
D03*
X7152500Y3205000D02*
D03*
Y3345000D02*
D03*
X7032500Y3205000D02*
D03*
Y3345000D02*
D03*
X5410000Y3150000D02*
D03*
Y3290000D02*
D03*
X5290000Y3150000D02*
D03*
Y3290000D02*
D03*
X5630000Y2280000D02*
D03*
Y2420000D02*
D03*
X3700000Y3160000D02*
D03*
Y3300000D02*
D03*
X3580000Y3160000D02*
D03*
Y3300000D02*
D03*
X1720000Y3150000D02*
D03*
Y3290000D02*
D03*
X1840000Y3150000D02*
D03*
Y3290000D02*
D03*
X4140000Y2290000D02*
D03*
Y2430000D02*
D03*
X2995000Y6325001D02*
D03*
Y6465001D02*
D03*
X2530000Y2470000D02*
D03*
Y2330000D02*
D03*
D24*
X3777500Y6795000D02*
D03*
X3882500D02*
D03*
X3782500Y6880000D02*
D03*
X3887500D02*
D03*
X3537500Y7095000D02*
D03*
X3432500D02*
D03*
X5442500Y6690000D02*
D03*
X5337500D02*
D03*
X5692500Y6345000D02*
D03*
X5587500D02*
D03*
X10837500Y6910000D02*
D03*
X10942500D02*
D03*
X13952499Y4720000D02*
D03*
X13847501D02*
D03*
X11622500Y4940000D02*
D03*
X11517500D02*
D03*
X9902500D02*
D03*
X9797500D02*
D03*
X6522500Y4920000D02*
D03*
X6417500D02*
D03*
X4772500Y4930000D02*
D03*
X4667500D02*
D03*
X3185000Y4940000D02*
D03*
X3080000D02*
D03*
X8212500Y4920000D02*
D03*
X8107500D02*
D03*
X14887500Y4930000D02*
D03*
X14992500D02*
D03*
D28*
X9777500Y8410000D02*
D03*
X9682500D02*
D03*
X9632500Y6700000D02*
D03*
X9727500D02*
D03*
D29*
X3695000Y6747500D02*
D03*
Y6642500D02*
D03*
X3740000Y7022500D02*
D03*
Y7127500D02*
D03*
X2845000Y6952500D02*
D03*
Y7057500D02*
D03*
X2720000Y6887500D02*
D03*
Y6992500D02*
D03*
X2715000Y6797500D02*
D03*
Y6692500D02*
D03*
X2835000Y6747500D02*
D03*
Y6642500D02*
D03*
X5500000Y6582501D02*
D03*
Y6477500D02*
D03*
X5580000Y6532501D02*
D03*
Y6427500D02*
D03*
X5510000Y6292500D02*
D03*
Y6187500D02*
D03*
X4620000Y6592501D02*
D03*
Y6487500D02*
D03*
X4500000Y6542500D02*
D03*
Y6437500D02*
D03*
X4505000Y6247500D02*
D03*
Y6352500D02*
D03*
X4620000Y6177500D02*
D03*
Y6282500D02*
D03*
X14600000Y2647500D02*
D03*
Y2542500D02*
D03*
X13095000Y2667500D02*
D03*
Y2562500D02*
D03*
X11525000Y2647500D02*
D03*
Y2542500D02*
D03*
X8770000Y2397500D02*
D03*
Y2502500D02*
D03*
X8430000Y2239999D02*
D03*
Y2345000D02*
D03*
X5346982Y2527593D02*
D03*
Y2632594D02*
D03*
X2265000Y2582500D02*
D03*
Y2687500D02*
D03*
X3885000Y2542500D02*
D03*
Y2647500D02*
D03*
D30*
X14217999Y2600000D02*
D03*
X14422000Y2535000D02*
D03*
Y2665000D02*
D03*
X12706000Y2615000D02*
D03*
X12910001Y2550000D02*
D03*
Y2680000D02*
D03*
X11158000Y2610000D02*
D03*
X11362000Y2545000D02*
D03*
Y2675000D02*
D03*
X8468000Y2580000D02*
D03*
X8672000Y2515000D02*
D03*
Y2645000D02*
D03*
X8178000Y2580000D02*
D03*
X8382000Y2515000D02*
D03*
Y2645000D02*
D03*
X5710000Y2590000D02*
D03*
X5506000Y2655000D02*
D03*
Y2525000D02*
D03*
X2632000Y2630000D02*
D03*
X2428000Y2695000D02*
D03*
Y2565000D02*
D03*
X4232000Y2600000D02*
D03*
X4028000Y2665000D02*
D03*
Y2535000D02*
D03*
D45*
X14085001Y5270000D02*
D03*
X14375000D02*
D03*
X14774998D02*
D03*
X14485001D02*
D03*
X13455000Y5320000D02*
D03*
X13164999D02*
D03*
X12045001Y5340000D02*
D03*
X12335000D02*
D03*
X10985000Y5270000D02*
D03*
X10695000D02*
D03*
X11095000D02*
D03*
X11385000D02*
D03*
X9295000D02*
D03*
X9005001D02*
D03*
X9395000D02*
D03*
X9684999D02*
D03*
X7705000D02*
D03*
X7994999D02*
D03*
X7595000D02*
D03*
X7305000D02*
D03*
X5895000D02*
D03*
X5605000D02*
D03*
X6015000D02*
D03*
X6305000D02*
D03*
X4195000D02*
D03*
X3905001D02*
D03*
X4305000D02*
D03*
X4594999D02*
D03*
X2515000D02*
D03*
X2225001D02*
D03*
X2625000D02*
D03*
X2915000D02*
D03*
D74*
X2064883Y1127230D02*
D03*
X16300000Y4000000D02*
D03*
X12220000Y6680000D02*
D03*
X700000Y4300000D02*
D03*
D75*
X14450000Y3690000D02*
D03*
X13850000Y5110000D02*
D03*
X15050000D02*
D03*
X13850000Y3890000D02*
D03*
X15050000D02*
D03*
X12750000Y3690000D02*
D03*
X12150000Y5110000D02*
D03*
X13350000D02*
D03*
X12150000Y3890000D02*
D03*
X13350000D02*
D03*
X11050000Y3690000D02*
D03*
X10450000Y5110000D02*
D03*
X11650000D02*
D03*
X10450000Y3890000D02*
D03*
X11650000D02*
D03*
X9350000Y3690000D02*
D03*
X8750000Y5110000D02*
D03*
X9950000D02*
D03*
X8750000Y3890000D02*
D03*
X9950000D02*
D03*
X7650000Y3690000D02*
D03*
X7050000Y5110000D02*
D03*
X8250000D02*
D03*
X7050000Y3890000D02*
D03*
X8250000D02*
D03*
X5950000Y3690000D02*
D03*
X5350000Y5110000D02*
D03*
X6550000D02*
D03*
X5350000Y3890000D02*
D03*
X6550000D02*
D03*
X4250000Y3690000D02*
D03*
X3650000Y5110000D02*
D03*
X4850000D02*
D03*
X3650000Y3890000D02*
D03*
X4850000D02*
D03*
X2550000Y3690000D02*
D03*
X1950000Y5110000D02*
D03*
X3150000D02*
D03*
X1950000Y3890000D02*
D03*
X3150000D02*
D03*
X3200000Y9400000D02*
D03*
X2500000D02*
D03*
X4150000D02*
D03*
X3450000D02*
D03*
X5100000D02*
D03*
X4400000D02*
D03*
X6050000D02*
D03*
X5350000D02*
D03*
X7000000D02*
D03*
X6300000D02*
D03*
X7950000D02*
D03*
X7250000D02*
D03*
X8900000D02*
D03*
X8200000D02*
D03*
X9850000D02*
D03*
X9150000D02*
D03*
D76*
X16300000Y7950000D02*
D03*
Y5450000D02*
D03*
X700000Y7950000D02*
D03*
Y5450000D02*
D03*
D77*
X16158000Y7254000D02*
D03*
X16442000Y7115500D02*
D03*
X16158000Y6977000D02*
D03*
X16442000Y6838500D02*
D03*
X16158000Y6700000D02*
D03*
X16442000Y6561500D02*
D03*
X16158000Y6423000D02*
D03*
X16442000Y6284500D02*
D03*
X16158000Y6146000D02*
D03*
X558000Y7254000D02*
D03*
X842000Y7115500D02*
D03*
X558000Y6977000D02*
D03*
X842000Y6838500D02*
D03*
X558000Y6700000D02*
D03*
X842000Y6561500D02*
D03*
X558000Y6423000D02*
D03*
X842000Y6284500D02*
D03*
X558000Y6146000D02*
D03*
D78*
X6105000Y8582000D02*
D03*
D79*
Y8328000D02*
D03*
D80*
X10087000Y9074000D02*
D03*
X11713000D02*
D03*
D81*
X11586200Y8503000D02*
D03*
X11357200D02*
D03*
X10443200D02*
D03*
X10214200D02*
D03*
X11535000Y9417000D02*
D03*
X10265000D02*
D03*
X10646600Y8985200D02*
D03*
X10849800D02*
D03*
X11053000D02*
D03*
X11256200D02*
D03*
X11154600Y9163000D02*
D03*
X10951400D02*
D03*
X10748200D02*
D03*
X10545000D02*
D03*
D83*
X3075000Y9650000D02*
D03*
X2625000D02*
D03*
X4025000D02*
D03*
X3575000D02*
D03*
X4975000D02*
D03*
X4525000D02*
D03*
X5925000D02*
D03*
X5475000D02*
D03*
X6875000D02*
D03*
X6425000D02*
D03*
X7825000D02*
D03*
X7375000D02*
D03*
X8775000D02*
D03*
X8325000D02*
D03*
X9725000D02*
D03*
X9275000D02*
D03*
D84*
X2950000Y530000D02*
D03*
X3450000D02*
D03*
X4450000D02*
D03*
X4950000D02*
D03*
X5950000D02*
D03*
X6450000D02*
D03*
X7450000D02*
D03*
X7950000D02*
D03*
X8950000D02*
D03*
X9450000D02*
D03*
X10450000D02*
D03*
X10950000D02*
D03*
X11950000D02*
D03*
X12450000D02*
D03*
X13450000D02*
D03*
X13950000D02*
D03*
D85*
X6200000Y2685000D02*
D03*
Y2315000D02*
D03*
Y1885000D02*
D03*
Y1515000D02*
D03*
X10700000Y2685000D02*
D03*
Y2315000D02*
D03*
Y1885000D02*
D03*
Y1515000D02*
D03*
X13700000Y2685000D02*
D03*
Y2315000D02*
D03*
Y1885000D02*
D03*
Y1515000D02*
D03*
X3200000Y2685000D02*
D03*
Y2315000D02*
D03*
Y1885000D02*
D03*
Y1515000D02*
D03*
X7700000Y2685000D02*
D03*
Y2315000D02*
D03*
Y1885000D02*
D03*
Y1515000D02*
D03*
X12200000Y2685000D02*
D03*
Y2315000D02*
D03*
Y1885000D02*
D03*
Y1515000D02*
D03*
X4700000Y2685000D02*
D03*
Y2315000D02*
D03*
Y1885000D02*
D03*
Y1515000D02*
D03*
X9200000Y2685000D02*
D03*
Y2315000D02*
D03*
Y1885000D02*
D03*
Y1515000D02*
D03*
D88*
X14250000Y7220000D02*
D03*
Y6780000D02*
D03*
D89*
X14000000Y5500000D02*
D03*
X2844331Y8710988D02*
D03*
X2195684Y9056077D02*
D03*
X2198081Y8711788D02*
D03*
X2845000Y9056077D02*
D03*
X5854342Y6907405D02*
D03*
X5400000Y7000000D02*
D03*
X5700000Y6700000D02*
D03*
X4500000Y6800000D02*
D03*
X4300000Y7500000D02*
D03*
X5000000Y7700000D02*
D03*
X11600000Y6500000D02*
D03*
X12600000Y9400000D02*
D03*
X13800000D02*
D03*
X14400000Y500000D02*
D03*
X12400000Y6400000D02*
D03*
X6600000Y8600000D02*
D03*
Y8200000D02*
D03*
X10300000Y8900000D02*
D03*
X10600000Y9400000D02*
D03*
X11200000Y8800000D02*
D03*
X10900000Y9400000D02*
D03*
X10200000Y6200000D02*
D03*
X13100000Y500000D02*
D03*
X11600000D02*
D03*
X8600000Y400000D02*
D03*
X7100000D02*
D03*
X10100000D02*
D03*
X4100000D02*
D03*
X5600000D02*
D03*
X2600000D02*
D03*
D92*
X15620000Y7425000D02*
D03*
Y7255000D02*
D03*
X1250000Y7425000D02*
D03*
Y7255000D02*
D03*
X2600000Y1335000D02*
D03*
Y1505000D02*
D03*
X4140000Y1345000D02*
D03*
Y1515000D02*
D03*
X5620000Y1345000D02*
D03*
Y1515000D02*
D03*
X8570000Y1335000D02*
D03*
Y1505000D02*
D03*
X8300000Y1335000D02*
D03*
Y1505000D02*
D03*
X11250000Y1345000D02*
D03*
Y1515000D02*
D03*
X12770000Y1335000D02*
D03*
Y1505000D02*
D03*
X14270000Y1565000D02*
D03*
Y1735000D02*
D03*
D93*
X2982462Y6557501D02*
D03*
Y6622501D02*
D03*
Y6687501D02*
D03*
Y6752501D02*
D03*
Y6817501D02*
D03*
Y6882501D02*
D03*
Y6947501D02*
D03*
Y7012501D02*
D03*
X3547538D02*
D03*
Y6947501D02*
D03*
Y6882501D02*
D03*
Y6817501D02*
D03*
Y6752501D02*
D03*
Y6687501D02*
D03*
Y6622501D02*
D03*
Y6557501D02*
D03*
X4777462Y6092500D02*
D03*
Y6157500D02*
D03*
Y6222500D02*
D03*
Y6287500D02*
D03*
Y6352500D02*
D03*
Y6417500D02*
D03*
Y6482500D02*
D03*
Y6547500D02*
D03*
X5342539D02*
D03*
Y6482500D02*
D03*
Y6417500D02*
D03*
Y6352500D02*
D03*
Y6287500D02*
D03*
Y6222500D02*
D03*
Y6157500D02*
D03*
Y6092500D02*
D03*
D94*
X13680000Y4880500D02*
D03*
Y4753500D02*
D03*
Y4626500D02*
D03*
Y4499500D02*
D03*
X13139999Y4880500D02*
D03*
Y4753500D02*
D03*
Y4626500D02*
D03*
Y4499500D02*
D03*
X14730000Y5110500D02*
D03*
Y4983500D02*
D03*
Y4856500D02*
D03*
Y4729500D02*
D03*
X14189999Y5110500D02*
D03*
Y4983500D02*
D03*
Y4856500D02*
D03*
Y4729500D02*
D03*
X11300000Y5070500D02*
D03*
Y4943500D02*
D03*
Y4816500D02*
D03*
Y4689500D02*
D03*
X10760000Y5070500D02*
D03*
Y4943500D02*
D03*
Y4816500D02*
D03*
Y4689500D02*
D03*
X9640000Y5110500D02*
D03*
Y4983500D02*
D03*
Y4856500D02*
D03*
Y4729500D02*
D03*
X9100000Y5110500D02*
D03*
Y4983500D02*
D03*
Y4856500D02*
D03*
Y4729500D02*
D03*
X6240000Y5080500D02*
D03*
Y4953500D02*
D03*
Y4826500D02*
D03*
Y4699500D02*
D03*
X5700000Y5080500D02*
D03*
Y4953500D02*
D03*
Y4826500D02*
D03*
Y4699500D02*
D03*
X4490000Y5090500D02*
D03*
Y4963500D02*
D03*
Y4836500D02*
D03*
Y4709500D02*
D03*
X3950000Y5090500D02*
D03*
Y4963500D02*
D03*
Y4836500D02*
D03*
Y4709500D02*
D03*
X2830000Y5070500D02*
D03*
Y4943500D02*
D03*
Y4816500D02*
D03*
Y4689500D02*
D03*
X2290000Y5070500D02*
D03*
Y4943500D02*
D03*
Y4816500D02*
D03*
Y4689500D02*
D03*
X7940000Y5080500D02*
D03*
Y4953500D02*
D03*
Y4826500D02*
D03*
Y4699500D02*
D03*
X7400000Y5080500D02*
D03*
Y4953500D02*
D03*
Y4826500D02*
D03*
Y4699500D02*
D03*
D95*
X13510001Y3575000D02*
D03*
Y3285000D02*
D03*
X12430000Y3665000D02*
D03*
Y3375000D02*
D03*
X5580000Y3625000D02*
D03*
Y3335000D02*
D03*
X3890000Y3645000D02*
D03*
Y3355000D02*
D03*
X2020000Y3680000D02*
D03*
Y3390000D02*
D03*
X7322501Y3380000D02*
D03*
Y3670000D02*
D03*
X10690000Y3365000D02*
D03*
Y3655000D02*
D03*
X8990000Y3375000D02*
D03*
Y3665000D02*
D03*
D96*
X13820000Y3665000D02*
D03*
X13725000Y3435000D02*
D03*
X13914999D02*
D03*
X12120000Y3685000D02*
D03*
X12025000Y3455000D02*
D03*
X12215000D02*
D03*
X10420000Y3675000D02*
D03*
X10325000Y3445000D02*
D03*
X10515000D02*
D03*
X8720000Y3615000D02*
D03*
X8625000Y3385000D02*
D03*
X8815000D02*
D03*
X7015000Y3680000D02*
D03*
X6920000Y3450000D02*
D03*
X7110000D02*
D03*
X5300000Y3625000D02*
D03*
X5205000Y3395000D02*
D03*
X5395000D02*
D03*
X3610000Y3635000D02*
D03*
X3515000Y3405000D02*
D03*
X3705000D02*
D03*
X1740000Y3645000D02*
D03*
X1645000Y3415000D02*
D03*
X1835000D02*
D03*
D97*
X14270000Y1882500D02*
D03*
Y2177500D02*
D03*
X12770000Y1882500D02*
D03*
Y2177500D02*
D03*
X11250000Y1882500D02*
D03*
Y2177500D02*
D03*
X8570000Y1852500D02*
D03*
Y2147500D02*
D03*
X8300020Y1852504D02*
D03*
Y2147504D02*
D03*
X2530000Y1902500D02*
D03*
Y2197500D02*
D03*
X5630000Y1852500D02*
D03*
Y2147500D02*
D03*
X4140000Y1862500D02*
D03*
Y2157500D02*
D03*
D108*
X15100000Y8900000D02*
D03*
X1000000Y2100000D02*
D03*
X16400000Y2200000D02*
D03*
D110*
X7935000Y5700000D02*
D03*
X7465000D02*
D03*
X2935000Y8200000D02*
D03*
X2465000D02*
D03*
X3735000D02*
D03*
X3265000D02*
D03*
X13935001Y5700000D02*
D03*
X13464999D02*
D03*
X12435000D02*
D03*
X11965000D02*
D03*
X10935000D02*
D03*
X10465000D02*
D03*
X9435000D02*
D03*
X8965000D02*
D03*
X6435000D02*
D03*
X5965000D02*
D03*
X4935000D02*
D03*
X4465000D02*
D03*
X3435000D02*
D03*
X2965000D02*
D03*
D111*
X9950000Y2100000D02*
D03*
X6950000D02*
D03*
X1900000Y500000D02*
D03*
X8500000Y8600000D02*
D03*
X15100000Y500000D02*
D03*
X1900000Y9500000D02*
D03*
X15100000D02*
D03*
D112*
X12600000Y7450000D02*
D03*
X12350000D02*
D03*
X14100000D02*
D03*
X13850000D02*
D03*
X13600000D02*
D03*
X14100000Y8950000D02*
D03*
X13850000D02*
D03*
X13600000D02*
D03*
X12100000Y7450000D02*
D03*
X12600000Y8950000D02*
D03*
X12350000D02*
D03*
X12100000D02*
D03*
%TF.MD5,e49571fd75532a672156f471c8a39c48*%
M02*
