%TF.GenerationSoftware,Altium Limited,Altium Designer,23.11.1 (41)*%
G04 Layer_Color=65535*
%FSLAX45Y45*%
%MOMM*%
%TF.SameCoordinates,42F4153E-1698-40C0-8701-72EE62771F10*%
%TF.FilePolarity,Positive*%
%TF.FileFunction,Legend,Top*%
%TF.Part,Single*%
G01*
G75*
%TA.AperFunction,NonConductor*%
%ADD100C,0.25400*%
%ADD101C,0.25000*%
%ADD102C,0.12700*%
%ADD103C,0.30000*%
%ADD104C,0.50000*%
%ADD105C,0.10000*%
%ADD106C,0.20000*%
%ADD107C,0.40000*%
D100*
X10636882Y5906142D02*
G03*
X10636882Y5906142I-5385J0D01*
G01*
X2773888Y7993858D02*
G03*
X2773888Y7993858I-5385J0D01*
G01*
X3573888D02*
G03*
X3573888Y7993858I-5385J0D01*
G01*
X13636882Y5906142D02*
G03*
X13636882Y5906142I-5385J0D01*
G01*
X12136882D02*
G03*
X12136882Y5906142I-5385J0D01*
G01*
X9136882D02*
G03*
X9136882Y5906142I-5385J0D01*
G01*
X7636882D02*
G03*
X7636882Y5906142I-5385J0D01*
G01*
X6136882D02*
G03*
X6136882Y5906142I-5385J0D01*
G01*
X4595385Y5890000D02*
G03*
X4595385Y5890000I-5385J0D01*
G01*
X3136882Y5906142D02*
G03*
X3136882Y5906142I-5385J0D01*
G01*
X13630000Y3500000D02*
X15270000D01*
X13630000Y5400000D02*
X15270000D01*
X13630000Y3500000D02*
Y5400000D01*
X15270000Y3500000D02*
Y5400000D01*
X11930000Y3500000D02*
X13570000D01*
X11930000Y5400000D02*
X13570000D01*
X11930000Y3500000D02*
Y5400000D01*
X13570000Y3500000D02*
Y5400000D01*
X10230000Y3500000D02*
X11870000D01*
X10230000Y5400000D02*
X11870000D01*
X10230000Y3500000D02*
Y5400000D01*
X11870000Y3500000D02*
Y5400000D01*
X8530000Y3500000D02*
X10170000D01*
X8530000Y5400000D02*
X10170000D01*
X8530000Y3500000D02*
Y5400000D01*
X10170000Y3500000D02*
Y5400000D01*
X6830000Y3500000D02*
X8470000D01*
X6830000Y5400000D02*
X8470000D01*
X6830000Y3500000D02*
Y5400000D01*
X8470000Y3500000D02*
Y5400000D01*
X5130000Y3500000D02*
X6770000D01*
X5130000Y5400000D02*
X6770000D01*
X5130000Y3500000D02*
Y5400000D01*
X6770000Y3500000D02*
Y5400000D01*
X3430000Y3500000D02*
X5070000D01*
X3430000Y5400000D02*
X5070000D01*
X3430000Y3500000D02*
Y5400000D01*
X5070000Y3500000D02*
Y5400000D01*
X1730000Y3500000D02*
X3370000D01*
X1730000Y5400000D02*
X3370000D01*
X1730000Y3500000D02*
Y5400000D01*
X3370000Y3500000D02*
Y5400000D01*
D101*
X15577509Y6755566D02*
G03*
X15577509Y6755566I-12500J0D01*
G01*
X14767453Y6315500D02*
G03*
X14767453Y6315500I-12500J0D01*
G01*
X12082500Y6140000D02*
G03*
X12082500Y6140000I-12500J0D01*
G01*
X10477500Y7163000D02*
G03*
X10477500Y7163000I-12500J0D01*
G01*
X12012500Y6785000D02*
G03*
X12012500Y6785000I-12500J0D01*
G01*
X13392500Y6927500D02*
G03*
X13392500Y6927500I-12500J0D01*
G01*
X10174300Y6939680D02*
G03*
X10174300Y6939680I-12500J0D01*
G01*
X4736322Y8567000D02*
G03*
X4736322Y8567000I-12500J0D01*
G01*
X6247500Y6037500D02*
G03*
X6247500Y6037500I-12500J0D01*
G01*
X11022500Y6732500D02*
G03*
X11022500Y6732500I-12500J0D01*
G01*
X4362500Y8450000D02*
G03*
X4362500Y8450000I-12500J0D01*
G01*
X14342500Y5535000D02*
G03*
X14342500Y5535000I-12500J0D01*
G01*
X14787500Y5410000D02*
G03*
X14787500Y5410000I-12500J0D01*
G01*
D102*
X9505014Y7860003D02*
G03*
X9505014Y7860003I-125000J0D01*
G01*
X9155014Y7635003D02*
Y8085003D01*
X9605014D01*
Y7635003D02*
Y8085003D01*
X9155014Y7635003D02*
X9605014D01*
D103*
X9099014Y7440003D02*
G03*
X9099014Y7440003I-12000J0D01*
G01*
D104*
X6802500Y5672500D02*
G03*
X6802500Y5672500I-2500J0D01*
G01*
X10265000Y7317500D02*
G03*
X10265000Y7317500I-2500J0D01*
G01*
D105*
X5577500Y7345500D02*
G03*
X5577500Y7345500I-5000J0D01*
G01*
X5492500Y7064500D02*
G03*
X5492500Y7064500I-5000J0D01*
G01*
X5547500Y6865500D02*
G03*
X5547500Y6865500I-5000J0D01*
G01*
X4014500Y8549000D02*
G03*
X4014500Y8549000I-5000J0D01*
G01*
X12925000Y5885000D02*
X13085001D01*
X12925000Y6045000D02*
X13085001D01*
X12925000Y5680000D02*
X13085001D01*
X12925000Y5840000D02*
X13085001D01*
X4340000Y7020000D02*
Y7180000D01*
X4180000Y7020000D02*
Y7180000D01*
X9650000Y9010000D02*
X9810000D01*
X9650000Y8850000D02*
X9810000D01*
X4708000Y7225499D02*
Y7205506D01*
Y7215502D01*
X4767981D01*
X4757984Y7225499D01*
D106*
X6326463Y8537870D02*
G03*
X6326463Y8537870I-7536J0D01*
G01*
X2100000Y6100000D02*
G03*
X2110000Y6100000I5000J0D01*
G01*
D02*
G03*
X2100000Y6100000I-5000J0D01*
G01*
X15530008Y6585566D02*
Y6685566D01*
X15460008Y6585566D02*
X15530008D01*
X15230008D02*
Y6685566D01*
Y6585566D02*
X15300008D01*
X15342000Y6884000D02*
Y6956000D01*
X14875262Y6050500D02*
X15155263D01*
X14875262Y6390500D02*
X15155263D01*
X1700000Y8510000D02*
X2280000D01*
X1700000Y8780000D02*
X2280000D01*
X1700000Y8220000D02*
X2280000D01*
X15148775Y8990452D02*
X15548595D01*
X14718774D02*
X15148775D01*
X14708595Y7760452D02*
Y7850452D01*
X15138596Y7760452D02*
Y7850452D01*
Y7760452D02*
X15538596D01*
X14708595D02*
X15138596D01*
Y7850452D02*
X15148775Y8990452D01*
X14708595Y7850452D02*
X14718774Y8990452D01*
X15538596Y7760452D02*
X15549577Y8990443D01*
X11924987Y6114997D02*
Y6284997D01*
X11934987Y6114997D02*
Y6284997D01*
X11924987D02*
X11934987D01*
X11924987Y6114997D02*
X11934987D01*
X10268500Y7368000D02*
Y8092000D01*
X11430000D02*
X11551500D01*
X10268500D02*
X10390000D01*
X11551500Y7368000D02*
Y8092000D01*
X11430000Y7368000D02*
X11551500D01*
X10268500D02*
X10390000D01*
X9915000Y8255000D02*
X10025000D01*
X9915000Y8105000D02*
X10025000D01*
X11852498Y6820011D02*
X11952498D01*
X11852498D02*
Y6865011D01*
Y7040011D02*
X11952498D01*
X11852498Y6995011D02*
Y7040011D01*
X12975000Y6095000D02*
X13085001D01*
X12975000Y6245000D02*
X13085001D01*
X13485001Y6367500D02*
X13855000D01*
X13485001Y6877500D02*
X13855000D01*
Y6367500D02*
Y6877500D01*
X13485001Y6367500D02*
Y6877500D01*
X10220000Y6875000D02*
X10255000D01*
Y6840000D02*
Y6875000D01*
Y6445000D02*
Y6480000D01*
X10220000Y6445000D02*
X10255000D01*
X9825000D02*
X9860000D01*
X9825000D02*
Y6480000D01*
Y6875000D02*
X9860000D01*
X9825000Y6840000D02*
Y6875000D01*
X6490000Y8560000D02*
X6580000D01*
Y8260000D02*
Y8330000D01*
Y8490000D02*
Y8560000D01*
X6490000Y8260000D02*
X6580000D01*
X6440000Y8395000D02*
Y8425000D01*
X6245000Y6195000D02*
Y7525000D01*
X7575000D01*
Y6195000D02*
Y7525000D01*
X6245000Y6195000D02*
X7575000D01*
X10845000Y6755000D02*
Y7065000D01*
X10935000Y6755000D02*
Y7065000D01*
X10845000D02*
X10935000D01*
X10845000Y6755000D02*
X10935000D01*
X4165000Y8490000D02*
X4265000D01*
X4165000D02*
Y8560000D01*
Y8790000D02*
X4265000D01*
X4165000Y8720000D02*
Y8790000D01*
X9665000Y8645000D02*
X9775000D01*
X9665000Y8795000D02*
X9775000D01*
X14160001Y5800000D02*
Y5870000D01*
X14260001D01*
X14160001Y5570000D02*
Y5640000D01*
Y5570000D02*
X14260001D01*
X14589999Y5680000D02*
Y5750000D01*
X14689999D01*
X14589999Y5450000D02*
Y5520000D01*
Y5450000D02*
X14689999D01*
X14720000Y6840000D02*
Y6860000D01*
X14980000Y6840000D02*
Y6860000D01*
X14420000Y6840000D02*
Y6860000D01*
X14680000Y6840000D02*
Y6860000D01*
X14120000Y6840000D02*
Y6860000D01*
X14380000Y6840000D02*
Y6860000D01*
X1619522Y8418358D02*
Y8338384D01*
X1672838D01*
X1617523Y8683295D02*
Y8603320D01*
Y8643308D01*
X1670839D01*
Y8683295D01*
Y8603320D01*
X1449951Y8026093D02*
X1503267D01*
X1529925Y8052751D01*
X1503267Y8079409D01*
X1449951D01*
X1476609Y8119396D02*
Y8146054D01*
X1489938Y8159383D01*
X1529925D01*
Y8119396D01*
X1516596Y8106067D01*
X1503267Y8119396D01*
Y8159383D01*
X1476609Y8186041D02*
X1529925D01*
X1503267D01*
X1489938Y8199370D01*
X1476609Y8212699D01*
Y8226029D01*
X1529925Y8266015D02*
Y8292674D01*
Y8279345D01*
X1476609D01*
Y8266015D01*
Y8345990D02*
Y8372648D01*
X1489938Y8385977D01*
X1529925D01*
Y8345990D01*
X1516596Y8332661D01*
X1503267Y8345990D01*
Y8385977D01*
X1529925Y8412635D02*
X1476609D01*
Y8452622D01*
X1489938Y8465951D01*
X1529925D01*
X1463280Y8505938D02*
X1476609D01*
Y8492609D01*
Y8519267D01*
Y8505938D01*
X1516596D01*
X1529925Y8519267D01*
X1463280Y8692545D02*
X1449951Y8679216D01*
Y8652558D01*
X1463280Y8639229D01*
X1516596D01*
X1529925Y8652558D01*
Y8679216D01*
X1516596Y8692545D01*
X1529925Y8732532D02*
Y8759190D01*
X1516596Y8772519D01*
X1489938D01*
X1476609Y8759190D01*
Y8732532D01*
X1489938Y8719203D01*
X1516596D01*
X1529925Y8732532D01*
X1449951Y8852493D02*
X1529925D01*
Y8812506D01*
X1516596Y8799177D01*
X1489938D01*
X1476609Y8812506D01*
Y8852493D01*
X1529925Y8879151D02*
Y8905809D01*
Y8892480D01*
X1476609D01*
Y8879151D01*
X1529925Y8945796D02*
X1476609D01*
Y8985784D01*
X1489938Y8999113D01*
X1529925D01*
X1556583Y9052429D02*
Y9065758D01*
X1543254Y9079087D01*
X1476609D01*
Y9039100D01*
X1489938Y9025771D01*
X1516596D01*
X1529925Y9039100D01*
Y9079087D01*
X14963251Y1865000D02*
X14896605D01*
X14963251Y1931645D01*
Y1948306D01*
X14946590Y1964968D01*
X14913266D01*
X14896605Y1948306D01*
X14996571D02*
X15013234Y1964968D01*
X15046556D01*
X15063219Y1948306D01*
Y1881661D01*
X15046556Y1865000D01*
X15013234D01*
X14996571Y1881661D01*
Y1948306D01*
X15163185Y1865000D02*
X15096539D01*
X15163185Y1931645D01*
Y1948306D01*
X15146524Y1964968D01*
X15113202D01*
X15096539Y1948306D01*
X15246492Y1865000D02*
Y1964968D01*
X15196507Y1914984D01*
X15263153D01*
X15296477D02*
X15363121D01*
X15396445Y1865000D02*
X15429765D01*
X15413104D01*
Y1964968D01*
X15396445Y1948306D01*
X15479750D02*
X15496411Y1964968D01*
X15529733D01*
X15546394Y1948306D01*
Y1881661D01*
X15529733Y1865000D01*
X15496411D01*
X15479750Y1881661D01*
Y1948306D01*
X15579718Y1914984D02*
X15646362D01*
X15746330Y1865000D02*
X15679686D01*
X15746330Y1931645D01*
Y1948306D01*
X15729671Y1964968D01*
X15696347D01*
X15679686Y1948306D01*
X15829637Y1865000D02*
Y1964968D01*
X15779652Y1914984D01*
X15846300D01*
X14705000Y2114968D02*
Y2015000D01*
Y2048323D01*
X14771645Y2114968D01*
X14721661Y2064984D01*
X14771645Y2015000D01*
X14804968D02*
Y2114968D01*
X14854951D01*
X14871613Y2098306D01*
Y2064984D01*
X14854951Y2048323D01*
X14804968D01*
X14838290D02*
X14871613Y2015000D01*
X14904935Y2064984D02*
X14971581D01*
X15004903Y2114968D02*
Y2015000D01*
X15054887D01*
X15071548Y2031661D01*
Y2098306D01*
X15054887Y2114968D01*
X15004903D01*
X15121532Y2015000D02*
Y2098306D01*
Y2064984D01*
X15104871D01*
X15138193D01*
X15121532D01*
Y2098306D01*
X15138193Y2114968D01*
X15188177Y2064984D02*
X15254822D01*
X15288145Y2098306D02*
X15304807Y2114968D01*
X15338129D01*
X15354790Y2098306D01*
Y2031661D01*
X15338129Y2015000D01*
X15304807D01*
X15288145Y2031661D01*
Y2098306D01*
X15388113Y2015000D02*
X15421436D01*
X15404774D01*
Y2114968D01*
X15388113Y2098306D01*
X15471419Y2064984D02*
X15538065D01*
X15638033Y2114968D02*
X15571387D01*
Y2015000D01*
X15638033D01*
X15571387Y2064984D02*
X15604710D01*
X15671355Y2114968D02*
Y2015000D01*
X15738000D01*
X15771323Y2064984D02*
X15837968D01*
X15871291Y2098306D02*
X15887952Y2114968D01*
X15921274D01*
X15937936Y2098306D01*
Y2031661D01*
X15921274Y2015000D01*
X15887952D01*
X15871291Y2031661D01*
Y2098306D01*
X15971259D02*
X15987920Y2114968D01*
X16021242D01*
X16037903Y2098306D01*
Y2031661D01*
X16021242Y2015000D01*
X15987920D01*
X15971259Y2031661D01*
Y2098306D01*
X15304807Y1776645D02*
X15338129Y1710000D01*
X15371452Y1776645D01*
X15404774Y1710000D02*
X15438097D01*
X15421436D01*
Y1809968D01*
X15404774Y1793307D01*
X5026726Y7820016D02*
Y7919984D01*
X5076710D01*
X5093371Y7903323D01*
Y7870000D01*
X5076710Y7853339D01*
X5026726D01*
X5060048D02*
X5093371Y7820016D01*
X5126694Y7903323D02*
X5143355Y7919984D01*
X5176677D01*
X5193339Y7903323D01*
Y7886661D01*
X5176677Y7870000D01*
X5160016D01*
X5176677D01*
X5193339Y7853339D01*
Y7836677D01*
X5176677Y7820016D01*
X5143355D01*
X5126694Y7836677D01*
X5226661Y7903323D02*
X5243323Y7919984D01*
X5276645D01*
X5293306Y7903323D01*
Y7836677D01*
X5276645Y7820016D01*
X5243323D01*
X5226661Y7836677D01*
Y7903323D01*
X5326629Y7919984D02*
X5393274D01*
Y7903323D01*
X5326629Y7836677D01*
Y7820016D01*
X15170644Y7329149D02*
X15090669D01*
Y7369136D01*
X15103998Y7382465D01*
X15130656D01*
X15143985Y7369136D01*
Y7329149D01*
Y7355807D02*
X15170644Y7382465D01*
Y7449110D02*
X15090669D01*
X15130656Y7409123D01*
Y7462439D01*
X15170644Y7489097D02*
Y7515755D01*
Y7502426D01*
X15090669D01*
X15103998Y7489097D01*
X15090669Y7609059D02*
Y7555743D01*
X15130656D01*
X15117326Y7582401D01*
Y7595730D01*
X15130656Y7609059D01*
X15157314D01*
X15170644Y7595730D01*
Y7569072D01*
X15157314Y7555743D01*
X15396696Y6403342D02*
Y6456658D01*
X15383368Y6469987D01*
X15356709D01*
X15343381Y6456658D01*
Y6403342D01*
X15356709Y6390013D01*
X15383368D01*
X15370039Y6416671D02*
X15396696Y6390013D01*
X15383368D02*
X15396696Y6403342D01*
X15463342Y6390013D02*
Y6469987D01*
X15423355Y6430000D01*
X15476671D01*
X15503329Y6456658D02*
X15516658Y6469987D01*
X15543317D01*
X15556645Y6456658D01*
Y6403342D01*
X15543317Y6390013D01*
X15516658D01*
X15503329Y6403342D01*
Y6456658D01*
X15583302D02*
X15596632Y6469987D01*
X15623291D01*
X15636620Y6456658D01*
Y6403342D01*
X15623291Y6390013D01*
X15596632D01*
X15583302Y6403342D01*
Y6456658D01*
X15255069Y7100872D02*
Y7020898D01*
X15295056D01*
X15308385Y7034227D01*
Y7087543D01*
X15295056Y7100872D01*
X15255069D01*
X15375031Y7020898D02*
Y7100872D01*
X15335043Y7060885D01*
X15388359D01*
X15415018Y7087543D02*
X15428346Y7100872D01*
X15455005D01*
X15468333Y7087543D01*
Y7034227D01*
X15455005Y7020898D01*
X15428346D01*
X15415018Y7034227D01*
Y7087543D01*
X15548308Y7020898D02*
X15494992D01*
X15548308Y7074214D01*
Y7087543D01*
X15534979Y7100872D01*
X15508321D01*
X15494992Y7087543D01*
X14917088Y5995001D02*
Y5928356D01*
X14930417Y5915027D01*
X14957076D01*
X14970404Y5928356D01*
Y5995001D01*
X15037048Y5915027D02*
Y5995001D01*
X14997063Y5955014D01*
X15050378D01*
X15077036Y5915027D02*
X15103694D01*
X15090366D01*
Y5995001D01*
X15077036Y5981672D01*
X15143681D02*
X15157011Y5995001D01*
X15183669D01*
X15196999Y5981672D01*
Y5928356D01*
X15183669Y5915027D01*
X15157011D01*
X15143681Y5928356D01*
Y5981672D01*
X15329857Y5870020D02*
X15316528Y5856691D01*
Y5830033D01*
X15329857Y5816704D01*
X15383173D01*
X15396503Y5830033D01*
Y5856691D01*
X15383173Y5870020D01*
X15396503Y5936665D02*
X15316528D01*
X15356516Y5896678D01*
Y5949994D01*
X15396503Y6016639D02*
X15316528D01*
X15356516Y5976652D01*
Y6029968D01*
X15396503Y6056626D02*
Y6083285D01*
Y6069956D01*
X15316528D01*
X15329857Y6056626D01*
X2239987Y7833381D02*
X2160013D01*
Y7873368D01*
X2173342Y7886697D01*
X2200000D01*
X2213329Y7873368D01*
Y7833381D01*
Y7860039D02*
X2239987Y7886697D01*
X2160013Y7966671D02*
Y7913355D01*
X2200000D01*
X2186671Y7940013D01*
Y7953342D01*
X2200000Y7966671D01*
X2226658D01*
X2239987Y7953342D01*
Y7926684D01*
X2226658Y7913355D01*
X2239987Y8046645D02*
Y7993329D01*
X2186671Y8046645D01*
X2173342D01*
X2160013Y8033316D01*
Y8006658D01*
X2173342Y7993329D01*
X2239987Y8126620D02*
Y8073303D01*
X2186671Y8126620D01*
X2173342D01*
X2160013Y8113291D01*
Y8086633D01*
X2173342Y8073303D01*
X2099987Y7833381D02*
X2020012D01*
Y7873368D01*
X2033341Y7886697D01*
X2059999D01*
X2073329Y7873368D01*
Y7833381D01*
Y7860039D02*
X2099987Y7886697D01*
X2020012Y7966671D02*
Y7913355D01*
X2059999D01*
X2046671Y7940013D01*
Y7953342D01*
X2059999Y7966671D01*
X2086657D01*
X2099987Y7953342D01*
Y7926684D01*
X2086657Y7913355D01*
X2099987Y8046646D02*
Y7993329D01*
X2046671Y8046646D01*
X2033341D01*
X2020012Y8033317D01*
Y8006659D01*
X2033341Y7993329D01*
X2099987Y8073304D02*
Y8099962D01*
Y8086633D01*
X2020012D01*
X2033341Y8073304D01*
X1959987Y7833381D02*
X1880013D01*
Y7873368D01*
X1893342Y7886697D01*
X1920000D01*
X1933329Y7873368D01*
Y7833381D01*
Y7860039D02*
X1959987Y7886697D01*
X1880013Y7966671D02*
Y7913355D01*
X1920000D01*
X1906671Y7940013D01*
Y7953342D01*
X1920000Y7966671D01*
X1946658D01*
X1959987Y7953342D01*
Y7926684D01*
X1946658Y7913355D01*
X1959987Y8046645D02*
Y7993329D01*
X1906671Y8046645D01*
X1893342D01*
X1880013Y8033316D01*
Y8006658D01*
X1893342Y7993329D01*
Y8073303D02*
X1880013Y8086633D01*
Y8113291D01*
X1893342Y8126620D01*
X1946658D01*
X1959987Y8113291D01*
Y8086633D01*
X1946658Y8073303D01*
X1893342D01*
X1819987Y7833381D02*
X1740013D01*
Y7873368D01*
X1753342Y7886697D01*
X1780000D01*
X1793329Y7873368D01*
Y7833381D01*
Y7860039D02*
X1819987Y7886697D01*
X1740013Y7966671D02*
Y7913355D01*
X1780000D01*
X1766671Y7940013D01*
Y7953342D01*
X1780000Y7966671D01*
X1806658D01*
X1819987Y7953342D01*
Y7926684D01*
X1806658Y7913355D01*
X1819987Y7993329D02*
Y8019987D01*
Y8006658D01*
X1740013D01*
X1753342Y7993329D01*
X1806658Y8059974D02*
X1819987Y8073304D01*
Y8099962D01*
X1806658Y8113291D01*
X1753342D01*
X1740013Y8099962D01*
Y8073304D01*
X1753342Y8059974D01*
X1766671D01*
X1780000Y8073304D01*
Y8113291D01*
X2240123Y8834589D02*
X2160149D01*
Y8874577D01*
X2173478Y8887906D01*
X2200136D01*
X2213465Y8874577D01*
Y8834589D01*
Y8861247D02*
X2240123Y8887906D01*
X2160149Y8967880D02*
Y8914564D01*
X2200136D01*
X2186807Y8941222D01*
Y8954551D01*
X2200136Y8967880D01*
X2226794D01*
X2240123Y8954551D01*
Y8927893D01*
X2226794Y8914564D01*
X2240123Y8994538D02*
Y9021196D01*
Y9007867D01*
X2160149D01*
X2173478Y8994538D01*
Y9061183D02*
X2160149Y9074512D01*
Y9101170D01*
X2173478Y9114499D01*
X2186807D01*
X2200136Y9101170D01*
X2213465Y9114499D01*
X2226794D01*
X2240123Y9101170D01*
Y9074512D01*
X2226794Y9061183D01*
X2213465D01*
X2200136Y9074512D01*
X2186807Y9061183D01*
X2173478D01*
X2200136Y9074512D02*
Y9101170D01*
X2100123Y8834589D02*
X2020149D01*
Y8874577D01*
X2033478Y8887906D01*
X2060136D01*
X2073465Y8874577D01*
Y8834589D01*
Y8861247D02*
X2100123Y8887906D01*
X2020149Y8967880D02*
Y8914564D01*
X2060136D01*
X2046807Y8941222D01*
Y8954551D01*
X2060136Y8967880D01*
X2086794D01*
X2100123Y8954551D01*
Y8927893D01*
X2086794Y8914564D01*
X2100123Y8994538D02*
Y9021196D01*
Y9007867D01*
X2020149D01*
X2033478Y8994538D01*
X2020149Y9061183D02*
Y9114499D01*
X2033478D01*
X2086794Y9061183D01*
X2100123D01*
X1960123Y8834589D02*
X1880149D01*
Y8874577D01*
X1893478Y8887906D01*
X1920136D01*
X1933465Y8874577D01*
Y8834589D01*
Y8861247D02*
X1960123Y8887906D01*
X1880149Y8967880D02*
Y8914564D01*
X1920136D01*
X1906807Y8941222D01*
Y8954551D01*
X1920136Y8967880D01*
X1946794D01*
X1960123Y8954551D01*
Y8927893D01*
X1946794Y8914564D01*
X1960123Y8994538D02*
Y9021196D01*
Y9007867D01*
X1880149D01*
X1893478Y8994538D01*
X1880149Y9114499D02*
X1893478Y9087841D01*
X1920136Y9061183D01*
X1946794D01*
X1960123Y9074512D01*
Y9101170D01*
X1946794Y9114499D01*
X1933465D01*
X1920136Y9101170D01*
Y9061183D01*
X1820123Y8834589D02*
X1740149D01*
Y8874577D01*
X1753478Y8887906D01*
X1780136D01*
X1793465Y8874577D01*
Y8834589D01*
Y8861247D02*
X1820123Y8887906D01*
X1740149Y8967880D02*
Y8914564D01*
X1780136D01*
X1766807Y8941222D01*
Y8954551D01*
X1780136Y8967880D01*
X1806794D01*
X1820123Y8954551D01*
Y8927893D01*
X1806794Y8914564D01*
X1820123Y8994538D02*
Y9021196D01*
Y9007867D01*
X1740149D01*
X1753478Y8994538D01*
X1740149Y9114499D02*
Y9061183D01*
X1780136D01*
X1766807Y9087841D01*
Y9101170D01*
X1780136Y9114499D01*
X1806794D01*
X1820123Y9101170D01*
Y9074512D01*
X1806794Y9061183D01*
X14890045Y3150013D02*
Y3229987D01*
X14930032D01*
X14943361Y3216658D01*
Y3190000D01*
X14930032Y3176671D01*
X14890045D01*
X14916702D02*
X14943361Y3150013D01*
X14970020D02*
X14996677D01*
X14983348D01*
Y3229987D01*
X14970020Y3216658D01*
X15089981Y3229987D02*
X15036665D01*
Y3190000D01*
X15063322Y3203329D01*
X15076653D01*
X15089981Y3190000D01*
Y3163342D01*
X15076653Y3150013D01*
X15049994D01*
X15036665Y3163342D01*
X15169955Y3229987D02*
X15116640D01*
Y3190000D01*
X15143297Y3203329D01*
X15156625D01*
X15169955Y3190000D01*
Y3163342D01*
X15156625Y3150013D01*
X15129968D01*
X15116640Y3163342D01*
X13159698Y3148309D02*
Y3228284D01*
X13199686D01*
X13213014Y3214955D01*
Y3188297D01*
X13199686Y3174967D01*
X13159698D01*
X13186356D02*
X13213014Y3148309D01*
X13239671D02*
X13266330D01*
X13253001D01*
Y3228284D01*
X13239671Y3214955D01*
X13359633Y3228284D02*
X13306317D01*
Y3188297D01*
X13332974Y3201626D01*
X13346304D01*
X13359633Y3188297D01*
Y3161639D01*
X13346304Y3148309D01*
X13319646D01*
X13306317Y3161639D01*
X13426279Y3148309D02*
Y3228284D01*
X13386292Y3188297D01*
X13439607D01*
X11480045Y3150013D02*
Y3229987D01*
X11520032D01*
X11533361Y3216658D01*
Y3190000D01*
X11520032Y3176671D01*
X11480045D01*
X11506703D02*
X11533361Y3150013D01*
X11560019D02*
X11586677D01*
X11573348D01*
Y3229987D01*
X11560019Y3216658D01*
X11679981Y3229987D02*
X11626665D01*
Y3190000D01*
X11653323Y3203329D01*
X11666652D01*
X11679981Y3190000D01*
Y3163342D01*
X11666652Y3150013D01*
X11639994D01*
X11626665Y3163342D01*
X11706639Y3216658D02*
X11719968Y3229987D01*
X11746626D01*
X11759955Y3216658D01*
Y3203329D01*
X11746626Y3190000D01*
X11733297D01*
X11746626D01*
X11759955Y3176671D01*
Y3163342D01*
X11746626Y3150013D01*
X11719968D01*
X11706639Y3163342D01*
X9780045Y3150013D02*
Y3229987D01*
X9820032D01*
X9833361Y3216658D01*
Y3190000D01*
X9820032Y3176671D01*
X9780045D01*
X9806703D02*
X9833361Y3150013D01*
X9860019D02*
X9886677D01*
X9873349D01*
Y3229987D01*
X9860019Y3216658D01*
X9979981Y3229987D02*
X9926665D01*
Y3190000D01*
X9953323Y3203329D01*
X9966652D01*
X9979981Y3190000D01*
Y3163342D01*
X9966652Y3150013D01*
X9939994D01*
X9926665Y3163342D01*
X10059955Y3150013D02*
X10006639D01*
X10059955Y3203329D01*
Y3216658D01*
X10046626Y3229987D01*
X10019968D01*
X10006639Y3216658D01*
X8140333Y3140057D02*
Y3220031D01*
X8180321D01*
X8193650Y3206702D01*
Y3180044D01*
X8180321Y3166715D01*
X8140333D01*
X8166992D02*
X8193650Y3140057D01*
X8220308D02*
X8246966D01*
X8233637D01*
Y3220031D01*
X8220308Y3206702D01*
X8340269Y3220031D02*
X8286953D01*
Y3180044D01*
X8313611Y3193373D01*
X8326940D01*
X8340269Y3180044D01*
Y3153386D01*
X8326940Y3140057D01*
X8300282D01*
X8286953Y3153386D01*
X8366927Y3140057D02*
X8393585D01*
X8380256D01*
Y3220031D01*
X8366927Y3206702D01*
X5133123Y3145912D02*
Y3225886D01*
X5173110D01*
X5186439Y3212557D01*
Y3185899D01*
X5173110Y3172570D01*
X5133123D01*
X5159781D02*
X5186439Y3145912D01*
X5213097D02*
X5239755D01*
X5226426D01*
Y3225886D01*
X5213097Y3212557D01*
X5333058Y3225886D02*
X5279742D01*
Y3185899D01*
X5306400Y3199228D01*
X5319730D01*
X5333058Y3185899D01*
Y3159241D01*
X5319730Y3145912D01*
X5293071D01*
X5279742Y3159241D01*
X5359716Y3212557D02*
X5373046Y3225886D01*
X5399704D01*
X5413033Y3212557D01*
Y3159241D01*
X5399704Y3145912D01*
X5373046D01*
X5359716Y3159241D01*
Y3212557D01*
X14233360Y3386658D02*
X14220033Y3399987D01*
X14193375D01*
X14180045Y3386658D01*
Y3333342D01*
X14193375Y3320013D01*
X14220033D01*
X14233360Y3333342D01*
X14260019Y3320013D02*
X14286678D01*
X14273349D01*
Y3399987D01*
X14260019Y3386658D01*
X14366652Y3320013D02*
Y3399987D01*
X14326665Y3360000D01*
X14379980D01*
X14406639Y3399987D02*
X14459955D01*
Y3386658D01*
X14406639Y3333342D01*
Y3320013D01*
X14233360Y3186658D02*
X14220033Y3199987D01*
X14193375D01*
X14180045Y3186658D01*
Y3133342D01*
X14193375Y3120013D01*
X14220033D01*
X14233360Y3133342D01*
X14260019Y3120013D02*
X14286678D01*
X14273349D01*
Y3199987D01*
X14260019Y3186658D01*
X14366652Y3120013D02*
Y3199987D01*
X14326665Y3160000D01*
X14379980D01*
X14459955Y3199987D02*
X14433298Y3186658D01*
X14406639Y3160000D01*
Y3133342D01*
X14419968Y3120013D01*
X14446626D01*
X14459955Y3133342D01*
Y3146671D01*
X14446626Y3160000D01*
X14406639D01*
X14231274Y2996345D02*
X14217946Y3009674D01*
X14191289D01*
X14177959Y2996345D01*
Y2943029D01*
X14191289Y2929700D01*
X14217946D01*
X14231274Y2943029D01*
X14257933Y2929700D02*
X14284592D01*
X14271263D01*
Y3009674D01*
X14257933Y2996345D01*
X14364566Y2929700D02*
Y3009674D01*
X14324579Y2969687D01*
X14377895D01*
X14457869Y3009674D02*
X14404553D01*
Y2969687D01*
X14431210Y2983016D01*
X14444540D01*
X14457869Y2969687D01*
Y2943029D01*
X14444540Y2929700D01*
X14417882D01*
X14404553Y2943029D01*
X12523361Y3386658D02*
X12510032Y3399987D01*
X12483374D01*
X12470045Y3386658D01*
Y3333342D01*
X12483374Y3320013D01*
X12510032D01*
X12523361Y3333342D01*
X12550019Y3320013D02*
X12576677D01*
X12563349D01*
Y3399987D01*
X12550019Y3386658D01*
X12656652Y3320013D02*
Y3399987D01*
X12616665Y3360000D01*
X12669981D01*
X12736626Y3320013D02*
Y3399987D01*
X12696639Y3360000D01*
X12749955D01*
X12513361Y3196658D02*
X12500032Y3209987D01*
X12473374D01*
X12460045Y3196658D01*
Y3143342D01*
X12473374Y3130013D01*
X12500032D01*
X12513361Y3143342D01*
X12540019Y3130013D02*
X12566677D01*
X12553349D01*
Y3209987D01*
X12540019Y3196658D01*
X12646652Y3130013D02*
Y3209987D01*
X12606665Y3170000D01*
X12659981D01*
X12686639Y3196658D02*
X12699968Y3209987D01*
X12726626D01*
X12739955Y3196658D01*
Y3183329D01*
X12726626Y3170000D01*
X12713297D01*
X12726626D01*
X12739955Y3156671D01*
Y3143342D01*
X12726626Y3130013D01*
X12699968D01*
X12686639Y3143342D01*
X12513361Y3006658D02*
X12500032Y3019987D01*
X12473374D01*
X12460045Y3006658D01*
Y2953342D01*
X12473374Y2940013D01*
X12500032D01*
X12513361Y2953342D01*
X12540019Y2940013D02*
X12566677D01*
X12553349D01*
Y3019987D01*
X12540019Y3006658D01*
X12646652Y2940013D02*
Y3019987D01*
X12606665Y2980000D01*
X12659981D01*
X12739955Y2940013D02*
X12686639D01*
X12739955Y2993329D01*
Y3006658D01*
X12726626Y3019987D01*
X12699968D01*
X12686639Y3006658D01*
X10846690Y3376658D02*
X10833361Y3389987D01*
X10806703D01*
X10793374Y3376658D01*
Y3323342D01*
X10806703Y3310013D01*
X10833361D01*
X10846690Y3323342D01*
X10873348Y3310013D02*
X10900006D01*
X10886677D01*
Y3389987D01*
X10873348Y3376658D01*
X10979981Y3310013D02*
Y3389987D01*
X10939994Y3350000D01*
X10993310D01*
X11019968Y3310013D02*
X11046626D01*
X11033297D01*
Y3389987D01*
X11019968Y3376658D01*
X10833361Y3196658D02*
X10820032Y3209987D01*
X10793374D01*
X10780045Y3196658D01*
Y3143342D01*
X10793374Y3130013D01*
X10820032D01*
X10833361Y3143342D01*
X10860019Y3130013D02*
X10886677D01*
X10873349D01*
Y3209987D01*
X10860019Y3196658D01*
X10966652Y3130013D02*
Y3209987D01*
X10926665Y3170000D01*
X10979981D01*
X11006639Y3196658D02*
X11019968Y3209987D01*
X11046626D01*
X11059955Y3196658D01*
Y3143342D01*
X11046626Y3130013D01*
X11019968D01*
X11006639Y3143342D01*
Y3196658D01*
X10833361Y2996658D02*
X10820032Y3009987D01*
X10793374D01*
X10780045Y2996658D01*
Y2943342D01*
X10793374Y2930013D01*
X10820032D01*
X10833361Y2943342D01*
X10860019Y2930013D02*
X10886677D01*
X10873349D01*
Y3009987D01*
X10860019Y2996658D01*
X10926665D02*
X10939994Y3009987D01*
X10966652D01*
X10979981Y2996658D01*
Y2983329D01*
X10966652Y2970000D01*
X10953323D01*
X10966652D01*
X10979981Y2956671D01*
Y2943342D01*
X10966652Y2930013D01*
X10939994D01*
X10926665Y2943342D01*
X11006639D02*
X11019968Y2930013D01*
X11046626D01*
X11059955Y2943342D01*
Y2996658D01*
X11046626Y3009987D01*
X11019968D01*
X11006639Y2996658D01*
Y2983329D01*
X11019968Y2970000D01*
X11059955D01*
X9143361Y3386658D02*
X9130033Y3399987D01*
X9103374D01*
X9090045Y3386658D01*
Y3333342D01*
X9103374Y3320013D01*
X9130033D01*
X9143361Y3333342D01*
X9170020Y3320013D02*
X9196678D01*
X9183349D01*
Y3399987D01*
X9170020Y3386658D01*
X9236665D02*
X9249994Y3399987D01*
X9276652D01*
X9289981Y3386658D01*
Y3373329D01*
X9276652Y3360000D01*
X9263323D01*
X9276652D01*
X9289981Y3346671D01*
Y3333342D01*
X9276652Y3320013D01*
X9249994D01*
X9236665Y3333342D01*
X9316639Y3386658D02*
X9329968Y3399987D01*
X9356626D01*
X9369955Y3386658D01*
Y3373329D01*
X9356626Y3360000D01*
X9369955Y3346671D01*
Y3333342D01*
X9356626Y3320013D01*
X9329968D01*
X9316639Y3333342D01*
Y3346671D01*
X9329968Y3360000D01*
X9316639Y3373329D01*
Y3386658D01*
X9329968Y3360000D02*
X9356626D01*
X9143361Y3186658D02*
X9130033Y3199987D01*
X9103374D01*
X9090045Y3186658D01*
Y3133342D01*
X9103374Y3120013D01*
X9130033D01*
X9143361Y3133342D01*
X9170020Y3120013D02*
X9196678D01*
X9183349D01*
Y3199987D01*
X9170020Y3186658D01*
X9236665D02*
X9249994Y3199987D01*
X9276652D01*
X9289981Y3186658D01*
Y3173329D01*
X9276652Y3160000D01*
X9263323D01*
X9276652D01*
X9289981Y3146671D01*
Y3133342D01*
X9276652Y3120013D01*
X9249994D01*
X9236665Y3133342D01*
X9316639Y3199987D02*
X9369955D01*
Y3186658D01*
X9316639Y3133342D01*
Y3120013D01*
X9153361Y3006658D02*
X9140033Y3019987D01*
X9113374D01*
X9100045Y3006658D01*
Y2953342D01*
X9113374Y2940013D01*
X9140033D01*
X9153361Y2953342D01*
X9180019Y2940013D02*
X9206678D01*
X9193349D01*
Y3019987D01*
X9180019Y3006658D01*
X9246665D02*
X9259994Y3019987D01*
X9286652D01*
X9299981Y3006658D01*
Y2993329D01*
X9286652Y2980000D01*
X9273323D01*
X9286652D01*
X9299981Y2966671D01*
Y2953342D01*
X9286652Y2940013D01*
X9259994D01*
X9246665Y2953342D01*
X9379955Y3019987D02*
X9353297Y3006658D01*
X9326639Y2980000D01*
Y2953342D01*
X9339968Y2940013D01*
X9366626D01*
X9379955Y2953342D01*
Y2966671D01*
X9366626Y2980000D01*
X9326639D01*
X7496494Y3393521D02*
X7483165Y3406850D01*
X7456507D01*
X7443178Y3393521D01*
Y3340205D01*
X7456507Y3326875D01*
X7483165D01*
X7496494Y3340205D01*
X7523152Y3326875D02*
X7549810D01*
X7536481D01*
Y3406850D01*
X7523152Y3393521D01*
X7589797D02*
X7603126Y3406850D01*
X7629784D01*
X7643113Y3393521D01*
Y3380192D01*
X7629784Y3366863D01*
X7616455D01*
X7629784D01*
X7643113Y3353534D01*
Y3340205D01*
X7629784Y3326875D01*
X7603126D01*
X7589797Y3340205D01*
X7723087Y3406850D02*
X7669771D01*
Y3366863D01*
X7696429Y3380192D01*
X7709759D01*
X7723087Y3366863D01*
Y3340205D01*
X7709759Y3326875D01*
X7683100D01*
X7669771Y3340205D01*
X7496494Y3197890D02*
X7483165Y3211219D01*
X7456507D01*
X7443178Y3197890D01*
Y3144574D01*
X7456507Y3131245D01*
X7483165D01*
X7496494Y3144574D01*
X7523152Y3131245D02*
X7549810D01*
X7536481D01*
Y3211219D01*
X7523152Y3197890D01*
X7589797D02*
X7603126Y3211219D01*
X7629784D01*
X7643113Y3197890D01*
Y3184561D01*
X7629784Y3171232D01*
X7616455D01*
X7629784D01*
X7643113Y3157903D01*
Y3144574D01*
X7629784Y3131245D01*
X7603126D01*
X7589797Y3144574D01*
X7709759Y3131245D02*
Y3211219D01*
X7669771Y3171232D01*
X7723087D01*
X7500019Y2998734D02*
X7486690Y3012063D01*
X7460032D01*
X7446703Y2998734D01*
Y2945418D01*
X7460032Y2932089D01*
X7486690D01*
X7500019Y2945418D01*
X7526677Y2932089D02*
X7553335D01*
X7540007D01*
Y3012063D01*
X7526677Y2998734D01*
X7593323D02*
X7606652Y3012063D01*
X7633310D01*
X7646639Y2998734D01*
Y2985405D01*
X7633310Y2972076D01*
X7619981D01*
X7633310D01*
X7646639Y2958747D01*
Y2945418D01*
X7633310Y2932089D01*
X7606652D01*
X7593323Y2945418D01*
X7673297Y2998734D02*
X7686626Y3012063D01*
X7713284D01*
X7726613Y2998734D01*
Y2985405D01*
X7713284Y2972076D01*
X7699955D01*
X7713284D01*
X7726613Y2958747D01*
Y2945418D01*
X7713284Y2932089D01*
X7686626D01*
X7673297Y2945418D01*
X4486154Y3391989D02*
X4472825Y3405318D01*
X4446167D01*
X4432838Y3391989D01*
Y3338673D01*
X4446167Y3325344D01*
X4472825D01*
X4486154Y3338673D01*
X4512812Y3325344D02*
X4539470D01*
X4526142D01*
Y3405318D01*
X4512812Y3391989D01*
X4579458D02*
X4592787Y3405318D01*
X4619445D01*
X4632774Y3391989D01*
Y3378660D01*
X4619445Y3365331D01*
X4606116D01*
X4619445D01*
X4632774Y3352002D01*
Y3338673D01*
X4619445Y3325344D01*
X4592787D01*
X4579458Y3338673D01*
X4712748Y3325344D02*
X4659432D01*
X4712748Y3378660D01*
Y3391989D01*
X4699419Y3405318D01*
X4672761D01*
X4659432Y3391989D01*
X4492007Y3195112D02*
X4478678Y3208441D01*
X4452020D01*
X4438691Y3195112D01*
Y3141796D01*
X4452020Y3128467D01*
X4478678D01*
X4492007Y3141796D01*
X4518665Y3128467D02*
X4545323D01*
X4531994D01*
Y3208441D01*
X4518665Y3195112D01*
X4585310D02*
X4598640Y3208441D01*
X4625298D01*
X4638626Y3195112D01*
Y3181783D01*
X4625298Y3168454D01*
X4611968D01*
X4625298D01*
X4638626Y3155125D01*
Y3141796D01*
X4625298Y3128467D01*
X4598640D01*
X4585310Y3141796D01*
X4665285Y3128467D02*
X4691943D01*
X4678614D01*
Y3208441D01*
X4665285Y3195112D01*
X4491138Y2995743D02*
X4477809Y3009071D01*
X4451151D01*
X4437822Y2995743D01*
Y2942426D01*
X4451151Y2929097D01*
X4477809D01*
X4491138Y2942426D01*
X4517796Y2929097D02*
X4544454D01*
X4531126D01*
Y3009071D01*
X4517796Y2995743D01*
X4584442D02*
X4597771Y3009071D01*
X4624429D01*
X4637758Y2995743D01*
Y2982413D01*
X4624429Y2969084D01*
X4611100D01*
X4624429D01*
X4637758Y2955755D01*
Y2942426D01*
X4624429Y2929097D01*
X4597771D01*
X4584442Y2942426D01*
X4664416Y2995743D02*
X4677745Y3009071D01*
X4704403D01*
X4717732Y2995743D01*
Y2942426D01*
X4704403Y2929097D01*
X4677745D01*
X4664416Y2942426D01*
Y2995743D01*
X5971987Y3393519D02*
X5958658Y3406848D01*
X5932000D01*
X5918671Y3393519D01*
Y3340203D01*
X5932000Y3326873D01*
X5958658D01*
X5971987Y3340203D01*
X5998645Y3326873D02*
X6025303D01*
X6011974D01*
Y3406848D01*
X5998645Y3393519D01*
X6118606Y3326873D02*
X6065290D01*
X6118606Y3380190D01*
Y3393519D01*
X6105277Y3406848D01*
X6078619D01*
X6065290Y3393519D01*
X6145264Y3340203D02*
X6158593Y3326873D01*
X6185252D01*
X6198580Y3340203D01*
Y3393519D01*
X6185252Y3406848D01*
X6158593D01*
X6145264Y3393519D01*
Y3380190D01*
X6158593Y3366861D01*
X6198580D01*
X5973750Y3201413D02*
X5960421Y3214742D01*
X5933763D01*
X5920433Y3201413D01*
Y3148097D01*
X5933763Y3134768D01*
X5960421D01*
X5973750Y3148097D01*
X6000408Y3134768D02*
X6027066D01*
X6013737D01*
Y3214742D01*
X6000408Y3201413D01*
X6120369Y3134768D02*
X6067053D01*
X6120369Y3188084D01*
Y3201413D01*
X6107040Y3214742D01*
X6080382D01*
X6067053Y3201413D01*
X6147027D02*
X6160356Y3214742D01*
X6187014D01*
X6200343Y3201413D01*
Y3188084D01*
X6187014Y3174755D01*
X6200343Y3161426D01*
Y3148097D01*
X6187014Y3134768D01*
X6160356D01*
X6147027Y3148097D01*
Y3161426D01*
X6160356Y3174755D01*
X6147027Y3188084D01*
Y3201413D01*
X6160356Y3174755D02*
X6187014D01*
X5980799Y3000495D02*
X5967470Y3013824D01*
X5940812D01*
X5927482Y3000495D01*
Y2947179D01*
X5940812Y2933850D01*
X5967470D01*
X5980799Y2947179D01*
X6007457Y2933850D02*
X6034115D01*
X6020786D01*
Y3013824D01*
X6007457Y3000495D01*
X6127418Y2933850D02*
X6074102D01*
X6127418Y2987166D01*
Y3000495D01*
X6114089Y3013824D01*
X6087431D01*
X6074102Y3000495D01*
X6154076Y3013824D02*
X6207392D01*
Y3000495D01*
X6154076Y2947179D01*
Y2933850D01*
X6634220Y3134768D02*
Y3214742D01*
X6674207D01*
X6687536Y3201413D01*
Y3174755D01*
X6674207Y3161426D01*
X6634220D01*
X6660878D02*
X6687536Y3134768D01*
X6714194D02*
X6740852D01*
X6727524D01*
Y3214742D01*
X6714194Y3201413D01*
X6820827Y3134768D02*
Y3214742D01*
X6780840Y3174755D01*
X6834156D01*
X6860814Y3148097D02*
X6874143Y3134768D01*
X6900801D01*
X6914130Y3148097D01*
Y3201413D01*
X6900801Y3214742D01*
X6874143D01*
X6860814Y3201413D01*
Y3188084D01*
X6874143Y3174755D01*
X6914130D01*
X3642837Y3158372D02*
Y3238346D01*
X3682824D01*
X3696153Y3225017D01*
Y3198359D01*
X3682824Y3185030D01*
X3642837D01*
X3669495D02*
X3696153Y3158372D01*
X3722811D02*
X3749470D01*
X3736141D01*
Y3238346D01*
X3722811Y3225017D01*
X3829444Y3158372D02*
Y3238346D01*
X3789457Y3198359D01*
X3842773D01*
X3869431Y3225017D02*
X3882760Y3238346D01*
X3909418D01*
X3922747Y3225017D01*
Y3211688D01*
X3909418Y3198359D01*
X3922747Y3185030D01*
Y3171701D01*
X3909418Y3158372D01*
X3882760D01*
X3869431Y3171701D01*
Y3185030D01*
X3882760Y3198359D01*
X3869431Y3211688D01*
Y3225017D01*
X3882760Y3198359D02*
X3909418D01*
X2990884Y3387005D02*
X2977555Y3400334D01*
X2950897D01*
X2937568Y3387005D01*
Y3333689D01*
X2950897Y3320360D01*
X2977555D01*
X2990884Y3333689D01*
X3017542Y3320360D02*
X3044200D01*
X3030872D01*
Y3400334D01*
X3017542Y3387005D01*
X3137504Y3320360D02*
X3084188D01*
X3137504Y3373676D01*
Y3387005D01*
X3124175Y3400334D01*
X3097517D01*
X3084188Y3387005D01*
X3217478Y3400334D02*
X3190820Y3387005D01*
X3164162Y3360347D01*
Y3333689D01*
X3177491Y3320360D01*
X3204149D01*
X3217478Y3333689D01*
Y3347018D01*
X3204149Y3360347D01*
X3164162D01*
X2993361Y3196658D02*
X2980032Y3209987D01*
X2953374D01*
X2940045Y3196658D01*
Y3143342D01*
X2953374Y3130013D01*
X2980032D01*
X2993361Y3143342D01*
X3020019Y3130013D02*
X3046677D01*
X3033349D01*
Y3209987D01*
X3020019Y3196658D01*
X3139981Y3130013D02*
X3086665D01*
X3139981Y3183329D01*
Y3196658D01*
X3126652Y3209987D01*
X3099994D01*
X3086665Y3196658D01*
X3219955Y3209987D02*
X3166639D01*
Y3170000D01*
X3193297Y3183329D01*
X3206626D01*
X3219955Y3170000D01*
Y3143342D01*
X3206626Y3130013D01*
X3179968D01*
X3166639Y3143342D01*
X3008329Y3000727D02*
X2995000Y3014056D01*
X2968342D01*
X2955013Y3000727D01*
Y2947411D01*
X2968342Y2934082D01*
X2995000D01*
X3008329Y2947411D01*
X3034987Y2934082D02*
X3061645D01*
X3048316D01*
Y3014056D01*
X3034987Y3000727D01*
X3154948Y2934082D02*
X3101632D01*
X3154948Y2987398D01*
Y3000727D01*
X3141620Y3014056D01*
X3114962D01*
X3101632Y3000727D01*
X3221594Y2934082D02*
Y3014056D01*
X3181607Y2974069D01*
X3234923D01*
X5754847Y6642711D02*
Y6722686D01*
X5794834D01*
X5808163Y6709357D01*
Y6682699D01*
X5794834Y6669369D01*
X5754847D01*
X5781505D02*
X5808163Y6642711D01*
X5888138Y6722686D02*
X5834821D01*
Y6682699D01*
X5861480Y6696028D01*
X5874809D01*
X5888138Y6682699D01*
Y6656041D01*
X5874809Y6642711D01*
X5848151D01*
X5834821Y6656041D01*
X5914796Y6642711D02*
X5941454D01*
X5928125D01*
Y6722686D01*
X5914796Y6709357D01*
X6021428Y6642711D02*
Y6722686D01*
X5981441Y6682699D01*
X6034757D01*
X12556718Y5555016D02*
Y5654984D01*
X12606702D01*
X12623363Y5638322D01*
Y5605000D01*
X12606702Y5588339D01*
X12556718D01*
X12590040D02*
X12623363Y5555016D01*
X12706670D02*
Y5654984D01*
X12656686Y5605000D01*
X12723331D01*
X12756653Y5555016D02*
X12789976D01*
X12773315D01*
Y5654984D01*
X12756653Y5638322D01*
X12839960Y5555016D02*
X12873282D01*
X12856621D01*
Y5654984D01*
X12839960Y5638322D01*
X12435056Y6020016D02*
Y6119984D01*
X12485040D01*
X12501701Y6103323D01*
Y6070000D01*
X12485040Y6053339D01*
X12435056D01*
X12468379D02*
X12501701Y6020016D01*
X12585008D02*
Y6119984D01*
X12535024Y6070000D01*
X12601669D01*
X12634992Y6020016D02*
X12668315D01*
X12651653D01*
Y6119984D01*
X12634992Y6103323D01*
X12718298D02*
X12734960Y6119984D01*
X12768282D01*
X12784943Y6103323D01*
Y6036678D01*
X12768282Y6020016D01*
X12734960D01*
X12718298Y6036678D01*
Y6103323D01*
X14730016Y7383371D02*
Y7350048D01*
Y7366710D01*
X14813322D01*
X14829984Y7350048D01*
Y7333387D01*
X14813322Y7316726D01*
X14829984Y7466677D02*
X14730016D01*
X14779999Y7416694D01*
Y7483339D01*
X14746677Y7516661D02*
X14730016Y7533323D01*
Y7566645D01*
X14746677Y7583306D01*
X14813322D01*
X14829984Y7566645D01*
Y7533323D01*
X14813322Y7516661D01*
X14746677D01*
Y7616629D02*
X14730016Y7633291D01*
Y7666613D01*
X14746677Y7683274D01*
X14813322D01*
X14829984Y7666613D01*
Y7633291D01*
X14813322Y7616629D01*
X14746677D01*
X9016677Y7695048D02*
X9000016Y7678387D01*
Y7645064D01*
X9016677Y7628403D01*
X9033339D01*
X9050000Y7645064D01*
Y7678387D01*
X9066661Y7695048D01*
X9083322D01*
X9099984Y7678387D01*
Y7645064D01*
X9083322Y7628403D01*
X9000016Y7728371D02*
X9099984D01*
X9066661Y7761693D01*
X9099984Y7795016D01*
X9000016D01*
Y7894984D02*
Y7828339D01*
X9050000D01*
X9033339Y7861661D01*
Y7878323D01*
X9050000Y7894984D01*
X9083322D01*
X9099984Y7878323D01*
Y7845000D01*
X9083322Y7828339D01*
X9016677Y7928306D02*
X9000016Y7944968D01*
Y7978290D01*
X9016677Y7994951D01*
X9083322D01*
X9099984Y7978290D01*
Y7944968D01*
X9083322Y7928306D01*
X9016677D01*
X9099984Y8028274D02*
Y8061597D01*
Y8044936D01*
X9000016D01*
X9016677Y8028274D01*
X4075056Y7355016D02*
Y7454984D01*
X4125040D01*
X4141701Y7438322D01*
Y7405000D01*
X4125040Y7388339D01*
X4075056D01*
X4108379D02*
X4141701Y7355016D01*
X4241669Y7454984D02*
X4175024D01*
Y7405000D01*
X4208347Y7421661D01*
X4225008D01*
X4241669Y7405000D01*
Y7371677D01*
X4225008Y7355016D01*
X4191686D01*
X4175024Y7371677D01*
X4274992Y7355016D02*
X4308314D01*
X4291653D01*
Y7454984D01*
X4274992Y7438322D01*
X4358298D02*
X4374960Y7454984D01*
X4408282D01*
X4424943Y7438322D01*
Y7421661D01*
X4408282Y7405000D01*
X4391621D01*
X4408282D01*
X4424943Y7388339D01*
Y7371677D01*
X4408282Y7355016D01*
X4374960D01*
X4358298Y7371677D01*
X5555056Y7370016D02*
Y7469984D01*
X5605040D01*
X5621701Y7453322D01*
Y7420000D01*
X5605040Y7403339D01*
X5555056D01*
X5588379D02*
X5621701Y7370016D01*
X5721669Y7469984D02*
X5655024D01*
Y7420000D01*
X5688347Y7436661D01*
X5705008D01*
X5721669Y7420000D01*
Y7386677D01*
X5705008Y7370016D01*
X5671686D01*
X5655024Y7386677D01*
X5754992Y7370016D02*
X5788315D01*
X5771653D01*
Y7469984D01*
X5754992Y7453322D01*
X5904943Y7370016D02*
X5838298D01*
X5904943Y7436661D01*
Y7453322D01*
X5888282Y7469984D01*
X5854960D01*
X5838298Y7453322D01*
X5558154Y7501532D02*
Y7601499D01*
X5608138D01*
X5624800Y7584838D01*
Y7551516D01*
X5608138Y7534854D01*
X5558154D01*
X5591477D02*
X5624800Y7501532D01*
X5724767Y7601499D02*
X5658122D01*
Y7551516D01*
X5691445Y7568177D01*
X5708106D01*
X5724767Y7551516D01*
Y7518193D01*
X5708106Y7501532D01*
X5674784D01*
X5658122Y7518193D01*
X5758090Y7501532D02*
X5791413D01*
X5774751D01*
Y7601499D01*
X5758090Y7584838D01*
X5841396Y7501532D02*
X5874719D01*
X5858058D01*
Y7601499D01*
X5841396Y7584838D01*
X5556996Y7637412D02*
Y7737380D01*
X5606980D01*
X5623641Y7720719D01*
Y7687396D01*
X5606980Y7670735D01*
X5556996D01*
X5590319D02*
X5623641Y7637412D01*
X5723609Y7737380D02*
X5656964D01*
Y7687396D01*
X5690287Y7704057D01*
X5706948D01*
X5723609Y7687396D01*
Y7654074D01*
X5706948Y7637412D01*
X5673625D01*
X5656964Y7654074D01*
X5756932Y7637412D02*
X5790254D01*
X5773593D01*
Y7737380D01*
X5756932Y7720719D01*
X5840238D02*
X5856900Y7737380D01*
X5890222D01*
X5906883Y7720719D01*
Y7654074D01*
X5890222Y7637412D01*
X5856900D01*
X5840238Y7654074D01*
Y7720719D01*
X9056726Y8495016D02*
Y8594984D01*
X9106709D01*
X9123371Y8578322D01*
Y8545000D01*
X9106709Y8528339D01*
X9056726D01*
X9090048D02*
X9123371Y8495016D01*
X9223338Y8594984D02*
X9156693D01*
Y8545000D01*
X9190016Y8561661D01*
X9206677D01*
X9223338Y8545000D01*
Y8511677D01*
X9206677Y8495016D01*
X9173355D01*
X9156693Y8511677D01*
X9256661Y8578322D02*
X9273323Y8594984D01*
X9306645D01*
X9323306Y8578322D01*
Y8511677D01*
X9306645Y8495016D01*
X9273323D01*
X9256661Y8511677D01*
Y8578322D01*
X9356629Y8511677D02*
X9373290Y8495016D01*
X9406613D01*
X9423274Y8511677D01*
Y8578322D01*
X9406613Y8594984D01*
X9373290D01*
X9356629Y8578322D01*
Y8561661D01*
X9373290Y8545000D01*
X9423274D01*
X4406484Y6514225D02*
X4306517D01*
Y6564209D01*
X4323178Y6580870D01*
X4356501D01*
X4373162Y6564209D01*
Y6514225D01*
X4306517Y6680838D02*
Y6614193D01*
X4356501D01*
X4339839Y6647515D01*
Y6664176D01*
X4356501Y6680838D01*
X4389823D01*
X4406484Y6664176D01*
Y6630854D01*
X4389823Y6614193D01*
X4323178Y6714160D02*
X4306517Y6730822D01*
Y6764144D01*
X4323178Y6780805D01*
X4389823D01*
X4406484Y6764144D01*
Y6730822D01*
X4389823Y6714160D01*
X4323178D01*
Y6814128D02*
X4306517Y6830789D01*
Y6864112D01*
X4323178Y6880773D01*
X4389823D01*
X4406484Y6864112D01*
Y6830789D01*
X4389823Y6814128D01*
X4323178D01*
X5335599Y7364125D02*
X5435567D01*
Y7414109D01*
X5418906Y7430770D01*
X5352261D01*
X5335599Y7414109D01*
Y7364125D01*
Y7530738D02*
Y7464093D01*
X5385583D01*
X5368922Y7497416D01*
Y7514077D01*
X5385583Y7530738D01*
X5418906D01*
X5435567Y7514077D01*
Y7480754D01*
X5418906Y7464093D01*
X5352261Y7564061D02*
X5335599Y7580722D01*
Y7614045D01*
X5352261Y7630706D01*
X5418906D01*
X5435567Y7614045D01*
Y7580722D01*
X5418906Y7564061D01*
X5352261D01*
X5435567Y7730674D02*
Y7664029D01*
X5368922Y7730674D01*
X5352261D01*
X5335599Y7714013D01*
Y7680690D01*
X5352261Y7664029D01*
X5455016Y6343387D02*
X5554984D01*
Y6393371D01*
X5538322Y6410032D01*
X5471677D01*
X5455016Y6393371D01*
Y6343387D01*
Y6510000D02*
Y6443355D01*
X5505000D01*
X5488339Y6476677D01*
Y6493339D01*
X5505000Y6510000D01*
X5538322D01*
X5554984Y6493339D01*
Y6460016D01*
X5538322Y6443355D01*
X5471677Y6543322D02*
X5455016Y6559984D01*
Y6593306D01*
X5471677Y6609967D01*
X5538322D01*
X5554984Y6593306D01*
Y6559984D01*
X5538322Y6543322D01*
X5471677D01*
X5554984Y6643290D02*
Y6676613D01*
Y6659952D01*
X5455016D01*
X5471677Y6643290D01*
X5333754Y6938970D02*
X5433722D01*
Y6988954D01*
X5417061Y7005615D01*
X5350416D01*
X5333754Y6988954D01*
Y6938970D01*
Y7105583D02*
Y7038938D01*
X5383738D01*
X5367077Y7072260D01*
Y7088922D01*
X5383738Y7105583D01*
X5417061D01*
X5433722Y7088922D01*
Y7055599D01*
X5417061Y7038938D01*
X5350416Y7138905D02*
X5333754Y7155567D01*
Y7188889D01*
X5350416Y7205550D01*
X5417061D01*
X5433722Y7188889D01*
Y7155567D01*
X5417061Y7138905D01*
X5350416D01*
Y7238873D02*
X5333754Y7255535D01*
Y7288857D01*
X5350416Y7305518D01*
X5417061D01*
X5433722Y7288857D01*
Y7255535D01*
X5417061Y7238873D01*
X5350416D01*
X11706677Y7511701D02*
X11690016Y7495040D01*
Y7461718D01*
X11706677Y7445056D01*
X11773322D01*
X11789984Y7461718D01*
Y7495040D01*
X11773322Y7511701D01*
X11789984Y7611669D02*
Y7545024D01*
X11723339Y7611669D01*
X11706677D01*
X11690016Y7595008D01*
Y7561685D01*
X11706677Y7545024D01*
X11789984Y7644992D02*
Y7678314D01*
Y7661653D01*
X11690016D01*
X11706677Y7644992D01*
Y7728298D02*
X11690016Y7744960D01*
Y7778282D01*
X11706677Y7794943D01*
X11723339D01*
X11740000Y7778282D01*
Y7761621D01*
Y7778282D01*
X11756661Y7794943D01*
X11773322D01*
X11789984Y7778282D01*
Y7744960D01*
X11773322Y7728298D01*
X13091727Y7099984D02*
Y7016678D01*
X13108388Y7000016D01*
X13141710D01*
X13158371Y7016678D01*
Y7099984D01*
X13241678Y7000016D02*
Y7099984D01*
X13191695Y7050000D01*
X13258339D01*
X13291663Y7083323D02*
X13308324Y7099984D01*
X13341644D01*
X13358307Y7083323D01*
Y7016678D01*
X13341644Y7000016D01*
X13308324D01*
X13291663Y7016678D01*
Y7083323D01*
X13391629Y7016678D02*
X13408292Y7000016D01*
X13441612D01*
X13458273Y7016678D01*
Y7083323D01*
X13441612Y7099984D01*
X13408292D01*
X13391629Y7083323D01*
Y7066661D01*
X13408292Y7050000D01*
X13458273D01*
X8901726Y6550016D02*
Y6649984D01*
X8951710D01*
X8968371Y6633323D01*
Y6600000D01*
X8951710Y6583339D01*
X8901726D01*
X8935048D02*
X8968371Y6550016D01*
X9068339D02*
X9001694D01*
X9068339Y6616661D01*
Y6633323D01*
X9051678Y6649984D01*
X9018355D01*
X9001694Y6633323D01*
X9168307Y6550016D02*
X9101662D01*
X9168307Y6616661D01*
Y6633323D01*
X9151645Y6649984D01*
X9118323D01*
X9101662Y6633323D01*
X9201629D02*
X9218291Y6649984D01*
X9251613D01*
X9268274Y6633323D01*
Y6616661D01*
X9251613Y6600000D01*
X9234952D01*
X9251613D01*
X9268274Y6583339D01*
Y6566677D01*
X9251613Y6550016D01*
X9218291D01*
X9201629Y6566677D01*
X9479984Y6963387D02*
X9380016D01*
Y7013371D01*
X9396677Y7030032D01*
X9430000D01*
X9446661Y7013371D01*
Y6963387D01*
Y6996709D02*
X9479984Y7030032D01*
Y7130000D02*
Y7063355D01*
X9413339Y7130000D01*
X9396677D01*
X9380016Y7113339D01*
Y7080016D01*
X9396677Y7063355D01*
X9479984Y7229968D02*
Y7163322D01*
X9413339Y7229968D01*
X9396677D01*
X9380016Y7213306D01*
Y7179984D01*
X9396677Y7163322D01*
X9479984Y7263290D02*
Y7296613D01*
Y7279952D01*
X9380016D01*
X9396677Y7263290D01*
X8941726Y6685016D02*
Y6784984D01*
X8991710D01*
X9008371Y6768323D01*
Y6735000D01*
X8991710Y6718339D01*
X8941726D01*
X8975048D02*
X9008371Y6685016D01*
X9108339D02*
X9041694D01*
X9108339Y6751661D01*
Y6768323D01*
X9091678Y6784984D01*
X9058355D01*
X9041694Y6768323D01*
X9208306Y6685016D02*
X9141661D01*
X9208306Y6751661D01*
Y6768323D01*
X9191645Y6784984D01*
X9158323D01*
X9141661Y6768323D01*
X9308274Y6685016D02*
X9241629D01*
X9308274Y6751661D01*
Y6768323D01*
X9291613Y6784984D01*
X9258291D01*
X9241629Y6768323D01*
X9116726Y6015016D02*
Y6114984D01*
X9166710D01*
X9183371Y6098323D01*
Y6065000D01*
X9166710Y6048339D01*
X9116726D01*
X9150048D02*
X9183371Y6015016D01*
X9283339D02*
X9216694D01*
X9283339Y6081661D01*
Y6098323D01*
X9266677Y6114984D01*
X9233355D01*
X9216694Y6098323D01*
X9316661D02*
X9333323Y6114984D01*
X9366645D01*
X9383306Y6098323D01*
Y6031678D01*
X9366645Y6015016D01*
X9333323D01*
X9316661Y6031678D01*
Y6098323D01*
X9416629D02*
X9433291Y6114984D01*
X9466613D01*
X9483274Y6098323D01*
Y6081661D01*
X9466613Y6065000D01*
X9483274Y6048339D01*
Y6031678D01*
X9466613Y6015016D01*
X9433291D01*
X9416629Y6031678D01*
Y6048339D01*
X9433291Y6065000D01*
X9416629Y6081661D01*
Y6098323D01*
X9433291Y6065000D02*
X9466613D01*
X9336697Y9076926D02*
Y9176894D01*
X9386680D01*
X9403342Y9160232D01*
Y9126910D01*
X9386680Y9110248D01*
X9336697D01*
X9370019D02*
X9403342Y9076926D01*
X9503309D02*
X9436664D01*
X9503309Y9143571D01*
Y9160232D01*
X9486648Y9176894D01*
X9453326D01*
X9436664Y9160232D01*
X9603277Y9076926D02*
X9536632D01*
X9603277Y9143571D01*
Y9160232D01*
X9586616Y9176894D01*
X9553294D01*
X9536632Y9160232D01*
X9703245Y9176894D02*
X9636600D01*
Y9126910D01*
X9669922Y9143571D01*
X9686584D01*
X9703245Y9126910D01*
Y9093587D01*
X9686584Y9076926D01*
X9653261D01*
X9636600Y9093587D01*
X14036726Y6050016D02*
Y6149984D01*
X14086710D01*
X14103371Y6133323D01*
Y6100000D01*
X14086710Y6083339D01*
X14036726D01*
X14070049D02*
X14103371Y6050016D01*
X14186678D02*
Y6149984D01*
X14136694Y6100000D01*
X14203339D01*
X14236661Y6133323D02*
X14253323Y6149984D01*
X14286646D01*
X14303307Y6133323D01*
Y6066677D01*
X14286646Y6050016D01*
X14253323D01*
X14236661Y6066677D01*
Y6133323D01*
X14336629Y6149984D02*
X14403275D01*
Y6133323D01*
X14336629Y6066677D01*
Y6050016D01*
X9642522Y7818000D02*
Y7917968D01*
X9692506D01*
X9709167Y7901307D01*
Y7867984D01*
X9692506Y7851323D01*
X9642522D01*
X9675844D02*
X9709167Y7818000D01*
X9809135D02*
X9742490D01*
X9809135Y7884645D01*
Y7901307D01*
X9792473Y7917968D01*
X9759151D01*
X9742490Y7901307D01*
X9909102Y7818000D02*
X9842457D01*
X9909102Y7884645D01*
Y7901307D01*
X9892441Y7917968D01*
X9859119D01*
X9842457Y7901307D01*
X9942425D02*
X9959087Y7917968D01*
X9992409D01*
X10009070Y7901307D01*
Y7834662D01*
X9992409Y7818000D01*
X9959087D01*
X9942425Y7834662D01*
Y7901307D01*
X9644259Y7957685D02*
Y8057653D01*
X9694242D01*
X9710904Y8040992D01*
Y8007669D01*
X9694242Y7991008D01*
X9644259D01*
X9677581D02*
X9710904Y7957685D01*
X9810871D02*
X9744226D01*
X9810871Y8024330D01*
Y8040992D01*
X9794210Y8057653D01*
X9760888D01*
X9744226Y8040992D01*
X9844194Y7957685D02*
X9877517D01*
X9860856D01*
Y8057653D01*
X9844194Y8040992D01*
X9927501Y7974347D02*
X9944162Y7957685D01*
X9977484D01*
X9994146Y7974347D01*
Y8040992D01*
X9977484Y8057653D01*
X9944162D01*
X9927501Y8040992D01*
Y8024330D01*
X9944162Y8007669D01*
X9994146D01*
X10469983Y6295056D02*
X10370016D01*
Y6345040D01*
X10386677Y6361702D01*
X10419999D01*
X10436661Y6345040D01*
Y6295056D01*
Y6328379D02*
X10469983Y6361702D01*
Y6461669D02*
Y6395024D01*
X10403338Y6461669D01*
X10386677D01*
X10370016Y6445008D01*
Y6411686D01*
X10386677Y6395024D01*
X10469983Y6494992D02*
Y6528315D01*
Y6511653D01*
X10370016D01*
X10386677Y6494992D01*
Y6578299D02*
X10370016Y6594960D01*
Y6628282D01*
X10386677Y6644944D01*
X10403338D01*
X10419999Y6628282D01*
Y6611621D01*
Y6628282D01*
X10436661Y6644944D01*
X10453322D01*
X10469983Y6628282D01*
Y6594960D01*
X10453322Y6578299D01*
X10629984Y6830056D02*
X10530016D01*
Y6880040D01*
X10546677Y6896701D01*
X10580000D01*
X10596661Y6880040D01*
Y6830056D01*
Y6863379D02*
X10629984Y6896701D01*
Y6996669D02*
Y6930024D01*
X10563339Y6996669D01*
X10546677D01*
X10530016Y6980008D01*
Y6946686D01*
X10546677Y6930024D01*
X10629984Y7029992D02*
Y7063315D01*
Y7046653D01*
X10530016D01*
X10546677Y7029992D01*
X10629984Y7179943D02*
Y7113298D01*
X10563339Y7179943D01*
X10546677D01*
X10530016Y7163282D01*
Y7129960D01*
X10546677Y7113298D01*
X10531718Y6315016D02*
Y6414984D01*
X10581702D01*
X10598363Y6398322D01*
Y6365000D01*
X10581702Y6348339D01*
X10531718D01*
X10565040D02*
X10598363Y6315016D01*
X10698331D02*
X10631686D01*
X10698331Y6381661D01*
Y6398322D01*
X10681670Y6414984D01*
X10648347D01*
X10631686Y6398322D01*
X10731653Y6315016D02*
X10764976D01*
X10748315D01*
Y6414984D01*
X10731653Y6398322D01*
X10814960Y6315016D02*
X10848282D01*
X10831621D01*
Y6414984D01*
X10814960Y6398322D01*
X10625056Y6580016D02*
Y6679984D01*
X10675040D01*
X10691702Y6663322D01*
Y6630000D01*
X10675040Y6613339D01*
X10625056D01*
X10658379D02*
X10691702Y6580016D01*
X10791669D02*
X10725024D01*
X10791669Y6646661D01*
Y6663322D01*
X10775008Y6679984D01*
X10741686D01*
X10725024Y6663322D01*
X10824992Y6580016D02*
X10858315D01*
X10841653D01*
Y6679984D01*
X10824992Y6663322D01*
X10908298D02*
X10924960Y6679984D01*
X10958282D01*
X10974944Y6663322D01*
Y6596677D01*
X10958282Y6580016D01*
X10924960D01*
X10908298Y6596677D01*
Y6663322D01*
X9644984Y5726726D02*
X9545016D01*
Y5776710D01*
X9561677Y5793371D01*
X9595000D01*
X9611661Y5776710D01*
Y5726726D01*
Y5760049D02*
X9644984Y5793371D01*
Y5893339D02*
Y5826694D01*
X9578339Y5893339D01*
X9561677D01*
X9545016Y5876678D01*
Y5843355D01*
X9561677Y5826694D01*
Y5926662D02*
X9545016Y5943323D01*
Y5976646D01*
X9561677Y5993307D01*
X9628322D01*
X9644984Y5976646D01*
Y5943323D01*
X9628322Y5926662D01*
X9561677D01*
X9628322Y6026630D02*
X9644984Y6043291D01*
Y6076613D01*
X9628322Y6093275D01*
X9561677D01*
X9545016Y6076613D01*
Y6043291D01*
X9561677Y6026630D01*
X9578339D01*
X9595000Y6043291D01*
Y6093275D01*
X9001726Y6415016D02*
Y6514984D01*
X9051710D01*
X9068371Y6498323D01*
Y6465000D01*
X9051710Y6448339D01*
X9001726D01*
X9035048D02*
X9068371Y6415016D01*
X9168339D02*
X9101694D01*
X9168339Y6481661D01*
Y6498323D01*
X9151677Y6514984D01*
X9118355D01*
X9101694Y6498323D01*
X9201661D02*
X9218323Y6514984D01*
X9251645D01*
X9268306Y6498323D01*
Y6431678D01*
X9251645Y6415016D01*
X9218323D01*
X9201661Y6431678D01*
Y6498323D01*
X9301629Y6514984D02*
X9368274D01*
Y6498323D01*
X9301629Y6431678D01*
Y6415016D01*
X8941726Y6820016D02*
Y6919984D01*
X8991710D01*
X9008371Y6903322D01*
Y6870000D01*
X8991710Y6853339D01*
X8941726D01*
X8975048D02*
X9008371Y6820016D01*
X9108339D02*
X9041694D01*
X9108339Y6886661D01*
Y6903322D01*
X9091678Y6919984D01*
X9058355D01*
X9041694Y6903322D01*
X9141661D02*
X9158323Y6919984D01*
X9191645D01*
X9208306Y6903322D01*
Y6836677D01*
X9191645Y6820016D01*
X9158323D01*
X9141661Y6836677D01*
Y6903322D01*
X9308274Y6919984D02*
X9274952Y6903322D01*
X9241629Y6870000D01*
Y6836677D01*
X9258291Y6820016D01*
X9291613D01*
X9308274Y6836677D01*
Y6853339D01*
X9291613Y6870000D01*
X9241629D01*
X8941726Y6955016D02*
Y7054984D01*
X8991710D01*
X9008371Y7038322D01*
Y7005000D01*
X8991710Y6988339D01*
X8941726D01*
X8975048D02*
X9008371Y6955016D01*
X9108339D02*
X9041694D01*
X9108339Y7021661D01*
Y7038322D01*
X9091678Y7054984D01*
X9058355D01*
X9041694Y7038322D01*
X9141661D02*
X9158323Y7054984D01*
X9191645D01*
X9208306Y7038322D01*
Y6971677D01*
X9191645Y6955016D01*
X9158323D01*
X9141661Y6971677D01*
Y7038322D01*
X9308274Y7054984D02*
X9241629D01*
Y7005000D01*
X9274952Y7021661D01*
X9291613D01*
X9308274Y7005000D01*
Y6971677D01*
X9291613Y6955016D01*
X9258291D01*
X9241629Y6971677D01*
X9696726Y5890016D02*
Y5989984D01*
X9746710D01*
X9763371Y5973323D01*
Y5940000D01*
X9746710Y5923339D01*
X9696726D01*
X9730048D02*
X9763371Y5890016D01*
X9863339D02*
X9796694D01*
X9863339Y5956661D01*
Y5973323D01*
X9846678Y5989984D01*
X9813355D01*
X9796694Y5973323D01*
X9896661D02*
X9913323Y5989984D01*
X9946645D01*
X9963306Y5973323D01*
Y5906678D01*
X9946645Y5890016D01*
X9913323D01*
X9896661Y5906678D01*
Y5973323D01*
X10046613Y5890016D02*
Y5989984D01*
X9996629Y5940000D01*
X10063274D01*
X9051726Y6280016D02*
Y6379984D01*
X9101710D01*
X9118371Y6363323D01*
Y6330000D01*
X9101710Y6313339D01*
X9051726D01*
X9085048D02*
X9118371Y6280016D01*
X9218339D02*
X9151694D01*
X9218339Y6346661D01*
Y6363323D01*
X9201678Y6379984D01*
X9168355D01*
X9151694Y6363323D01*
X9251661D02*
X9268323Y6379984D01*
X9301645D01*
X9318306Y6363323D01*
Y6296678D01*
X9301645Y6280016D01*
X9268323D01*
X9251661Y6296678D01*
Y6363323D01*
X9418274Y6280016D02*
X9351629D01*
X9418274Y6346661D01*
Y6363323D01*
X9401613Y6379984D01*
X9368291D01*
X9351629Y6363323D01*
X9103387Y6145016D02*
Y6244984D01*
X9153371D01*
X9170032Y6228323D01*
Y6195000D01*
X9153371Y6178339D01*
X9103387D01*
X9136710D02*
X9170032Y6145016D01*
X9270000D02*
X9203355D01*
X9270000Y6211661D01*
Y6228323D01*
X9253339Y6244984D01*
X9220016D01*
X9203355Y6228323D01*
X9303323D02*
X9319984Y6244984D01*
X9353307D01*
X9369968Y6228323D01*
Y6161678D01*
X9353307Y6145016D01*
X9319984D01*
X9303323Y6161678D01*
Y6228323D01*
X9403291Y6145016D02*
X9436613D01*
X9419952D01*
Y6244984D01*
X9403291Y6228323D01*
X12659360Y7130688D02*
Y7030720D01*
X12726005D01*
X12809312D02*
Y7130688D01*
X12759328Y7080704D01*
X12825974D01*
X12859296Y7114026D02*
X12875957Y7130688D01*
X12909279D01*
X12925941Y7114026D01*
Y7047381D01*
X12909279Y7030720D01*
X12875957D01*
X12859296Y7047381D01*
Y7114026D01*
X12959264Y7030720D02*
X12992586D01*
X12975925D01*
Y7130688D01*
X12959264Y7114026D01*
X10523387Y6229984D02*
X10456742D01*
Y6180000D01*
X10490064D01*
X10456742D01*
Y6130016D01*
X10556710Y6229984D02*
Y6130016D01*
X10606694D01*
X10623355Y6146678D01*
Y6163339D01*
X10606694Y6180000D01*
X10556710D01*
X10606694D01*
X10623355Y6196661D01*
Y6213323D01*
X10606694Y6229984D01*
X10556710D01*
X10723322Y6130016D02*
X10656677D01*
X10723322Y6196661D01*
Y6213323D01*
X10706661Y6229984D01*
X10673339D01*
X10656677Y6213323D01*
X10756645D02*
X10773307Y6229984D01*
X10806629D01*
X10823290Y6213323D01*
Y6146678D01*
X10806629Y6130016D01*
X10773307D01*
X10756645Y6146678D01*
Y6213323D01*
X10856613D02*
X10873274Y6229984D01*
X10906597D01*
X10923258Y6213323D01*
Y6146678D01*
X10906597Y6130016D01*
X10873274D01*
X10856613Y6146678D01*
Y6213323D01*
X11105016Y6721726D02*
X11204984D01*
Y6771710D01*
X11188322Y6788371D01*
X11121677D01*
X11105016Y6771710D01*
Y6721726D01*
X11204984Y6888339D02*
Y6821694D01*
X11138339Y6888339D01*
X11121677D01*
X11105016Y6871678D01*
Y6838355D01*
X11121677Y6821694D01*
Y6921662D02*
X11105016Y6938323D01*
Y6971645D01*
X11121677Y6988307D01*
X11188322D01*
X11204984Y6971645D01*
Y6938323D01*
X11188322Y6921662D01*
X11121677D01*
Y7021629D02*
X11105016Y7038291D01*
Y7071613D01*
X11121677Y7088274D01*
X11188322D01*
X11204984Y7071613D01*
Y7038291D01*
X11188322Y7021629D01*
X11121677D01*
X12493371Y6263323D02*
X12476710Y6279984D01*
X12443387D01*
X12426726Y6263323D01*
Y6196677D01*
X12443387Y6180016D01*
X12476710D01*
X12493371Y6196677D01*
X12576677Y6180016D02*
Y6279984D01*
X12526694Y6230000D01*
X12593339D01*
X12626661Y6263323D02*
X12643323Y6279984D01*
X12676645D01*
X12693306Y6263323D01*
Y6246661D01*
X12676645Y6230000D01*
X12659984D01*
X12676645D01*
X12693306Y6213339D01*
Y6196677D01*
X12676645Y6180016D01*
X12643323D01*
X12626661Y6196677D01*
X12793274Y6279984D02*
X12759952Y6263323D01*
X12726629Y6230000D01*
Y6196677D01*
X12743290Y6180016D01*
X12776613D01*
X12793274Y6196677D01*
Y6213339D01*
X12776613Y6230000D01*
X12726629D01*
X13261678Y5758371D02*
X13245016Y5741710D01*
Y5708387D01*
X13261678Y5691726D01*
X13328322D01*
X13344983Y5708387D01*
Y5741710D01*
X13328322Y5758371D01*
X13344983Y5841677D02*
X13245016D01*
X13295000Y5791694D01*
Y5858339D01*
X13261678Y5891661D02*
X13245016Y5908323D01*
Y5941645D01*
X13261678Y5958306D01*
X13278339D01*
X13295000Y5941645D01*
Y5924984D01*
Y5941645D01*
X13311661Y5958306D01*
X13328322D01*
X13344983Y5941645D01*
Y5908323D01*
X13328322Y5891661D01*
X13261678Y5991629D02*
X13245016Y6008290D01*
Y6041613D01*
X13261678Y6058274D01*
X13278339D01*
X13295000Y6041613D01*
X13311661Y6058274D01*
X13328322D01*
X13344983Y6041613D01*
Y6008290D01*
X13328322Y5991629D01*
X13311661D01*
X13295000Y6008290D01*
X13278339Y5991629D01*
X13261678D01*
X13295000Y6008290D02*
Y6041613D01*
X13111678Y6573371D02*
X13095016Y6556710D01*
Y6523388D01*
X13111678Y6506726D01*
X13178322D01*
X13194984Y6523388D01*
Y6556710D01*
X13178322Y6573371D01*
X13194984Y6656678D02*
X13095016D01*
X13145000Y6606694D01*
Y6673339D01*
X13111678Y6706662D02*
X13095016Y6723323D01*
Y6756646D01*
X13111678Y6773307D01*
X13128339D01*
X13145000Y6756646D01*
Y6739984D01*
Y6756646D01*
X13161661Y6773307D01*
X13178322D01*
X13194984Y6756646D01*
Y6723323D01*
X13178322Y6706662D01*
X13194984Y6856613D02*
X13095016D01*
X13145000Y6806630D01*
Y6873275D01*
X14838371Y7178322D02*
X14821710Y7194984D01*
X14788387D01*
X14771725Y7178322D01*
Y7111677D01*
X14788387Y7095016D01*
X14821710D01*
X14838371Y7111677D01*
X14921678Y7095016D02*
Y7194984D01*
X14871693Y7145000D01*
X14938339D01*
X14971661Y7178322D02*
X14988322Y7194984D01*
X15021645D01*
X15038306Y7178322D01*
Y7161661D01*
X15021645Y7145000D01*
X15004984D01*
X15021645D01*
X15038306Y7128339D01*
Y7111677D01*
X15021645Y7095016D01*
X14988322D01*
X14971661Y7111677D01*
X15071629Y7178322D02*
X15088290Y7194984D01*
X15121613D01*
X15138274Y7178322D01*
Y7111677D01*
X15121613Y7095016D01*
X15088290D01*
X15071629Y7111677D01*
Y7178322D01*
X14043372D02*
X14026711Y7194984D01*
X13993387D01*
X13976726Y7178322D01*
Y7111677D01*
X13993387Y7095016D01*
X14026711D01*
X14043372Y7111677D01*
X14126677Y7095016D02*
Y7194984D01*
X14076694Y7145000D01*
X14143338D01*
X14176662Y7178322D02*
X14193323Y7194984D01*
X14226645D01*
X14243306Y7178322D01*
Y7161661D01*
X14226645Y7145000D01*
X14209984D01*
X14226645D01*
X14243306Y7128339D01*
Y7111677D01*
X14226645Y7095016D01*
X14193323D01*
X14176662Y7111677D01*
X14343274Y7095016D02*
X14276630D01*
X14343274Y7161661D01*
Y7178322D01*
X14326613Y7194984D01*
X14293291D01*
X14276630Y7178322D01*
X14450032Y7173322D02*
X14433371Y7189984D01*
X14400049D01*
X14383388Y7173322D01*
Y7106677D01*
X14400049Y7090016D01*
X14433371D01*
X14450032Y7106677D01*
X14533339Y7090016D02*
Y7189984D01*
X14483356Y7140000D01*
X14550000D01*
X14583324Y7173322D02*
X14599985Y7189984D01*
X14633307D01*
X14649968Y7173322D01*
Y7156661D01*
X14633307Y7140000D01*
X14616644D01*
X14633307D01*
X14649968Y7123339D01*
Y7106677D01*
X14633307Y7090016D01*
X14599985D01*
X14583324Y7106677D01*
X14683292Y7090016D02*
X14716612D01*
X14699953D01*
Y7189984D01*
X14683292Y7173322D01*
X13598370Y7123323D02*
X13581709Y7139984D01*
X13548387D01*
X13531726Y7123323D01*
Y7056678D01*
X13548387Y7040016D01*
X13581709D01*
X13598370Y7056678D01*
X13681677Y7040016D02*
Y7139984D01*
X13631694Y7090000D01*
X13698338D01*
X13731660Y7123323D02*
X13748323Y7139984D01*
X13781645D01*
X13798306Y7123323D01*
Y7106661D01*
X13781645Y7090000D01*
X13764984D01*
X13781645D01*
X13798306Y7073339D01*
Y7056678D01*
X13781645Y7040016D01*
X13748323D01*
X13731660Y7056678D01*
X13831628Y7139984D02*
X13898274D01*
Y7123323D01*
X13831628Y7056678D01*
Y7040016D01*
X9861702Y8393323D02*
X9845041Y8409984D01*
X9811718D01*
X9795057Y8393323D01*
Y8326678D01*
X9811718Y8310016D01*
X9845041D01*
X9861702Y8326678D01*
X9961669Y8310016D02*
X9895024D01*
X9961669Y8376661D01*
Y8393323D01*
X9945008Y8409984D01*
X9911686D01*
X9895024Y8393323D01*
X9994992Y8310016D02*
X10028315D01*
X10011654D01*
Y8409984D01*
X9994992Y8393323D01*
X10144944Y8310016D02*
X10078299D01*
X10144944Y8376661D01*
Y8393323D01*
X10128283Y8409984D01*
X10094960D01*
X10078299Y8393323D01*
X9223363Y8758323D02*
X9206702Y8774984D01*
X9173379D01*
X9156718Y8758323D01*
Y8691678D01*
X9173379Y8675016D01*
X9206702D01*
X9223363Y8691678D01*
X9323331Y8675016D02*
X9256686D01*
X9323331Y8741661D01*
Y8758323D01*
X9306669Y8774984D01*
X9273347D01*
X9256686Y8758323D01*
X9356653Y8675016D02*
X9389976D01*
X9373315D01*
Y8774984D01*
X9356653Y8758323D01*
X9439960Y8675016D02*
X9473282D01*
X9456621D01*
Y8774984D01*
X9439960Y8758323D01*
X10106677Y5570032D02*
X10090016Y5553371D01*
Y5520048D01*
X10106677Y5503387D01*
X10173322D01*
X10189984Y5520048D01*
Y5553371D01*
X10173322Y5570032D01*
X10189984Y5670000D02*
Y5603355D01*
X10123339Y5670000D01*
X10106677D01*
X10090016Y5653339D01*
Y5620016D01*
X10106677Y5603355D01*
Y5703323D02*
X10090016Y5719984D01*
Y5753307D01*
X10106677Y5769968D01*
X10173322D01*
X10189984Y5753307D01*
Y5719984D01*
X10173322Y5703323D01*
X10106677D01*
X10189984Y5803290D02*
Y5836613D01*
Y5819952D01*
X10090016D01*
X10106677Y5803290D01*
X10256677Y5533371D02*
X10240016Y5516710D01*
Y5483388D01*
X10256677Y5466726D01*
X10323322D01*
X10339984Y5483388D01*
Y5516710D01*
X10323322Y5533371D01*
X10339984Y5633339D02*
Y5566694D01*
X10273339Y5633339D01*
X10256677D01*
X10240016Y5616678D01*
Y5583355D01*
X10256677Y5566694D01*
Y5666662D02*
X10240016Y5683323D01*
Y5716646D01*
X10256677Y5733307D01*
X10323322D01*
X10339984Y5716646D01*
Y5683323D01*
X10323322Y5666662D01*
X10256677D01*
Y5766630D02*
X10240016Y5783291D01*
Y5816613D01*
X10256677Y5833275D01*
X10323322D01*
X10339984Y5816613D01*
Y5783291D01*
X10323322Y5766630D01*
X10256677D01*
X9805016Y7133436D02*
X9904984Y7200081D01*
X9805016D02*
X9904984Y7133436D01*
X9821678Y7250065D02*
X9838339D01*
Y7233403D01*
Y7266726D01*
Y7250065D01*
X9888323D01*
X9904984Y7266726D01*
X9838339Y7333371D02*
Y7366694D01*
X9855000Y7383355D01*
X9904984D01*
Y7333371D01*
X9888323Y7316710D01*
X9871661Y7333371D01*
Y7383355D01*
X9904984Y7416678D02*
Y7450000D01*
Y7433339D01*
X9805016D01*
Y7416678D01*
X9904984Y7566629D02*
Y7499984D01*
X9838339Y7566629D01*
X9821678D01*
X9805016Y7549968D01*
Y7516645D01*
X9821678Y7499984D01*
Y7599952D02*
X9805016Y7616613D01*
Y7649936D01*
X9821678Y7666597D01*
X9888323D01*
X9904984Y7649936D01*
Y7616613D01*
X9888323Y7599952D01*
X9821678D01*
Y7699920D02*
X9805016Y7716581D01*
Y7749903D01*
X9821678Y7766565D01*
X9888323D01*
X9904984Y7749903D01*
Y7716581D01*
X9888323Y7699920D01*
X9821678D01*
X11426726Y6224984D02*
Y6141678D01*
X11443387Y6125016D01*
X11476710D01*
X11493371Y6141678D01*
Y6224984D01*
X11576677Y6125016D02*
Y6224984D01*
X11526693Y6175000D01*
X11593339D01*
X11626661Y6208323D02*
X11643323Y6224984D01*
X11676645D01*
X11693306Y6208323D01*
Y6141678D01*
X11676645Y6125016D01*
X11643323D01*
X11626661Y6141678D01*
Y6208323D01*
X11726629D02*
X11743290Y6224984D01*
X11776613D01*
X11793274Y6208323D01*
Y6191661D01*
X11776613Y6175000D01*
X11793274Y6158339D01*
Y6141678D01*
X11776613Y6125016D01*
X11743290D01*
X11726629Y6141678D01*
Y6158339D01*
X11743290Y6175000D01*
X11726629Y6191661D01*
Y6208323D01*
X11743290Y6175000D02*
X11776613D01*
X11601726Y5865016D02*
Y5964984D01*
X11651710D01*
X11668371Y5948323D01*
Y5915000D01*
X11651710Y5898339D01*
X11601726D01*
X11635048D02*
X11668371Y5865016D01*
X11751678D02*
Y5964984D01*
X11701694Y5915000D01*
X11768339D01*
X11801661Y5948323D02*
X11818323Y5964984D01*
X11851645D01*
X11868306Y5948323D01*
Y5881678D01*
X11851645Y5865016D01*
X11818323D01*
X11801661Y5881678D01*
Y5948323D01*
X11901629D02*
X11918291Y5964984D01*
X11951613D01*
X11968274Y5948323D01*
Y5931661D01*
X11951613Y5915000D01*
X11934952D01*
X11951613D01*
X11968274Y5898339D01*
Y5881678D01*
X11951613Y5865016D01*
X11918291D01*
X11901629Y5881678D01*
X10656726Y9640016D02*
Y9739984D01*
X10706710D01*
X10723371Y9723322D01*
Y9690000D01*
X10706710Y9673339D01*
X10656726D01*
X10823339Y9640016D02*
X10756693D01*
X10823339Y9706661D01*
Y9723322D01*
X10806677Y9739984D01*
X10773355D01*
X10756693Y9723322D01*
X10856661D02*
X10873323Y9739984D01*
X10906645D01*
X10923306Y9723322D01*
Y9656677D01*
X10906645Y9640016D01*
X10873323D01*
X10856661Y9656677D01*
Y9723322D01*
X10956629D02*
X10973290Y9739984D01*
X11006613D01*
X11023274Y9723322D01*
Y9656677D01*
X11006613Y9640016D01*
X10973290D01*
X10956629Y9656677D01*
Y9723322D01*
X11071726Y6459984D02*
Y6360016D01*
X11138371D01*
X11221678D02*
Y6459984D01*
X11171694Y6410000D01*
X11238339D01*
X11271661Y6443322D02*
X11288323Y6459984D01*
X11321645D01*
X11338307Y6443322D01*
Y6376677D01*
X11321645Y6360016D01*
X11288323D01*
X11271661Y6376677D01*
Y6443322D01*
X11371629D02*
X11388291Y6459984D01*
X11421613D01*
X11438274Y6443322D01*
Y6376677D01*
X11421613Y6360016D01*
X11388291D01*
X11371629Y6376677D01*
Y6443322D01*
X9686678Y7193371D02*
X9670016Y7176710D01*
Y7143387D01*
X9686678Y7126726D01*
X9753323D01*
X9769984Y7143387D01*
Y7176710D01*
X9753323Y7193371D01*
X9769984Y7293339D02*
Y7226694D01*
X9703339Y7293339D01*
X9686678D01*
X9670016Y7276678D01*
Y7243355D01*
X9686678Y7226694D01*
Y7326661D02*
X9670016Y7343323D01*
Y7376645D01*
X9686678Y7393307D01*
X9753323D01*
X9769984Y7376645D01*
Y7343323D01*
X9753323Y7326661D01*
X9686678D01*
X9769984Y7476613D02*
X9670016D01*
X9720000Y7426629D01*
Y7493274D01*
X9536677Y7013371D02*
X9520016Y6996710D01*
Y6963387D01*
X9536677Y6946726D01*
X9603322D01*
X9619984Y6963387D01*
Y6996710D01*
X9603322Y7013371D01*
X9619984Y7113339D02*
Y7046694D01*
X9553339Y7113339D01*
X9536677D01*
X9520016Y7096677D01*
Y7063355D01*
X9536677Y7046694D01*
Y7146661D02*
X9520016Y7163323D01*
Y7196645D01*
X9536677Y7213306D01*
X9603322D01*
X9619984Y7196645D01*
Y7163323D01*
X9603322Y7146661D01*
X9536677D01*
X9520016Y7313274D02*
Y7246629D01*
X9570000D01*
X9553339Y7279952D01*
Y7296613D01*
X9570000Y7313274D01*
X9603322D01*
X9619984Y7296613D01*
Y7263291D01*
X9603322Y7246629D01*
X9656677Y6353371D02*
X9640016Y6336710D01*
Y6303387D01*
X9656677Y6286726D01*
X9723322D01*
X9739983Y6303387D01*
Y6336710D01*
X9723322Y6353371D01*
X9739983Y6453339D02*
Y6386694D01*
X9673338Y6453339D01*
X9656677D01*
X9640016Y6436678D01*
Y6403355D01*
X9656677Y6386694D01*
Y6486661D02*
X9640016Y6503323D01*
Y6536645D01*
X9656677Y6553306D01*
X9723322D01*
X9739983Y6536645D01*
Y6503323D01*
X9723322Y6486661D01*
X9656677D01*
X9640016Y6653274D02*
X9656677Y6619952D01*
X9689999Y6586629D01*
X9723322D01*
X9739983Y6603291D01*
Y6636613D01*
X9723322Y6653274D01*
X9706661D01*
X9689999Y6636613D01*
Y6586629D01*
X4631726Y8099984D02*
Y8016677D01*
X4648387Y8000016D01*
X4681710D01*
X4698371Y8016677D01*
Y8099984D01*
X4731694Y8083322D02*
X4748355Y8099984D01*
X4781678D01*
X4798339Y8083322D01*
Y8066661D01*
X4781678Y8050000D01*
X4765016D01*
X4781678D01*
X4798339Y8033339D01*
Y8016677D01*
X4781678Y8000016D01*
X4748355D01*
X4731694Y8016677D01*
X4831661Y8083322D02*
X4848323Y8099984D01*
X4881645D01*
X4898306Y8083322D01*
Y8016677D01*
X4881645Y8000016D01*
X4848323D01*
X4831661Y8016677D01*
Y8083322D01*
X4931629D02*
X4948291Y8099984D01*
X4981613D01*
X4998274Y8083322D01*
Y8016677D01*
X4981613Y8000016D01*
X4948291D01*
X4931629Y8016677D01*
Y8083322D01*
X1984345Y7411206D02*
X1967684Y7427868D01*
X1934361D01*
X1917700Y7411206D01*
Y7394545D01*
X1934361Y7377884D01*
X1967684D01*
X1984345Y7361223D01*
Y7344561D01*
X1967684Y7327900D01*
X1934361D01*
X1917700Y7344561D01*
X2017668Y7427868D02*
Y7327900D01*
X2050990Y7361223D01*
X2084313Y7327900D01*
Y7427868D01*
X2184281D02*
X2117636D01*
Y7377884D01*
X2150958Y7394545D01*
X2167619D01*
X2184281Y7377884D01*
Y7344561D01*
X2167619Y7327900D01*
X2134297D01*
X2117636Y7344561D01*
X2217603Y7411206D02*
X2234265Y7427868D01*
X2267587D01*
X2284248Y7411206D01*
Y7344561D01*
X2267587Y7327900D01*
X2234265D01*
X2217603Y7344561D01*
Y7411206D01*
X2317571D02*
X2334233Y7427868D01*
X2367555D01*
X2384216Y7411206D01*
Y7344561D01*
X2367555Y7327900D01*
X2334233D01*
X2317571Y7344561D01*
Y7411206D01*
X3701726Y7590016D02*
Y7689984D01*
X3751710D01*
X3768371Y7673322D01*
Y7640000D01*
X3751710Y7623339D01*
X3701726D01*
X3735048D02*
X3768371Y7590016D01*
X3868339Y7689984D02*
X3801694D01*
Y7640000D01*
X3835016Y7656661D01*
X3851678D01*
X3868339Y7640000D01*
Y7606677D01*
X3851678Y7590016D01*
X3818355D01*
X3801694Y7606677D01*
X3901661Y7673322D02*
X3918323Y7689984D01*
X3951645D01*
X3968307Y7673322D01*
Y7606677D01*
X3951645Y7590016D01*
X3918323D01*
X3901661Y7606677D01*
Y7673322D01*
X4001629D02*
X4018291Y7689984D01*
X4051613D01*
X4068274Y7673322D01*
Y7656661D01*
X4051613Y7640000D01*
X4068274Y7623339D01*
Y7606677D01*
X4051613Y7590016D01*
X4018291D01*
X4001629Y7606677D01*
Y7623339D01*
X4018291Y7640000D01*
X4001629Y7656661D01*
Y7673322D01*
X4018291Y7640000D02*
X4051613D01*
X4489984Y7946726D02*
X4390016D01*
Y7996710D01*
X4406677Y8013371D01*
X4440000D01*
X4456661Y7996710D01*
Y7946726D01*
Y7980048D02*
X4489984Y8013371D01*
X4406677Y8046694D02*
X4390016Y8063355D01*
Y8096677D01*
X4406677Y8113339D01*
X4423339D01*
X4440000Y8096677D01*
Y8080016D01*
Y8096677D01*
X4456661Y8113339D01*
X4473323D01*
X4489984Y8096677D01*
Y8063355D01*
X4473323Y8046694D01*
X4406677Y8146661D02*
X4390016Y8163323D01*
Y8196645D01*
X4406677Y8213306D01*
X4473323D01*
X4489984Y8196645D01*
Y8163323D01*
X4473323Y8146661D01*
X4406677D01*
X4390016Y8313274D02*
X4406677Y8279952D01*
X4440000Y8246629D01*
X4473323D01*
X4489984Y8263291D01*
Y8296613D01*
X4473323Y8313274D01*
X4456661D01*
X4440000Y8296613D01*
Y8246629D01*
X5709984Y8521726D02*
X5610016D01*
Y8571710D01*
X5626678Y8588371D01*
X5660000D01*
X5676661Y8571710D01*
Y8521726D01*
Y8555048D02*
X5709984Y8588371D01*
X5626678Y8621694D02*
X5610016Y8638355D01*
Y8671678D01*
X5626678Y8688339D01*
X5643339D01*
X5660000Y8671678D01*
Y8655016D01*
Y8671678D01*
X5676661Y8688339D01*
X5693323D01*
X5709984Y8671678D01*
Y8638355D01*
X5693323Y8621694D01*
X5626678Y8721661D02*
X5610016Y8738323D01*
Y8771645D01*
X5626678Y8788307D01*
X5693323D01*
X5709984Y8771645D01*
Y8738323D01*
X5693323Y8721661D01*
X5626678D01*
X5709984Y8871613D02*
X5610016D01*
X5660000Y8821629D01*
Y8888274D01*
X5869984Y7946726D02*
X5770016D01*
Y7996709D01*
X5786677Y8013371D01*
X5820000D01*
X5836661Y7996709D01*
Y7946726D01*
Y7980048D02*
X5869984Y8013371D01*
X5786677Y8046693D02*
X5770016Y8063355D01*
Y8096677D01*
X5786677Y8113338D01*
X5803339D01*
X5820000Y8096677D01*
Y8080016D01*
Y8096677D01*
X5836661Y8113338D01*
X5853322D01*
X5869984Y8096677D01*
Y8063355D01*
X5853322Y8046693D01*
X5786677Y8146661D02*
X5770016Y8163323D01*
Y8196645D01*
X5786677Y8213306D01*
X5853322D01*
X5869984Y8196645D01*
Y8163323D01*
X5853322Y8146661D01*
X5786677D01*
Y8246629D02*
X5770016Y8263290D01*
Y8296613D01*
X5786677Y8313274D01*
X5803339D01*
X5820000Y8296613D01*
Y8279951D01*
Y8296613D01*
X5836661Y8313274D01*
X5853322D01*
X5869984Y8296613D01*
Y8263290D01*
X5853322Y8246629D01*
X5059984Y8811726D02*
X4960016D01*
Y8861710D01*
X4976677Y8878371D01*
X5010000D01*
X5026661Y8861710D01*
Y8811726D01*
Y8845048D02*
X5059984Y8878371D01*
X4976677Y8911694D02*
X4960016Y8928355D01*
Y8961678D01*
X4976677Y8978339D01*
X4993339D01*
X5010000Y8961678D01*
Y8945016D01*
Y8961678D01*
X5026661Y8978339D01*
X5043322D01*
X5059984Y8961678D01*
Y8928355D01*
X5043322Y8911694D01*
X4976677Y9011661D02*
X4960016Y9028323D01*
Y9061645D01*
X4976677Y9078306D01*
X5043322D01*
X5059984Y9061645D01*
Y9028323D01*
X5043322Y9011661D01*
X4976677D01*
X5059984Y9178274D02*
Y9111629D01*
X4993339Y9178274D01*
X4976677D01*
X4960016Y9161613D01*
Y9128291D01*
X4976677Y9111629D01*
X5684984Y7903387D02*
X5585016D01*
Y7953371D01*
X5601677Y7970032D01*
X5635000D01*
X5651661Y7953371D01*
Y7903387D01*
Y7936710D02*
X5684984Y7970032D01*
X5601677Y8003355D02*
X5585016Y8020016D01*
Y8053339D01*
X5601677Y8070000D01*
X5618339D01*
X5635000Y8053339D01*
Y8036677D01*
Y8053339D01*
X5651661Y8070000D01*
X5668322D01*
X5684984Y8053339D01*
Y8020016D01*
X5668322Y8003355D01*
X5601677Y8103323D02*
X5585016Y8119984D01*
Y8153307D01*
X5601677Y8169968D01*
X5668322D01*
X5684984Y8153307D01*
Y8119984D01*
X5668322Y8103323D01*
X5601677D01*
X5684984Y8203290D02*
Y8236613D01*
Y8219952D01*
X5585016D01*
X5601677Y8203290D01*
X5941726Y8060016D02*
Y8159984D01*
X5991710D01*
X6008371Y8143323D01*
Y8110000D01*
X5991710Y8093339D01*
X5941726D01*
X6041694Y8143323D02*
X6058355Y8159984D01*
X6091677D01*
X6108339Y8143323D01*
Y8126661D01*
X6091677Y8110000D01*
X6075016D01*
X6091677D01*
X6108339Y8093339D01*
Y8076678D01*
X6091677Y8060016D01*
X6058355D01*
X6041694Y8076678D01*
X6141661Y8143323D02*
X6158323Y8159984D01*
X6191645D01*
X6208306Y8143323D01*
Y8076678D01*
X6191645Y8060016D01*
X6158323D01*
X6141661Y8076678D01*
Y8143323D01*
X6241629D02*
X6258291Y8159984D01*
X6291613D01*
X6308274Y8143323D01*
Y8076678D01*
X6291613Y8060016D01*
X6258291D01*
X6241629Y8076678D01*
Y8143323D01*
X5230032Y8848322D02*
X5213371Y8864984D01*
X5180049D01*
X5163387Y8848322D01*
Y8781677D01*
X5180049Y8765016D01*
X5213371D01*
X5230032Y8781677D01*
X5263355Y8848322D02*
X5280016Y8864984D01*
X5313339D01*
X5330000Y8848322D01*
Y8831661D01*
X5313339Y8815000D01*
X5296677D01*
X5313339D01*
X5330000Y8798339D01*
Y8781677D01*
X5313339Y8765016D01*
X5280016D01*
X5263355Y8781677D01*
X5363323Y8848322D02*
X5379984Y8864984D01*
X5413307D01*
X5429968Y8848322D01*
Y8781677D01*
X5413307Y8765016D01*
X5379984D01*
X5363323Y8781677D01*
Y8848322D01*
X5463291Y8765016D02*
X5496613D01*
X5479952D01*
Y8864984D01*
X5463291Y8848322D01*
X6743436Y5589984D02*
X6810081Y5490016D01*
Y5589984D02*
X6743436Y5490016D01*
X6860065Y5573323D02*
Y5556661D01*
X6843403D01*
X6876726D01*
X6860065D01*
Y5506678D01*
X6876726Y5490016D01*
X6943371Y5556661D02*
X6976694D01*
X6993355Y5540000D01*
Y5490016D01*
X6943371D01*
X6926710Y5506678D01*
X6943371Y5523339D01*
X6993355D01*
X7026678Y5490016D02*
X7060000D01*
X7043339D01*
Y5589984D01*
X7026678D01*
X7176629D02*
X7109984D01*
Y5540000D01*
X7143307Y5556661D01*
X7159968D01*
X7176629Y5540000D01*
Y5506678D01*
X7159968Y5490016D01*
X7126645D01*
X7109984Y5506678D01*
X7209952Y5573323D02*
X7226613Y5589984D01*
X7259936D01*
X7276597Y5573323D01*
Y5506678D01*
X7259936Y5490016D01*
X7226613D01*
X7209952Y5506678D01*
Y5573323D01*
X7309920D02*
X7326581Y5589984D01*
X7359903D01*
X7376565Y5573323D01*
Y5506678D01*
X7359903Y5490016D01*
X7326581D01*
X7309920Y5506678D01*
Y5573323D01*
X11686726Y7210016D02*
Y7309984D01*
X11736710D01*
X11753371Y7293322D01*
Y7260000D01*
X11736710Y7243339D01*
X11686726D01*
X11720048D02*
X11753371Y7210016D01*
X11836677D02*
Y7309984D01*
X11786693Y7260000D01*
X11853338D01*
X11886661Y7293322D02*
X11903323Y7309984D01*
X11936645D01*
X11953306Y7293322D01*
Y7226677D01*
X11936645Y7210016D01*
X11903323D01*
X11886661Y7226677D01*
Y7293322D01*
X11986629D02*
X12003290Y7309984D01*
X12036613D01*
X12053274Y7293322D01*
Y7226677D01*
X12036613Y7210016D01*
X12003290D01*
X11986629Y7226677D01*
Y7293322D01*
X11403387Y6635016D02*
Y6734984D01*
X11453371D01*
X11470032Y6718323D01*
Y6685000D01*
X11453371Y6668339D01*
X11403387D01*
X11436710D02*
X11470032Y6635016D01*
X11553339D02*
Y6734984D01*
X11503355Y6685000D01*
X11570000D01*
X11603323Y6718323D02*
X11619984Y6734984D01*
X11653307D01*
X11669968Y6718323D01*
Y6651678D01*
X11653307Y6635016D01*
X11619984D01*
X11603323Y6651678D01*
Y6718323D01*
X11703291Y6635016D02*
X11736613D01*
X11719952D01*
Y6734984D01*
X11703291Y6718323D01*
X3095057Y7715016D02*
Y7814984D01*
X3145040D01*
X3161702Y7798322D01*
Y7765000D01*
X3145040Y7748339D01*
X3095057D01*
X3128379D02*
X3161702Y7715016D01*
X3261669Y7814984D02*
X3228347Y7798322D01*
X3195024Y7765000D01*
Y7731677D01*
X3211686Y7715016D01*
X3245008D01*
X3261669Y7731677D01*
Y7748339D01*
X3245008Y7765000D01*
X3195024D01*
X3294992Y7715016D02*
X3328315D01*
X3311654D01*
Y7814984D01*
X3294992Y7798322D01*
X3444944Y7715016D02*
X3378299D01*
X3444944Y7781661D01*
Y7798322D01*
X3428282Y7814984D01*
X3394960D01*
X3378299Y7798322D01*
X4549984Y8811718D02*
X4450016D01*
Y8861702D01*
X4466677Y8878363D01*
X4500000D01*
X4516661Y8861702D01*
Y8811718D01*
Y8845040D02*
X4549984Y8878363D01*
X4450016Y8978331D02*
X4466677Y8945008D01*
X4500000Y8911686D01*
X4533322D01*
X4549984Y8928347D01*
Y8961669D01*
X4533322Y8978331D01*
X4516661D01*
X4500000Y8961669D01*
Y8911686D01*
X4549984Y9011653D02*
Y9044976D01*
Y9028315D01*
X4450016D01*
X4466677Y9011653D01*
X4549984Y9094960D02*
Y9128282D01*
Y9111621D01*
X4450016D01*
X4466677Y9094960D01*
X15056726Y5520016D02*
Y5619984D01*
X15106709D01*
X15123370Y5603323D01*
Y5570000D01*
X15106709Y5553339D01*
X15056726D01*
X15090048D02*
X15123370Y5520016D01*
X15223338Y5619984D02*
X15190016Y5603323D01*
X15156694Y5570000D01*
Y5536678D01*
X15173355Y5520016D01*
X15206677D01*
X15223338Y5536678D01*
Y5553339D01*
X15206677Y5570000D01*
X15156694D01*
X15256660Y5603323D02*
X15273323Y5619984D01*
X15306645D01*
X15323306Y5603323D01*
Y5536678D01*
X15306645Y5520016D01*
X15273323D01*
X15256660Y5536678D01*
Y5603323D01*
X15356628Y5536678D02*
X15373291Y5520016D01*
X15406613D01*
X15423274Y5536678D01*
Y5603323D01*
X15406613Y5619984D01*
X15373291D01*
X15356628Y5603323D01*
Y5586661D01*
X15373291Y5570000D01*
X15423274D01*
X3988371Y8351677D02*
Y8418323D01*
X3971710Y8434984D01*
X3938387D01*
X3921726Y8418323D01*
Y8351677D01*
X3938387Y8335016D01*
X3971710D01*
X3955048Y8368339D02*
X3988371Y8335016D01*
X3971710D02*
X3988371Y8351677D01*
X4088339Y8434984D02*
X4055016Y8418323D01*
X4021694Y8385000D01*
Y8351677D01*
X4038355Y8335016D01*
X4071677D01*
X4088339Y8351677D01*
Y8368339D01*
X4071677Y8385000D01*
X4021694D01*
X4121661Y8418323D02*
X4138323Y8434984D01*
X4171645D01*
X4188306Y8418323D01*
Y8351677D01*
X4171645Y8335016D01*
X4138323D01*
X4121661Y8351677D01*
Y8418323D01*
X4288274Y8335016D02*
X4221629D01*
X4288274Y8401661D01*
Y8418323D01*
X4271613Y8434984D01*
X4238290D01*
X4221629Y8418323D01*
X14955032Y5746678D02*
Y5813323D01*
X14938371Y5829984D01*
X14905049D01*
X14888387Y5813323D01*
Y5746678D01*
X14905049Y5730016D01*
X14938371D01*
X14921710Y5763339D02*
X14955032Y5730016D01*
X14938371D02*
X14955032Y5746678D01*
X15055000Y5829984D02*
X15021678Y5813323D01*
X14988354Y5780000D01*
Y5746678D01*
X15005016Y5730016D01*
X15038339D01*
X15055000Y5746678D01*
Y5763339D01*
X15038339Y5780000D01*
X14988354D01*
X15088322Y5813323D02*
X15104984Y5829984D01*
X15138307D01*
X15154968Y5813323D01*
Y5746678D01*
X15138307Y5730016D01*
X15104984D01*
X15088322Y5746678D01*
Y5813323D01*
X15188290Y5730016D02*
X15221613D01*
X15204951D01*
Y5829984D01*
X15188290Y5813323D01*
X14098370Y5926678D02*
Y5993323D01*
X14081709Y6009984D01*
X14048387D01*
X14031726Y5993323D01*
Y5926678D01*
X14048387Y5910016D01*
X14081709D01*
X14065048Y5943339D02*
X14098370Y5910016D01*
X14081709D02*
X14098370Y5926678D01*
X14198338Y6009984D02*
X14165016Y5993323D01*
X14131694Y5960000D01*
Y5926678D01*
X14148355Y5910016D01*
X14181677D01*
X14198338Y5926678D01*
Y5943339D01*
X14181677Y5960000D01*
X14131694D01*
X14231660Y5993323D02*
X14248323Y6009984D01*
X14281645D01*
X14298306Y5993323D01*
Y5926678D01*
X14281645Y5910016D01*
X14248323D01*
X14231660Y5926678D01*
Y5993323D01*
X14331628D02*
X14348291Y6009984D01*
X14381613D01*
X14398274Y5993323D01*
Y5926678D01*
X14381613Y5910016D01*
X14348291D01*
X14331628Y5926678D01*
Y5993323D01*
X12086726Y7034984D02*
Y6935016D01*
X12136710D01*
X12153371Y6951677D01*
Y7018323D01*
X12136710Y7034984D01*
X12086726D01*
X12236678Y6935016D02*
Y7034984D01*
X12186694Y6985000D01*
X12253339D01*
X12286661Y7018323D02*
X12303323Y7034984D01*
X12336645D01*
X12353307Y7018323D01*
Y6951677D01*
X12336645Y6935016D01*
X12303323D01*
X12286661Y6951677D01*
Y7018323D01*
X12386629D02*
X12403291Y7034984D01*
X12436613D01*
X12453274Y7018323D01*
Y6951677D01*
X12436613Y6935016D01*
X12403291D01*
X12386629Y6951677D01*
Y7018323D01*
X6386726Y8214984D02*
Y8115016D01*
X6436710D01*
X6453371Y8131677D01*
Y8198322D01*
X6436710Y8214984D01*
X6386726D01*
X6486694Y8198322D02*
X6503355Y8214984D01*
X6536678D01*
X6553339Y8198322D01*
Y8181661D01*
X6536678Y8165000D01*
X6520016D01*
X6536678D01*
X6553339Y8148339D01*
Y8131677D01*
X6536678Y8115016D01*
X6503355D01*
X6486694Y8131677D01*
X6586661Y8198322D02*
X6603323Y8214984D01*
X6636645D01*
X6653306Y8198322D01*
Y8131677D01*
X6636645Y8115016D01*
X6603323D01*
X6586661Y8131677D01*
Y8198322D01*
X6686629D02*
X6703291Y8214984D01*
X6736613D01*
X6753274Y8198322D01*
Y8131677D01*
X6736613Y8115016D01*
X6703291D01*
X6686629Y8131677D01*
Y8198322D01*
X3245057Y8869984D02*
Y8770016D01*
X3295040D01*
X3311702Y8786677D01*
Y8853322D01*
X3295040Y8869984D01*
X3245057D01*
X3411669D02*
X3378347Y8853322D01*
X3345024Y8820000D01*
Y8786677D01*
X3361686Y8770016D01*
X3395008D01*
X3411669Y8786677D01*
Y8803339D01*
X3395008Y8820000D01*
X3345024D01*
X3444992Y8770016D02*
X3478315D01*
X3461653D01*
Y8869984D01*
X3444992Y8853322D01*
X3528299D02*
X3544960Y8869984D01*
X3578282D01*
X3594944Y8853322D01*
Y8786677D01*
X3578282Y8770016D01*
X3544960D01*
X3528299Y8786677D01*
Y8853322D01*
X6541701Y7883323D02*
X6525040Y7899984D01*
X6491718D01*
X6475056Y7883323D01*
Y7816678D01*
X6491718Y7800016D01*
X6525040D01*
X6541701Y7816678D01*
X6641669Y7899984D02*
X6575024D01*
Y7850000D01*
X6608347Y7866661D01*
X6625008D01*
X6641669Y7850000D01*
Y7816678D01*
X6625008Y7800016D01*
X6591686D01*
X6575024Y7816678D01*
X6674992Y7800016D02*
X6708314D01*
X6691653D01*
Y7899984D01*
X6674992Y7883323D01*
X6758298D02*
X6774960Y7899984D01*
X6808282D01*
X6824943Y7883323D01*
Y7866661D01*
X6808282Y7850000D01*
X6791621D01*
X6808282D01*
X6824943Y7833339D01*
Y7816678D01*
X6808282Y7800016D01*
X6774960D01*
X6758298Y7816678D01*
X7968585Y7581386D02*
X7951924Y7598048D01*
X7918601D01*
X7901940Y7581386D01*
Y7514741D01*
X7918601Y7498080D01*
X7951924D01*
X7968585Y7514741D01*
X8068553Y7598048D02*
X8001908D01*
Y7548064D01*
X8035230Y7564725D01*
X8051892D01*
X8068553Y7548064D01*
Y7514741D01*
X8051892Y7498080D01*
X8018569D01*
X8001908Y7514741D01*
X8101876Y7581386D02*
X8118537Y7598048D01*
X8151859D01*
X8168521Y7581386D01*
Y7514741D01*
X8151859Y7498080D01*
X8118537D01*
X8101876Y7514741D01*
Y7581386D01*
X8201843D02*
X8218505Y7598048D01*
X8251827D01*
X8268488Y7581386D01*
Y7564725D01*
X8251827Y7548064D01*
X8235166D01*
X8251827D01*
X8268488Y7531403D01*
Y7514741D01*
X8251827Y7498080D01*
X8218505D01*
X8201843Y7514741D01*
X7869525Y6578086D02*
X7852864Y6594748D01*
X7819541D01*
X7802880Y6578086D01*
Y6511441D01*
X7819541Y6494780D01*
X7852864D01*
X7869525Y6511441D01*
X7969493Y6594748D02*
X7902848D01*
Y6544764D01*
X7936170Y6561425D01*
X7952832D01*
X7969493Y6544764D01*
Y6511441D01*
X7952832Y6494780D01*
X7919509D01*
X7902848Y6511441D01*
X8002816Y6494780D02*
X8036138D01*
X8019477D01*
Y6594748D01*
X8002816Y6578086D01*
X8086122D02*
X8102783Y6594748D01*
X8136106D01*
X8152767Y6578086D01*
Y6511441D01*
X8136106Y6494780D01*
X8102783D01*
X8086122Y6511441D01*
Y6578086D01*
X7869525Y7718546D02*
X7852864Y7735208D01*
X7819541D01*
X7802880Y7718546D01*
Y7651901D01*
X7819541Y7635240D01*
X7852864D01*
X7869525Y7651901D01*
X7969493Y7735208D02*
X7902848D01*
Y7685224D01*
X7936170Y7701885D01*
X7952832D01*
X7969493Y7685224D01*
Y7651901D01*
X7952832Y7635240D01*
X7919509D01*
X7902848Y7651901D01*
X8002816Y7635240D02*
X8036138D01*
X8019477D01*
Y7735208D01*
X8002816Y7718546D01*
X8086122Y7635240D02*
X8119445D01*
X8102783D01*
Y7735208D01*
X8086122Y7718546D01*
X5713371Y6093323D02*
X5696710Y6109984D01*
X5663387D01*
X5646726Y6093323D01*
Y6026678D01*
X5663387Y6010016D01*
X5696710D01*
X5713371Y6026678D01*
X5813339Y6109984D02*
X5746694D01*
Y6060000D01*
X5780016Y6076661D01*
X5796678D01*
X5813339Y6060000D01*
Y6026678D01*
X5796678Y6010016D01*
X5763355D01*
X5746694Y6026678D01*
X5846661Y6093323D02*
X5863323Y6109984D01*
X5896645D01*
X5913306Y6093323D01*
Y6026678D01*
X5896645Y6010016D01*
X5863323D01*
X5846661Y6026678D01*
Y6093323D01*
X5946629Y6026678D02*
X5963291Y6010016D01*
X5996613D01*
X6013274Y6026678D01*
Y6093323D01*
X5996613Y6109984D01*
X5963291D01*
X5946629Y6093323D01*
Y6076661D01*
X5963291Y6060000D01*
X6013274D01*
X5631677Y6323371D02*
X5615016Y6306710D01*
Y6273387D01*
X5631677Y6256726D01*
X5698322D01*
X5714983Y6273387D01*
Y6306710D01*
X5698322Y6323371D01*
X5615016Y6423339D02*
Y6356694D01*
X5665000D01*
X5648338Y6390016D01*
Y6406678D01*
X5665000Y6423339D01*
X5698322D01*
X5714983Y6406678D01*
Y6373355D01*
X5698322Y6356694D01*
X5631677Y6456661D02*
X5615016Y6473323D01*
Y6506645D01*
X5631677Y6523306D01*
X5698322D01*
X5714983Y6506645D01*
Y6473323D01*
X5698322Y6456661D01*
X5631677D01*
X5714983Y6623274D02*
Y6556629D01*
X5648338Y6623274D01*
X5631677D01*
X5615016Y6606613D01*
Y6573291D01*
X5631677Y6556629D01*
X11471677Y6843371D02*
X11455016Y6826710D01*
Y6793387D01*
X11471677Y6776726D01*
X11538322D01*
X11554983Y6793387D01*
Y6826710D01*
X11538322Y6843371D01*
X11554983Y6926678D02*
X11455016D01*
X11505000Y6876694D01*
Y6943339D01*
X11554983Y7043306D02*
Y6976661D01*
X11488338Y7043306D01*
X11471677D01*
X11455016Y7026645D01*
Y6993323D01*
X11471677Y6976661D01*
X11554983Y7126613D02*
X11455016D01*
X11505000Y7076629D01*
Y7143274D01*
X6308371Y5958323D02*
X6291710Y5974984D01*
X6258387D01*
X6241726Y5958323D01*
Y5891678D01*
X6258387Y5875016D01*
X6291710D01*
X6308371Y5891678D01*
X6408339Y5974984D02*
X6341694D01*
Y5925000D01*
X6375016Y5941661D01*
X6391678D01*
X6408339Y5925000D01*
Y5891678D01*
X6391678Y5875016D01*
X6358355D01*
X6341694Y5891678D01*
X6441661Y5958323D02*
X6458323Y5974984D01*
X6491645D01*
X6508307Y5958323D01*
Y5891678D01*
X6491645Y5875016D01*
X6458323D01*
X6441661Y5891678D01*
Y5958323D01*
X6541629D02*
X6558291Y5974984D01*
X6591613D01*
X6608274Y5958323D01*
Y5941661D01*
X6591613Y5925000D01*
X6608274Y5908339D01*
Y5891678D01*
X6591613Y5875016D01*
X6558291D01*
X6541629Y5891678D01*
Y5908339D01*
X6558291Y5925000D01*
X6541629Y5941661D01*
Y5958323D01*
X6558291Y5925000D02*
X6591613D01*
X5936702Y7873323D02*
X5920040Y7889984D01*
X5886718D01*
X5870057Y7873323D01*
Y7806678D01*
X5886718Y7790016D01*
X5920040D01*
X5936702Y7806678D01*
X6036669Y7889984D02*
X5970024D01*
Y7840000D01*
X6003347Y7856661D01*
X6020008D01*
X6036669Y7840000D01*
Y7806678D01*
X6020008Y7790016D01*
X5986686D01*
X5970024Y7806678D01*
X6069992Y7790016D02*
X6103315D01*
X6086654D01*
Y7889984D01*
X6069992Y7873323D01*
X6219944Y7790016D02*
X6153299D01*
X6219944Y7856661D01*
Y7873323D01*
X6203282Y7889984D01*
X6169960D01*
X6153299Y7873323D01*
X9391985Y9349786D02*
X9375324Y9366448D01*
X9342002D01*
X9325340Y9349786D01*
Y9333125D01*
X9342002Y9316464D01*
X9375324D01*
X9391985Y9299802D01*
Y9283141D01*
X9375324Y9266480D01*
X9342002D01*
X9325340Y9283141D01*
X9491953Y9366448D02*
X9458631Y9349786D01*
X9425308Y9316464D01*
Y9283141D01*
X9441969Y9266480D01*
X9475292D01*
X9491953Y9283141D01*
Y9299802D01*
X9475292Y9316464D01*
X9425308D01*
X9525276Y9349786D02*
X9541937Y9366448D01*
X9575260D01*
X9591921Y9349786D01*
Y9283141D01*
X9575260Y9266480D01*
X9541937D01*
X9525276Y9283141D01*
Y9349786D01*
X9625244Y9366448D02*
X9691889D01*
Y9349786D01*
X9625244Y9283141D01*
Y9266480D01*
X8442025Y9349786D02*
X8425364Y9366448D01*
X8392042D01*
X8375380Y9349786D01*
Y9333125D01*
X8392042Y9316464D01*
X8425364D01*
X8442025Y9299802D01*
Y9283141D01*
X8425364Y9266480D01*
X8392042D01*
X8375380Y9283141D01*
X8541993Y9366448D02*
X8508671Y9349786D01*
X8475348Y9316464D01*
Y9283141D01*
X8492009Y9266480D01*
X8525332D01*
X8541993Y9283141D01*
Y9299802D01*
X8525332Y9316464D01*
X8475348D01*
X8575316Y9349786D02*
X8591977Y9366448D01*
X8625300D01*
X8641961Y9349786D01*
Y9283141D01*
X8625300Y9266480D01*
X8591977D01*
X8575316Y9283141D01*
Y9349786D01*
X8741929Y9366448D02*
X8708606Y9349786D01*
X8675284Y9316464D01*
Y9283141D01*
X8691945Y9266480D01*
X8725268D01*
X8741929Y9283141D01*
Y9299802D01*
X8725268Y9316464D01*
X8675284D01*
X7492065Y9349786D02*
X7475404Y9366448D01*
X7442082D01*
X7425420Y9349786D01*
Y9333125D01*
X7442082Y9316464D01*
X7475404D01*
X7492065Y9299802D01*
Y9283141D01*
X7475404Y9266480D01*
X7442082D01*
X7425420Y9283141D01*
X7592033Y9366448D02*
X7558711Y9349786D01*
X7525388Y9316464D01*
Y9283141D01*
X7542049Y9266480D01*
X7575372D01*
X7592033Y9283141D01*
Y9299802D01*
X7575372Y9316464D01*
X7525388D01*
X7625356Y9349786D02*
X7642017Y9366448D01*
X7675340D01*
X7692001Y9349786D01*
Y9283141D01*
X7675340Y9266480D01*
X7642017D01*
X7625356Y9283141D01*
Y9349786D01*
X7791969Y9366448D02*
X7725324D01*
Y9316464D01*
X7758646Y9333125D01*
X7775308D01*
X7791969Y9316464D01*
Y9283141D01*
X7775308Y9266480D01*
X7741985D01*
X7725324Y9283141D01*
X6542105Y9349786D02*
X6525444Y9366448D01*
X6492122D01*
X6475460Y9349786D01*
Y9333125D01*
X6492122Y9316464D01*
X6525444D01*
X6542105Y9299802D01*
Y9283141D01*
X6525444Y9266480D01*
X6492122D01*
X6475460Y9283141D01*
X6642073Y9366448D02*
X6608751Y9349786D01*
X6575428Y9316464D01*
Y9283141D01*
X6592089Y9266480D01*
X6625412D01*
X6642073Y9283141D01*
Y9299802D01*
X6625412Y9316464D01*
X6575428D01*
X6675396Y9349786D02*
X6692057Y9366448D01*
X6725380D01*
X6742041Y9349786D01*
Y9283141D01*
X6725380Y9266480D01*
X6692057D01*
X6675396Y9283141D01*
Y9349786D01*
X6825348Y9266480D02*
Y9366448D01*
X6775364Y9316464D01*
X6842009D01*
X5592145Y9349786D02*
X5575484Y9366448D01*
X5542162D01*
X5525500Y9349786D01*
Y9333125D01*
X5542162Y9316464D01*
X5575484D01*
X5592145Y9299802D01*
Y9283141D01*
X5575484Y9266480D01*
X5542162D01*
X5525500Y9283141D01*
X5692113Y9366448D02*
X5658791Y9349786D01*
X5625468Y9316464D01*
Y9283141D01*
X5642129Y9266480D01*
X5675452D01*
X5692113Y9283141D01*
Y9299802D01*
X5675452Y9316464D01*
X5625468D01*
X5725436Y9349786D02*
X5742097Y9366448D01*
X5775420D01*
X5792081Y9349786D01*
Y9283141D01*
X5775420Y9266480D01*
X5742097D01*
X5725436Y9283141D01*
Y9349786D01*
X5825404D02*
X5842065Y9366448D01*
X5875388D01*
X5892049Y9349786D01*
Y9333125D01*
X5875388Y9316464D01*
X5858726D01*
X5875388D01*
X5892049Y9299802D01*
Y9283141D01*
X5875388Y9266480D01*
X5842065D01*
X5825404Y9283141D01*
X4642185Y9349786D02*
X4625524Y9366448D01*
X4592202D01*
X4575540Y9349786D01*
Y9333125D01*
X4592202Y9316464D01*
X4625524D01*
X4642185Y9299802D01*
Y9283141D01*
X4625524Y9266480D01*
X4592202D01*
X4575540Y9283141D01*
X4742153Y9366448D02*
X4708831Y9349786D01*
X4675508Y9316464D01*
Y9283141D01*
X4692169Y9266480D01*
X4725492D01*
X4742153Y9283141D01*
Y9299802D01*
X4725492Y9316464D01*
X4675508D01*
X4775476Y9349786D02*
X4792137Y9366448D01*
X4825460D01*
X4842121Y9349786D01*
Y9283141D01*
X4825460Y9266480D01*
X4792137D01*
X4775476Y9283141D01*
Y9349786D01*
X4942089Y9266480D02*
X4875444D01*
X4942089Y9333125D01*
Y9349786D01*
X4925428Y9366448D01*
X4892105D01*
X4875444Y9349786D01*
X3692225D02*
X3675564Y9366448D01*
X3642242D01*
X3625580Y9349786D01*
Y9333125D01*
X3642242Y9316464D01*
X3675564D01*
X3692225Y9299802D01*
Y9283141D01*
X3675564Y9266480D01*
X3642242D01*
X3625580Y9283141D01*
X3792193Y9366448D02*
X3758871Y9349786D01*
X3725548Y9316464D01*
Y9283141D01*
X3742209Y9266480D01*
X3775532D01*
X3792193Y9283141D01*
Y9299802D01*
X3775532Y9316464D01*
X3725548D01*
X3825516Y9349786D02*
X3842177Y9366448D01*
X3875500D01*
X3892161Y9349786D01*
Y9283141D01*
X3875500Y9266480D01*
X3842177D01*
X3825516Y9283141D01*
Y9349786D01*
X3925484Y9266480D02*
X3958806D01*
X3942145D01*
Y9366448D01*
X3925484Y9349786D01*
X2742265D02*
X2725604Y9366448D01*
X2692282D01*
X2675620Y9349786D01*
Y9333125D01*
X2692282Y9316464D01*
X2725604D01*
X2742265Y9299802D01*
Y9283141D01*
X2725604Y9266480D01*
X2692282D01*
X2675620Y9283141D01*
X2842233Y9366448D02*
X2808911Y9349786D01*
X2775588Y9316464D01*
Y9283141D01*
X2792249Y9266480D01*
X2825572D01*
X2842233Y9283141D01*
Y9299802D01*
X2825572Y9316464D01*
X2775588D01*
X2875556Y9349786D02*
X2892217Y9366448D01*
X2925540D01*
X2942201Y9349786D01*
Y9283141D01*
X2925540Y9266480D01*
X2892217D01*
X2875556Y9283141D01*
Y9349786D01*
X2975524D02*
X2992185Y9366448D01*
X3025508D01*
X3042169Y9349786D01*
Y9283141D01*
X3025508Y9266480D01*
X2992185D01*
X2975524Y9283141D01*
Y9349786D01*
X2646726Y8499984D02*
Y8400016D01*
X2696710D01*
X2713371Y8416678D01*
Y8483323D01*
X2696710Y8499984D01*
X2646726D01*
X2813339D02*
X2780016Y8483323D01*
X2746694Y8450000D01*
Y8416678D01*
X2763355Y8400016D01*
X2796677D01*
X2813339Y8416678D01*
Y8433339D01*
X2796677Y8450000D01*
X2746694D01*
X2846661Y8483323D02*
X2863323Y8499984D01*
X2896645D01*
X2913306Y8483323D01*
Y8416678D01*
X2896645Y8400016D01*
X2863323D01*
X2846661Y8416678D01*
Y8483323D01*
X2946629Y8416678D02*
X2963290Y8400016D01*
X2996613D01*
X3013274Y8416678D01*
Y8483323D01*
X2996613Y8499984D01*
X2963290D01*
X2946629Y8483323D01*
Y8466661D01*
X2963290Y8450000D01*
X3013274D01*
X3696726Y8049984D02*
Y7950016D01*
X3746710D01*
X3763371Y7966677D01*
Y8033323D01*
X3746710Y8049984D01*
X3696726D01*
X3863339D02*
X3830016Y8033323D01*
X3796694Y8000000D01*
Y7966677D01*
X3813355Y7950016D01*
X3846678D01*
X3863339Y7966677D01*
Y7983339D01*
X3846678Y8000000D01*
X3796694D01*
X3896661Y8033323D02*
X3913323Y8049984D01*
X3946645D01*
X3963307Y8033323D01*
Y7966677D01*
X3946645Y7950016D01*
X3913323D01*
X3896661Y7966677D01*
Y8033323D01*
X3996629D02*
X4013291Y8049984D01*
X4046613D01*
X4063274Y8033323D01*
Y8016661D01*
X4046613Y8000000D01*
X4063274Y7983339D01*
Y7966677D01*
X4046613Y7950016D01*
X4013291D01*
X3996629Y7966677D01*
Y7983339D01*
X4013291Y8000000D01*
X3996629Y8016661D01*
Y8033323D01*
X4013291Y8000000D02*
X4046613D01*
X13186726Y5579984D02*
Y5480016D01*
X13236710D01*
X13253371Y5496678D01*
Y5563323D01*
X13236710Y5579984D01*
X13186726D01*
X13353339D02*
X13320016Y5563323D01*
X13286694Y5530000D01*
Y5496678D01*
X13303355Y5480016D01*
X13336678D01*
X13353339Y5496678D01*
Y5513339D01*
X13336678Y5530000D01*
X13286694D01*
X13386661Y5563323D02*
X13403323Y5579984D01*
X13436646D01*
X13453307Y5563323D01*
Y5496678D01*
X13436646Y5480016D01*
X13403323D01*
X13386661Y5496678D01*
Y5563323D01*
X13486629Y5579984D02*
X13553275D01*
Y5563323D01*
X13486629Y5496678D01*
Y5480016D01*
X11676726Y5569984D02*
Y5470016D01*
X11726710D01*
X11743371Y5486677D01*
Y5553322D01*
X11726710Y5569984D01*
X11676726D01*
X11843339D02*
X11810016Y5553322D01*
X11776693Y5520000D01*
Y5486677D01*
X11793355Y5470016D01*
X11826677D01*
X11843339Y5486677D01*
Y5503338D01*
X11826677Y5520000D01*
X11776693D01*
X11876661Y5553322D02*
X11893323Y5569984D01*
X11926645D01*
X11943306Y5553322D01*
Y5486677D01*
X11926645Y5470016D01*
X11893323D01*
X11876661Y5486677D01*
Y5553322D01*
X12043274Y5569984D02*
X12009952Y5553322D01*
X11976629Y5520000D01*
Y5486677D01*
X11993290Y5470016D01*
X12026613D01*
X12043274Y5486677D01*
Y5503338D01*
X12026613Y5520000D01*
X11976629D01*
X10836726Y5569984D02*
Y5470016D01*
X10886710D01*
X10903371Y5486677D01*
Y5553322D01*
X10886710Y5569984D01*
X10836726D01*
X11003339D02*
X10970016Y5553322D01*
X10936694Y5520000D01*
Y5486677D01*
X10953355Y5470016D01*
X10986678D01*
X11003339Y5486677D01*
Y5503338D01*
X10986678Y5520000D01*
X10936694D01*
X11036661Y5553322D02*
X11053323Y5569984D01*
X11086645D01*
X11103306Y5553322D01*
Y5486677D01*
X11086645Y5470016D01*
X11053323D01*
X11036661Y5486677D01*
Y5553322D01*
X11203274Y5569984D02*
X11136629D01*
Y5520000D01*
X11169952Y5536661D01*
X11186613D01*
X11203274Y5520000D01*
Y5486677D01*
X11186613Y5470016D01*
X11153291D01*
X11136629Y5486677D01*
X8616726Y5959984D02*
Y5860016D01*
X8666710D01*
X8683371Y5876678D01*
Y5943323D01*
X8666710Y5959984D01*
X8616726D01*
X8783339D02*
X8750016Y5943323D01*
X8716694Y5910000D01*
Y5876678D01*
X8733355Y5860016D01*
X8766677D01*
X8783339Y5876678D01*
Y5893339D01*
X8766677Y5910000D01*
X8716694D01*
X8816661Y5943323D02*
X8833323Y5959984D01*
X8866645D01*
X8883306Y5943323D01*
Y5876678D01*
X8866645Y5860016D01*
X8833323D01*
X8816661Y5876678D01*
Y5943323D01*
X8966613Y5860016D02*
Y5959984D01*
X8916629Y5910000D01*
X8983274D01*
X7746726Y5979984D02*
Y5880016D01*
X7796710D01*
X7813371Y5896678D01*
Y5963323D01*
X7796710Y5979984D01*
X7746726D01*
X7913339D02*
X7880016Y5963323D01*
X7846693Y5930000D01*
Y5896678D01*
X7863355Y5880016D01*
X7896677D01*
X7913339Y5896678D01*
Y5913339D01*
X7896677Y5930000D01*
X7846693D01*
X7946661Y5963323D02*
X7963323Y5979984D01*
X7996645D01*
X8013306Y5963323D01*
Y5896678D01*
X7996645Y5880016D01*
X7963323D01*
X7946661Y5896678D01*
Y5963323D01*
X8046629D02*
X8063290Y5979984D01*
X8096613D01*
X8113274Y5963323D01*
Y5946661D01*
X8096613Y5930000D01*
X8079952D01*
X8096613D01*
X8113274Y5913339D01*
Y5896678D01*
X8096613Y5880016D01*
X8063290D01*
X8046629Y5896678D01*
X5676726Y5569984D02*
Y5470016D01*
X5726710D01*
X5743371Y5486677D01*
Y5553322D01*
X5726710Y5569984D01*
X5676726D01*
X5843339D02*
X5810016Y5553322D01*
X5776694Y5520000D01*
Y5486677D01*
X5793355Y5470016D01*
X5826677D01*
X5843339Y5486677D01*
Y5503338D01*
X5826677Y5520000D01*
X5776694D01*
X5876661Y5553322D02*
X5893323Y5569984D01*
X5926645D01*
X5943306Y5553322D01*
Y5486677D01*
X5926645Y5470016D01*
X5893323D01*
X5876661Y5486677D01*
Y5553322D01*
X6043274Y5470016D02*
X5976629D01*
X6043274Y5536661D01*
Y5553322D01*
X6026613Y5569984D01*
X5993291D01*
X5976629Y5553322D01*
X4339984Y5851613D02*
X4240016D01*
Y5801629D01*
X4256678Y5784968D01*
X4323323D01*
X4339984Y5801629D01*
Y5851613D01*
Y5685000D02*
X4323323Y5718323D01*
X4290000Y5751645D01*
X4256678D01*
X4240016Y5734984D01*
Y5701661D01*
X4256678Y5685000D01*
X4273339D01*
X4290000Y5701661D01*
Y5751645D01*
X4323323Y5651677D02*
X4339984Y5635016D01*
Y5601693D01*
X4323323Y5585032D01*
X4256678D01*
X4240016Y5601693D01*
Y5635016D01*
X4256678Y5651677D01*
X4323323D01*
X4240016Y5551709D02*
Y5518387D01*
Y5535048D01*
X4339984D01*
X4323323Y5551709D01*
X2834984Y5893274D02*
X2735016D01*
Y5843290D01*
X2751677Y5826629D01*
X2818322D01*
X2834984Y5843290D01*
Y5893274D01*
Y5726661D02*
X2818322Y5759984D01*
X2785000Y5793306D01*
X2751677D01*
X2735016Y5776645D01*
Y5743322D01*
X2751677Y5726661D01*
X2768338D01*
X2785000Y5743322D01*
Y5793306D01*
X2818322Y5693338D02*
X2834984Y5676677D01*
Y5643354D01*
X2818322Y5626693D01*
X2751677D01*
X2735016Y5643354D01*
Y5676677D01*
X2751677Y5693338D01*
X2818322D01*
Y5593371D02*
X2834984Y5576709D01*
Y5543387D01*
X2818322Y5526726D01*
X2751677D01*
X2735016Y5543387D01*
Y5576709D01*
X2751677Y5593371D01*
X2818322D01*
X7021726Y7849984D02*
Y7766677D01*
X7038387Y7750016D01*
X7071710D01*
X7088371Y7766677D01*
Y7849984D01*
X7188339D02*
X7121694D01*
Y7800000D01*
X7155016Y7816661D01*
X7171678D01*
X7188339Y7800000D01*
Y7766677D01*
X7171678Y7750016D01*
X7138355D01*
X7121694Y7766677D01*
X7221661Y7833322D02*
X7238323Y7849984D01*
X7271645D01*
X7288306Y7833322D01*
Y7766677D01*
X7271645Y7750016D01*
X7238323D01*
X7221661Y7766677D01*
Y7833322D01*
X7321629D02*
X7338291Y7849984D01*
X7371613D01*
X7388274Y7833322D01*
Y7766677D01*
X7371613Y7750016D01*
X7338291D01*
X7321629Y7766677D01*
Y7833322D01*
X9851726Y6394984D02*
Y6311677D01*
X9868387Y6295016D01*
X9901710D01*
X9918371Y6311677D01*
Y6394984D01*
X10018339Y6295016D02*
X9951694D01*
X10018339Y6361661D01*
Y6378323D01*
X10001677Y6394984D01*
X9968355D01*
X9951694Y6378323D01*
X10051661D02*
X10068323Y6394984D01*
X10101645D01*
X10118306Y6378323D01*
Y6311677D01*
X10101645Y6295016D01*
X10068323D01*
X10051661Y6311677D01*
Y6378323D01*
X10151629D02*
X10168291Y6394984D01*
X10201613D01*
X10218274Y6378323D01*
Y6311677D01*
X10201613Y6295016D01*
X10168291D01*
X10151629Y6311677D01*
Y6378323D01*
X10251726Y8379984D02*
X10318371D01*
X10285048D01*
Y8280016D01*
X10418339D02*
X10351694D01*
X10418339Y8346661D01*
Y8363323D01*
X10401677Y8379984D01*
X10368355D01*
X10351694Y8363323D01*
X10451661D02*
X10468323Y8379984D01*
X10501645D01*
X10518306Y8363323D01*
Y8296678D01*
X10501645Y8280016D01*
X10468323D01*
X10451661Y8296678D01*
Y8363323D01*
X10551629D02*
X10568291Y8379984D01*
X10601613D01*
X10618274Y8363323D01*
Y8296678D01*
X10601613Y8280016D01*
X10568291D01*
X10551629Y8296678D01*
Y8363323D01*
X15860033Y8404984D02*
X15826711D01*
X15843372D01*
Y8321678D01*
X15826711Y8305016D01*
X15810049D01*
X15793387Y8321678D01*
X15893355Y8388323D02*
X15910016Y8404984D01*
X15943340D01*
X15960001Y8388323D01*
Y8371661D01*
X15943340Y8355000D01*
X15926678D01*
X15943340D01*
X15960001Y8338339D01*
Y8321678D01*
X15943340Y8305016D01*
X15910016D01*
X15893355Y8321678D01*
X15993323Y8388323D02*
X16009984Y8404984D01*
X16043307D01*
X16059969Y8388323D01*
Y8321678D01*
X16043307Y8305016D01*
X16009984D01*
X15993323Y8321678D01*
Y8388323D01*
X16093291Y8305016D02*
X16126613D01*
X16109952D01*
Y8404984D01*
X16093291Y8388323D01*
X378371Y8404984D02*
X345048D01*
X361710D01*
Y8321678D01*
X345048Y8305016D01*
X328387D01*
X311726Y8321678D01*
X411694Y8388323D02*
X428355Y8404984D01*
X461678D01*
X478339Y8388323D01*
Y8371661D01*
X461678Y8355000D01*
X445016D01*
X461678D01*
X478339Y8338339D01*
Y8321678D01*
X461678Y8305016D01*
X428355D01*
X411694Y8321678D01*
X511661Y8388323D02*
X528323Y8404984D01*
X561645D01*
X578306Y8388323D01*
Y8321678D01*
X561645Y8305016D01*
X528323D01*
X511661Y8321678D01*
Y8388323D01*
X611629D02*
X628291Y8404984D01*
X661613D01*
X678274Y8388323D01*
Y8321678D01*
X661613Y8305016D01*
X628291D01*
X611629Y8321678D01*
Y8388323D01*
X8864500Y1016440D02*
Y1116407D01*
X8914484D01*
X8931145Y1099746D01*
Y1066424D01*
X8914484Y1049762D01*
X8864500D01*
X8964468Y1016440D02*
X8997790D01*
X8981129D01*
Y1116407D01*
X8964468Y1099746D01*
X9047774D02*
X9064436Y1116407D01*
X9097758D01*
X9114419Y1099746D01*
Y1033101D01*
X9097758Y1016440D01*
X9064436D01*
X9047774Y1033101D01*
Y1099746D01*
X9197726Y1016440D02*
Y1116407D01*
X9147742Y1066424D01*
X9214387D01*
X4366160Y1016440D02*
Y1116407D01*
X4416144D01*
X4432805Y1099746D01*
Y1066424D01*
X4416144Y1049762D01*
X4366160D01*
X4466128Y1016440D02*
X4499450D01*
X4482789D01*
Y1116407D01*
X4466128Y1099746D01*
X4549434D02*
X4566096Y1116407D01*
X4599418D01*
X4616079Y1099746D01*
Y1033101D01*
X4599418Y1016440D01*
X4566096D01*
X4549434Y1033101D01*
Y1099746D01*
X4649402Y1016440D02*
X4682724D01*
X4666063D01*
Y1116407D01*
X4649402Y1099746D01*
X11864240Y1016440D02*
Y1116407D01*
X11914224D01*
X11930885Y1099746D01*
Y1066424D01*
X11914224Y1049762D01*
X11864240D01*
X11964208Y1016440D02*
X11997530D01*
X11980869D01*
Y1116407D01*
X11964208Y1099746D01*
X12047514D02*
X12064176Y1116407D01*
X12097498D01*
X12114159Y1099746D01*
Y1033101D01*
X12097498Y1016440D01*
X12064176D01*
X12047514Y1033101D01*
Y1099746D01*
X12214127Y1116407D02*
X12180804Y1099746D01*
X12147482Y1066424D01*
Y1033101D01*
X12164143Y1016440D01*
X12197466D01*
X12214127Y1033101D01*
Y1049762D01*
X12197466Y1066424D01*
X12147482D01*
X7365900Y1016440D02*
Y1116407D01*
X7415884D01*
X7432545Y1099746D01*
Y1066424D01*
X7415884Y1049762D01*
X7365900D01*
X7465868Y1016440D02*
X7499190D01*
X7482529D01*
Y1116407D01*
X7465868Y1099746D01*
X7549174D02*
X7565836Y1116407D01*
X7599158D01*
X7615819Y1099746D01*
Y1033101D01*
X7599158Y1016440D01*
X7565836D01*
X7549174Y1033101D01*
Y1099746D01*
X7649142D02*
X7665803Y1116407D01*
X7699126D01*
X7715787Y1099746D01*
Y1083085D01*
X7699126Y1066424D01*
X7682464D01*
X7699126D01*
X7715787Y1049762D01*
Y1033101D01*
X7699126Y1016440D01*
X7665803D01*
X7649142Y1033101D01*
X2865020Y1016440D02*
Y1116407D01*
X2915004D01*
X2931665Y1099746D01*
Y1066424D01*
X2915004Y1049762D01*
X2865020D01*
X2964988Y1016440D02*
X2998310D01*
X2981649D01*
Y1116407D01*
X2964988Y1099746D01*
X3048294D02*
X3064956Y1116407D01*
X3098278D01*
X3114939Y1099746D01*
Y1033101D01*
X3098278Y1016440D01*
X3064956D01*
X3048294Y1033101D01*
Y1099746D01*
X3148262D02*
X3164923Y1116407D01*
X3198246D01*
X3214907Y1099746D01*
Y1033101D01*
X3198246Y1016440D01*
X3164923D01*
X3148262Y1033101D01*
Y1099746D01*
X13365379Y1016440D02*
Y1116407D01*
X13415364D01*
X13432025Y1099746D01*
Y1066424D01*
X13415364Y1049762D01*
X13365379D01*
X13465347Y1016440D02*
X13498669D01*
X13482008D01*
Y1116407D01*
X13465347Y1099746D01*
X13548654D02*
X13565315Y1116407D01*
X13598637D01*
X13615298Y1099746D01*
Y1033101D01*
X13598637Y1016440D01*
X13565315D01*
X13548654Y1033101D01*
Y1099746D01*
X13648622Y1116407D02*
X13715266D01*
Y1099746D01*
X13648622Y1033101D01*
Y1016440D01*
X10365640D02*
Y1116407D01*
X10415624D01*
X10432285Y1099746D01*
Y1066424D01*
X10415624Y1049762D01*
X10365640D01*
X10465608Y1016440D02*
X10498930D01*
X10482269D01*
Y1116407D01*
X10465608Y1099746D01*
X10548914D02*
X10565576Y1116407D01*
X10598898D01*
X10615559Y1099746D01*
Y1033101D01*
X10598898Y1016440D01*
X10565576D01*
X10548914Y1033101D01*
Y1099746D01*
X10715527Y1116407D02*
X10648882D01*
Y1066424D01*
X10682204Y1083085D01*
X10698866D01*
X10715527Y1066424D01*
Y1033101D01*
X10698866Y1016440D01*
X10665543D01*
X10648882Y1033101D01*
X5864760Y1016440D02*
Y1116407D01*
X5914744D01*
X5931405Y1099746D01*
Y1066424D01*
X5914744Y1049762D01*
X5864760D01*
X5964728Y1016440D02*
X5998050D01*
X5981389D01*
Y1116407D01*
X5964728Y1099746D01*
X6048034D02*
X6064696Y1116407D01*
X6098018D01*
X6114679Y1099746D01*
Y1033101D01*
X6098018Y1016440D01*
X6064696D01*
X6048034Y1033101D01*
Y1099746D01*
X6214647Y1016440D02*
X6148002D01*
X6214647Y1083085D01*
Y1099746D01*
X6197986Y1116407D01*
X6164663D01*
X6148002Y1099746D01*
X9186940Y4198828D02*
Y4098860D01*
Y4132183D01*
X9253585Y4198828D01*
X9203601Y4148844D01*
X9253585Y4098860D01*
X9286908D02*
X9320230D01*
X9303569D01*
Y4198828D01*
X9286908Y4182167D01*
X9370214D02*
X9386876Y4198828D01*
X9420198D01*
X9436859Y4182167D01*
Y4115522D01*
X9420198Y4098860D01*
X9386876D01*
X9370214Y4115522D01*
Y4182167D01*
X9520166Y4098860D02*
Y4198828D01*
X9470182Y4148844D01*
X9536827D01*
X4086620Y4198828D02*
Y4098860D01*
Y4132183D01*
X4153265Y4198828D01*
X4103281Y4148844D01*
X4153265Y4098860D01*
X4186588D02*
X4219910D01*
X4203249D01*
Y4198828D01*
X4186588Y4182167D01*
X4269894D02*
X4286556Y4198828D01*
X4319878D01*
X4336539Y4182167D01*
Y4115522D01*
X4319878Y4098860D01*
X4286556D01*
X4269894Y4115522D01*
Y4182167D01*
X4369862Y4098860D02*
X4403184D01*
X4386523D01*
Y4198828D01*
X4369862Y4182167D01*
X12588000Y4198828D02*
Y4098860D01*
Y4132183D01*
X12654645Y4198828D01*
X12604661Y4148844D01*
X12654645Y4098860D01*
X12687968D02*
X12721290D01*
X12704629D01*
Y4198828D01*
X12687968Y4182167D01*
X12771274D02*
X12787936Y4198828D01*
X12821259D01*
X12837920Y4182167D01*
Y4115522D01*
X12821259Y4098860D01*
X12787936D01*
X12771274Y4115522D01*
Y4182167D01*
X12937888Y4198828D02*
X12904564Y4182167D01*
X12871242Y4148844D01*
Y4115522D01*
X12887903Y4098860D01*
X12921227D01*
X12937888Y4115522D01*
Y4132183D01*
X12921227Y4148844D01*
X12871242D01*
X7487680Y4198828D02*
Y4098860D01*
Y4132183D01*
X7554325Y4198828D01*
X7504341Y4148844D01*
X7554325Y4098860D01*
X7587648D02*
X7620970D01*
X7604309D01*
Y4198828D01*
X7587648Y4182167D01*
X7670954D02*
X7687616Y4198828D01*
X7720938D01*
X7737599Y4182167D01*
Y4115522D01*
X7720938Y4098860D01*
X7687616D01*
X7670954Y4115522D01*
Y4182167D01*
X7770922D02*
X7787583Y4198828D01*
X7820906D01*
X7837567Y4182167D01*
Y4165505D01*
X7820906Y4148844D01*
X7804244D01*
X7820906D01*
X7837567Y4132183D01*
Y4115522D01*
X7820906Y4098860D01*
X7787583D01*
X7770922Y4115522D01*
X2387360Y4198828D02*
Y4098860D01*
Y4132183D01*
X2454005Y4198828D01*
X2404021Y4148844D01*
X2454005Y4098860D01*
X2487328D02*
X2520650D01*
X2503989D01*
Y4198828D01*
X2487328Y4182167D01*
X2570634D02*
X2587296Y4198828D01*
X2620618D01*
X2637279Y4182167D01*
Y4115522D01*
X2620618Y4098860D01*
X2587296D01*
X2570634Y4115522D01*
Y4182167D01*
X2670602D02*
X2687263Y4198828D01*
X2720586D01*
X2737247Y4182167D01*
Y4115522D01*
X2720586Y4098860D01*
X2687263D01*
X2670602Y4115522D01*
Y4182167D01*
X14287260Y4198828D02*
Y4098860D01*
Y4132183D01*
X14353905Y4198828D01*
X14303922Y4148844D01*
X14353905Y4098860D01*
X14387228D02*
X14420551D01*
X14403889D01*
Y4198828D01*
X14387228Y4182167D01*
X14470534D02*
X14487196Y4198828D01*
X14520518D01*
X14537180Y4182167D01*
Y4115522D01*
X14520518Y4098860D01*
X14487196D01*
X14470534Y4115522D01*
Y4182167D01*
X14570502Y4198828D02*
X14637148D01*
Y4182167D01*
X14570502Y4115522D01*
Y4098860D01*
X10886200Y4198828D02*
Y4098860D01*
Y4132183D01*
X10952845Y4198828D01*
X10902861Y4148844D01*
X10952845Y4098860D01*
X10986168D02*
X11019490D01*
X11002829D01*
Y4198828D01*
X10986168Y4182167D01*
X11069474D02*
X11086136Y4198828D01*
X11119458D01*
X11136119Y4182167D01*
Y4115522D01*
X11119458Y4098860D01*
X11086136D01*
X11069474Y4115522D01*
Y4182167D01*
X11236087Y4198828D02*
X11169442D01*
Y4148844D01*
X11202764Y4165505D01*
X11219426D01*
X11236087Y4148844D01*
Y4115522D01*
X11219426Y4098860D01*
X11186103D01*
X11169442Y4115522D01*
X5788420Y4198828D02*
Y4098860D01*
Y4132183D01*
X5855065Y4198828D01*
X5805081Y4148844D01*
X5855065Y4098860D01*
X5888388D02*
X5921710D01*
X5905049D01*
Y4198828D01*
X5888388Y4182167D01*
X5971694D02*
X5988356Y4198828D01*
X6021678D01*
X6038339Y4182167D01*
Y4115522D01*
X6021678Y4098860D01*
X5988356D01*
X5971694Y4115522D01*
Y4182167D01*
X6138307Y4098860D02*
X6071662D01*
X6138307Y4165505D01*
Y4182167D01*
X6121646Y4198828D01*
X6088323D01*
X6071662Y4182167D01*
D107*
X15284003Y7960597D02*
X15250679Y7927274D01*
Y7860629D01*
X15284003Y7827307D01*
X15417291D01*
X15450615Y7860629D01*
Y7927274D01*
X15417291Y7960597D01*
X15350647D01*
Y7893952D01*
X15450615Y8027242D02*
X15250679D01*
X15450615Y8160533D01*
X15250679D01*
Y8227178D02*
X15450615D01*
Y8327146D01*
X15417291Y8360468D01*
X15284003D01*
X15250679Y8327146D01*
Y8227178D01*
X15025102Y7827307D02*
X14825166D01*
Y7927275D01*
X14858488Y7960597D01*
X14925134D01*
X14958456Y7927275D01*
Y7827307D01*
X14825166Y8027243D02*
X15025102D01*
X14958456Y8093888D01*
X15025102Y8160533D01*
X14825166D01*
X15025102Y8227178D02*
X14825166D01*
Y8327146D01*
X14858488Y8360468D01*
X14925134D01*
X14958456Y8327146D01*
Y8227178D01*
Y8293823D02*
X15025102Y8360468D01*
X15058424Y8427114D02*
Y8560404D01*
X14825166Y8627049D02*
Y8693694D01*
Y8660372D01*
X15025102D01*
Y8627049D01*
Y8693694D01*
Y8793662D02*
X14825166D01*
X15025102Y8926952D01*
X14825166D01*
%TF.MD5,0256d26a6d6ad34127fc765cb459de51*%
M02*
